<?xml version="1.0" standalone="no"?>
<!DOCTYPE svg PUBLIC "-//W3C//DTD SVG 1.1//EN" "http://www.w3.org/Graphics/SVG/1.1/DTD/svg11.dtd" >
<svg>
<metadata>
Created by FontForge 20090622 at Fri May 13 08:07:58 2016
 By deploy user
</metadata>
<defs>
<font id="Untitled1" horiz-adv-x="403" >
  <font-face 
    font-family="Untitled1"
    font-weight="400"
    font-stretch="normal"
    units-per-em="1000"
    panose-1="2 0 5 3 0 0 0 0 0 0"
    ascent="730"
    descent="-270"
    x-height="479"
    cap-height="682"
    bbox="-179 -257 1215 973"
    underline-thickness="0"
    underline-position="0"
    unicode-range="U+0021-U+FB04"
  />
<missing-glyph horiz-adv-x="500" 
 />
    <glyph glyph-name="I_J" unicode="IJ" horiz-adv-x="628" 
d="M70 0v682h118v-682h-118zM448 190v492h118v-487q0 -114 -48.5 -165t-144.5 -51q-56 0 -104 20v101q42 -19 89 -19t68.5 25t21.5 84z" />
    <glyph glyph-name="i_j" unicode="ij" horiz-adv-x="484" 
d="M65 0v479h112v-479h-112zM59 585v114h124v-114h-124zM419 479v-524q0 -104 -45.5 -155t-127.5 -51q-47 0 -91 14v94q39 -12 72 -12q80 0 80 106v528h112zM301 585v114h124v-114h-124z" />
    <glyph glyph-name="quotesingle_n" unicode="&#x27;n" horiz-adv-x="664" 
d="M160 0v479h111v-60h2q53 76 146 76q80 0 133 -55t53 -164v-276h-112v270q0 61 -27 93.5t-76 32.5q-54 0 -86 -37t-32 -105v-254h-112zM-20 596v124h130v-60q0 -103 -53 -187h-65q33 50 38 123h-50z" />
    <glyph glyph-name="f_f" unicode="ff" horiz-adv-x="616" 
d="M201 385v-385h-112v385h-68v94h68v79q0 81 42 124t121 43q43 0 73 -9v-92q-30 8 -54 8q-70 0 -70 -76v-77h189v79q0 81 42 124t121 43q43 0 73 -9v-92q-29 8 -54 8q-70 0 -70 -76v-77h107v-94h-107v-385h-112v385h-189z" />
    <glyph glyph-name="f_i" unicode="fi" horiz-adv-x="567" 
d="M21 385v94h68v79q0 81 42 124t121 43q43 0 73 -9v-92q-30 8 -54 8q-70 0 -70 -76v-77h107v-94h-107v-385h-112v385h-68zM390 0v479h112v-479h-112zM384 585v114h124v-114h-124z" />
    <glyph glyph-name="f_l" unicode="fl" horiz-adv-x="570" 
d="M21 385v94h68v79q0 81 42 124t121 43q43 0 73 -9v-92q-30 8 -54 8q-70 0 -70 -76v-77h107v-94h-107v-385h-112v385h-68zM393 0v720h112v-720h-112z" />
    <glyph glyph-name="f_f_i" unicode="ffi" horiz-adv-x="868" 
d="M691 0v479h112v-479h-112zM685 585v114h124v-114h-124zM201 385v-385h-112v385h-68v94h68v79q0 81 42 124t121 43q43 0 73 -9v-92q-30 8 -54 8q-70 0 -70 -76v-77h189v79q0 81 42 124t121 43q43 0 73 -9v-92q-29 8 -54 8q-70 0 -70 -76v-77h107v-94h-107v-385h-112v385
h-189z" />
    <glyph glyph-name="f_f_l" unicode="ffl" horiz-adv-x="868" 
d="M691 0v720h112v-720h-112zM201 385v-385h-112v385h-68v94h68v79q0 81 42 124t121 43q43 0 73 -9v-92q-30 8 -54 8q-70 0 -70 -76v-77h189v79q0 81 42 124t121 43q43 0 73 -9v-92q-29 8 -54 8q-70 0 -70 -76v-77h107v-94h-107v-385h-112v385h-189z" />
    <glyph glyph-name=".notdef" horiz-adv-x="500" 
 />
    <glyph glyph-name=".notdef" horiz-adv-x="500" 
 />
    <glyph glyph-name=".null" horiz-adv-x="0" 
 />
    <glyph glyph-name="nonmarkingreturn" horiz-adv-x="333" 
 />
    <glyph glyph-name="glyph9" horiz-adv-x="500" 
d="M12 0v665h475v-665h-475zM88 618l162 -243l161 243h-323zM60 575v-484l40 61l80 120l41 61zM440 575l-162 -242l162 -243v485zM411 48l-161 242l-162 -242h323z" />
    <glyph glyph-name="exclam" unicode="!" horiz-adv-x="256" 
d="M69 0v112h119v-112h-119zM67 682h123l-12 -480h-99z" />
    <glyph glyph-name="quotedbl" unicode="&#x22;" horiz-adv-x="406" 
d="M56 721h105l-10 -232h-86zM246 721h104l-10 -232h-86z" />
    <glyph glyph-name="numbersign" unicode="#" horiz-adv-x="603" 
d="M473 483h117l-16 -70h-116l-32 -148h118l-14 -72h-119l-42 -193h-80l42 193h-123l-43 -193h-80l43 193h-115l15 72h114l33 148h-118l15 70h118l42 199h81l-44 -199h124l43 199h80zM378 413h-124l-33 -148h125z" />
    <glyph glyph-name="dollar" unicode="$" horiz-adv-x="569" 
d="M494 501h-112q-5 35 -30.5 55t-67.5 20q-44 0 -70 -20t-26 -54q0 -35 25.5 -53.5t98.5 -41.5q104 -32 149 -80.5t45 -119.5q0 -65 -46 -118t-130 -66v-83h-90v82q-77 11 -126 57t-62 124h116q22 -96 119 -96q50 0 78.5 27.5t28.5 64.5q0 45 -29.5 71t-104.5 48
q-98 28 -140.5 72.5t-42.5 111.5q0 61 45.5 104t117.5 53v71h90v-70q72 -11 115 -54t49 -105z" />
    <glyph glyph-name="percent" unicode="%" horiz-adv-x="791" 
d="M41 515q0 93 48 140.5t113 47.5q61 0 106.5 -45.5t45.5 -140.5q0 -54 -15.5 -94t-40 -60t-49.5 -29t-50 -9q-64 0 -111 45.5t-47 144.5zM268 515q0 54 -18.5 83t-51.5 29q-31 0 -50.5 -27.5t-19.5 -83.5q0 -115 71 -115q30 0 49.5 28.5t19.5 85.5zM437 169
q0 92 47.5 139.5t111.5 47.5q61 0 107 -45t46 -140q0 -55 -15.5 -95t-40 -60t-49.5 -29t-51 -9q-63 0 -109.5 46t-46.5 145zM663 169q0 111 -70 111q-31 0 -50.5 -27.5t-19.5 -82.5q0 -115 71 -115q30 0 49.5 28t19.5 86zM583 682h88l-461 -682h-89z" />
    <glyph glyph-name="ampersand" unicode="&#x26;" horiz-adv-x="630" 
d="M480 331v11h102v-9q0 -57 -19 -112.5t-49 -94.5q42 -50 76 -50q19 0 29 4v-90q-24 -6 -47 -6q-36 0 -64 15.5t-61 53.5q-86 -71 -192 -71t-163 58t-57 142q0 125 148 203q-60 89 -60 159q0 66 46.5 112t135.5 46q76 0 126 -41.5t50 -110.5q0 -60 -39.5 -103t-117.5 -84
l126 -164q30 57 30 132zM259 73q76 0 126 48l-150 194q-93 -56 -93 -131q0 -46 32 -78.5t85 -32.5zM229 542q0 -30 10 -53.5t34 -57.5q54 26 80.5 53t26.5 63q0 27 -20 47t-56 20q-37 0 -56 -22t-19 -50z" />
    <glyph glyph-name="quotesingle" unicode="'" horiz-adv-x="217" 
d="M56 721h105l-10 -232h-86z" />
    <glyph glyph-name="parenleft" unicode="(" horiz-adv-x="344" 
d="M327 -215h-108q-76 97 -114 224.5t-38 253.5q0 128 38 254.5t114 225.5h108q-77 -98 -113.5 -224t-36.5 -256q0 -128 36.5 -255t113.5 -223z" />
    <glyph glyph-name="parenright" unicode=")" horiz-adv-x="344" 
d="M125 -215h-109q77 97 114 223t37 256q0 129 -37 255.5t-114 223.5h109q76 -98 114 -225t38 -254t-38 -254t-114 -225z" />
    <glyph glyph-name="asterisk" unicode="*" horiz-adv-x="423" 
d="M14 543l26 84l133 -50l-7 144h90l-8 -144l133 50l28 -83l-138 -37l90 -112l-74 -51l-76 120l-78 -120l-73 51l90 112z" />
    <glyph glyph-name="plus" unicode="+" horiz-adv-x="672" 
d="M594 219h-213v-219h-91v219h-212v91h212v220h91v-220h213v-91z" />
    <glyph glyph-name="comma" unicode="," horiz-adv-x="256" 
d="M58 0v135h141v-64q0 -110 -61 -206h-69q36 59 45 135h-56z" />
    <glyph glyph-name="hyphen" unicode="-" horiz-adv-x="467" 
d="M398 217h-322v94h322v-94z" />
    <glyph glyph-name="period" unicode="." horiz-adv-x="256" 
d="M58 0v135h141v-135h-141z" />
    <glyph glyph-name="slash" unicode="/" horiz-adv-x="392" 
d="M276 720h102l-299 -834h-101z" />
    <glyph glyph-name="zero" unicode="0" horiz-adv-x="569" 
d="M33 345q0 94 22.5 166t60 112.5t81 60.5t91.5 20q46 0 87.5 -18t78.5 -57t59 -111t22 -170q0 -86 -17 -153.5t-43 -107t-60.5 -65.5t-66 -35t-63.5 -9q-47 0 -88.5 18t-80 57.5t-61 114.5t-22.5 177zM418 345q0 128 -35 193t-98 65q-58 0 -95.5 -62.5t-37.5 -192.5
q0 -269 135 -269q56 0 93.5 64.5t37.5 201.5z" />
    <glyph glyph-name="one" unicode="1" horiz-adv-x="569" 
d="M233 0v579h-97v103h211v-682h-114z" />
    <glyph glyph-name="two" unicode="2" horiz-adv-x="569" 
d="M74 0v92l211 235q48 54 73.5 97t25.5 86q0 40 -25.5 66.5t-69.5 26.5q-43 0 -70 -30t-27 -79h-118q2 92 60 151t158 59q98 0 154.5 -53.5t56.5 -134.5q0 -64 -33.5 -121.5t-106.5 -136.5l-144 -155h295v-103h-440z" />
    <glyph glyph-name="three" unicode="3" horiz-adv-x="569" 
d="M192 516h-114q4 80 60.5 134t153.5 54q95 0 152 -50t57 -127q0 -57 -34.5 -97.5t-83.5 -54.5v-2q64 -13 102.5 -60t38.5 -119q0 -90 -61.5 -152.5t-172.5 -62.5q-107 0 -166 56t-65 147h115q6 -48 37 -77t82 -29q50 0 82 34.5t32 86.5q0 53 -35 86.5t-104 33.5h-40v96h40
q52 0 83 28t31 76q0 36 -23.5 62.5t-68.5 26.5q-47 0 -71 -26t-27 -64z" />
    <glyph glyph-name="four" unicode="4" horiz-adv-x="569" 
d="M534 142h-87v-142h-112v142h-303v94l304 446h111v-441h87v-99zM284 449l-144 -208h195v210q0 52 1 80h-3q-18 -36 -49 -82z" />
    <glyph glyph-name="five" unicode="5" horiz-adv-x="569" 
d="M226 579l-15 -147q30 8 65 8q110 0 176 -60.5t66 -163.5q0 -95 -64.5 -166.5t-173.5 -71.5q-104 0 -165 56.5t-67 140.5h121q6 -41 34.5 -67.5t79.5 -26.5q48 0 81 34.5t33 90.5q0 63 -38 97.5t-111 34.5q-71 0 -159 -22l35 366h347v-103h-245z" />
    <glyph glyph-name="six" unicode="6" horiz-adv-x="569" 
d="M29 225q0 57 21.5 108t62.5 110l171 239h128l-158 -219q21 8 58 8q98 -3 162.5 -73t64.5 -173t-73 -175t-183 -72q-112 0 -183 69.5t-71 177.5zM147 224q0 -62 39.5 -103.5t96.5 -41.5q59 0 98.5 41t39.5 104t-38.5 105t-99.5 42q-60 0 -98 -41t-38 -106z" />
    <glyph glyph-name="seven" unicode="7" horiz-adv-x="569" 
d="M507 682v-96l-274 -586h-126l280 579h-315v103h435z" />
    <glyph glyph-name="eight" unicode="8" horiz-adv-x="569" 
d="M184 508q0 -44 29.5 -73.5t69.5 -29.5q45 0 73.5 29t28.5 74q0 44 -28.5 71t-72.5 27q-42 0 -71 -27t-29 -71zM166 195q0 -52 33.5 -85.5t86.5 -33.5t85.5 31.5t32.5 87.5q0 53 -33 86.5t-84 33.5q-53 0 -87 -34t-34 -86zM521 190q0 -89 -61 -150t-175 -61t-175.5 59.5
t-61.5 146.5q0 132 121 180v2q-101 43 -101 151q0 78 59.5 132t157.5 54q96 0 155.5 -53.5t59.5 -128.5q0 -56 -27.5 -97.5t-72.5 -57.5v-2q121 -44 121 -175z" />
    <glyph glyph-name="nine" unicode="9" horiz-adv-x="569" 
d="M539 457q0 -99 -84 -218l-171 -239h-127l157 219q-19 -8 -58 -8q-99 2 -162.5 72t-63.5 174q0 103 73 175t183 72q111 0 182 -69.5t71 -177.5zM421 458q0 63 -39 104t-97 41q-59 0 -98 -41t-39 -104t38 -105t99 -42t98.5 41t37.5 106z" />
    <glyph glyph-name="colon" unicode=":" horiz-adv-x="264" 
d="M62 333v135h140v-135h-140zM62 0v135h140v-135h-140z" />
    <glyph glyph-name="semicolon" unicode=";" horiz-adv-x="264" 
d="M62 0v135h140v-64q0 -110 -61 -206h-69q36 59 46 135h-56zM62 333v135h140v-135h-140z" />
    <glyph glyph-name="less" unicode="&#x3c;" horiz-adv-x="672" 
d="M588 -4l-505 230v78l505 230v-102l-378 -166v-2l378 -165v-103z" />
    <glyph glyph-name="equal" unicode="=" horiz-adv-x="672" 
d="M595 333h-519v90h519v-90zM595 107h-519v90h519v-90z" />
    <glyph glyph-name="greater" unicode="&#x3e;" horiz-adv-x="672" 
d="M588 226l-505 -230v102l379 165v3l-379 166v102l505 -230v-78z" />
    <glyph glyph-name="question" unicode="?" horiz-adv-x="454" 
d="M327 325q-28 -27 -40 -54.5t-12 -68.5h-100q0 58 10.5 93.5t41.5 71.5q6 6 25 27l22 25l16 20l14 23l6 22l4 28q0 39 -24.5 65t-66.5 26q-39 0 -65.5 -27.5t-26.5 -74.5h-114q2 92 60 147.5t150 55.5q95 0 150 -52.5t55 -131.5q0 -101 -105 -195zM165 0v112h119v-112
h-119z" />
    <glyph glyph-name="at" unicode="@" horiz-adv-x="941" 
d="M882 356q0 -116 -57 -191t-140 -75q-52 0 -84.5 24t-37.5 67h-4q-22 -43 -62 -67t-81 -24q-72 0 -113.5 51.5t-41.5 132.5q0 99 56.5 174t147.5 75q74 0 111 -68h2l10 58h90l-38 -245q-5 -48 -5 -51q0 -56 58 -56q46 0 75 53.5t29 136.5q0 134 -80.5 208t-237.5 74
q-152 0 -244 -100.5t-92 -244.5q0 -139 89.5 -223.5t240.5 -84.5q127 0 202 36l27 -60q-86 -47 -237 -47q-181 0 -294 104t-113 276q0 176 119.5 295.5t306.5 119.5q99 0 177 -28.5t125 -77.5t71.5 -110.5t24.5 -131.5zM561 345q0 49 -21.5 77t-62.5 28q-56 0 -89 -52
t-33 -122q0 -52 22 -82.5t59 -30.5q56 0 90.5 55t34.5 127z" />
    <glyph glyph-name="A" unicode="A" horiz-adv-x="652" 
d="M7 0l271 682h108l259 -682h-123l-61 167h-272l-62 -167h-120zM284 431l-64 -174h210l-63 175q-21 58 -38 118h-5q-18 -62 -40 -119z" />
    <glyph glyph-name="B" unicode="B" horiz-adv-x="554" 
d="M71 0v682h173q107 0 168.5 -45.5t61.5 -127.5q0 -55 -33 -92t-84 -52v-2q76 -9 117.5 -57t41.5 -113q0 -92 -65.5 -142.5t-168.5 -50.5h-211zM396 202q0 49 -34 78t-95 29h-83v-214h92q59 0 89.5 28.5t30.5 78.5zM356 498q0 45 -31 67.5t-85 22.5h-56v-186h61
q54 0 82.5 26t28.5 70z" />
    <glyph glyph-name="C" unicode="C" horiz-adv-x="764" 
d="M388 704q131 0 213 -66.5t107 -155.5h-129q-19 52 -69.5 86t-122.5 34q-98 0 -164.5 -71t-66.5 -189q0 -110 66 -186t169 -76q74 0 124 37t72 95h132q-39 -107 -122 -170.5t-210 -63.5q-156 0 -254 103.5t-98 261.5q0 156 100.5 258.5t252.5 102.5z" />
    <glyph glyph-name="D" unicode="D" horiz-adv-x="708" 
d="M71 682h228q177 0 275.5 -97t98.5 -244q0 -145 -101 -243t-275 -98h-226v682zM189 105h108q124 0 189.5 66.5t65.5 169.5q0 107 -66.5 171.5t-188.5 64.5h-108v-472z" />
    <glyph glyph-name="E" unicode="E" horiz-adv-x="535" 
d="M464 682v-104h-276v-175h266v-101h-266v-198h287v-104h-405v682h394z" />
    <glyph glyph-name="F" unicode="F" horiz-adv-x="508" 
d="M464 682v-104h-275v-190h265v-100h-265v-288h-119v682h394z" />
    <glyph glyph-name="G" unicode="G" horiz-adv-x="773" 
d="M355 373h383v-22q0 -99 -38 -182t-119 -136.5t-192 -53.5q-154 0 -254 105t-100 255q0 154 101 259t253 105q121 0 205.5 -55.5t120.5 -150.5h-128q-25 48 -76 76t-119 28q-104 0 -170 -72.5t-66 -186.5q0 -118 68 -189.5t174 -71.5q86 0 145.5 54.5t68.5 137.5h-257v100
z" />
    <glyph glyph-name="H" unicode="H" horiz-adv-x="693" 
d="M504 0v300h-315v-300h-118v682h118v-277h315v277h118v-682h-118z" />
    <glyph glyph-name="I" unicode="I" horiz-adv-x="259" 
d="M70 0v682h118v-682h-118z" />
    <glyph glyph-name="J" unicode="J" horiz-adv-x="369" 
d="M189 190v492h118v-487q0 -114 -48.5 -165t-144.5 -51q-56 0 -104 20v101q42 -19 89 -19t68.5 25t21.5 84z" />
    <glyph glyph-name="K" unicode="K" horiz-adv-x="629" 
d="M494 0l-251 308l-54 -56v-252h-118v682h118v-286l272 286h151l-287 -294l320 -388h-151z" />
    <glyph glyph-name="L" unicode="L" horiz-adv-x="485" 
d="M70 0v682h118v-578h287v-104h-405z" />
    <glyph glyph-name="M" unicode="M" horiz-adv-x="819" 
d="M702 682l80 -682h-114l-36 361q-3 29 -9 94t-6 69h-5q-25 -91 -48 -164l-113 -360h-88l-114 368q-37 113 -46 156h-7q-3 -65 -12 -155l-38 -369h-108l79 682h135l120 -371q22 -69 36 -125h4q8 32 37 125l119 371h134z" />
    <glyph glyph-name="N" unicode="N" horiz-adv-x="675" 
d="M175 503h-3q3 -102 3 -136v-367h-105v682h105l203 -308q85 -127 122 -198h2q-2 72 -2 133v373h104v-682h-104l-194 293q-91 137 -131 210z" />
    <glyph glyph-name="O" unicode="O" horiz-adv-x="793" 
d="M156 341q0 -110 69 -183.5t171 -73.5q103 0 172 73.5t69 183.5t-67 183.5t-173 73.5q-102 0 -171.5 -73.5t-69.5 -183.5zM35 341q0 149 103.5 256t259.5 107q162 0 261 -107t99 -256q0 -151 -104 -257t-257 -106q-90 0 -161.5 32.5t-114 86t-64.5 116t-22 128.5z" />
    <glyph glyph-name="P" unicode="P" horiz-adv-x="554" 
d="M415 465q0 53 -33 85.5t-101 32.5h-93v-236h91q136 0 136 118zM70 0v682h210q115 0 185 -54.5t70 -160.5q0 -104 -65 -161t-196 -57h-86v-249h-118z" />
    <glyph glyph-name="Q" unicode="Q" horiz-adv-x="793" 
d="M650 -106l-97 119q-75 -35 -157 -35q-89 0 -160.5 32.5t-114.5 86t-65 116t-22 128.5q0 149 103.5 256t259.5 107q162 0 261 -107t99 -256q0 -163 -117 -269l91 -112zM155 341q0 -110 69 -183.5t171 -73.5q45 0 87 17l-89 110l81 66l94 -117q68 73 68 181
q0 110 -67 183.5t-173 73.5q-102 0 -171.5 -73.5t-69.5 -183.5z" />
    <glyph glyph-name="R" unicode="R" horiz-adv-x="589" 
d="M377 290l212 -290h-142l-194 275h-65v-275h-118v682h206q128 0 188 -58.5t60 -146.5q0 -70 -42 -120.5t-105 -66.5zM402 474q0 52 -30.5 80.5t-87.5 28.5h-96v-215h97q55 0 86 29.5t31 76.5z" />
    <glyph glyph-name="S" unicode="S" horiz-adv-x="555" 
d="M489 520h-116q-5 39 -30.5 62.5t-66.5 23.5t-66.5 -23.5t-25.5 -61.5q0 -40 30.5 -64t91.5 -44q106 -33 151.5 -88.5t45.5 -136.5q0 -83 -58.5 -146.5t-165.5 -63.5q-97 0 -160 53t-76 153h120q9 -51 38.5 -79.5t78.5 -28.5t77.5 31t28.5 74q0 48 -31 78t-101 52
q-186 60 -186 209q0 80 59.5 132t149.5 52t147.5 -51t64.5 -133z" />
    <glyph glyph-name="T" unicode="T" horiz-adv-x="478" 
d="M180 0v578h-170v104h458v-104h-170v-578h-118z" />
    <glyph glyph-name="U" unicode="U" horiz-adv-x="631" 
d="M316 -22q-112 0 -184 70.5t-72 222.5v411h118v-422q0 -83 36.5 -131.5t101.5 -48.5q137 0 137 180v422h117v-409q0 -152 -69 -223.5t-185 -71.5z" />
    <glyph glyph-name="V" unicode="V" horiz-adv-x="615" 
d="M615 682l-255 -682h-107l-252 682h127l138 -402q27 -79 43 -140h2q17 64 44 141l139 401h121z" />
    <glyph glyph-name="W" unicode="W" horiz-adv-x="855" 
d="M550 0l-93 390q-19 81 -24 145h-4q-10 -80 -25 -142l-90 -393h-123l-179 682h117l97 -400q13 -52 27 -130h4q12 73 27 139l92 391h113l95 -398q11 -46 26 -132h4q11 74 24 131l90 399h116l-168 -682h-126z" />
    <glyph glyph-name="X" unicode="X" horiz-adv-x="594" 
d="M146 682l105 -164q20 -31 48 -79h3q25 45 48 81l104 162h126l-221 -326l231 -356h-133l-107 173l-32 53l-23 39h-2l-57 -94l-105 -171h-127l229 352l-221 330h134z" />
    <glyph glyph-name="Y" unicode="Y" horiz-adv-x="570" 
d="M227 0v274l-218 408h130l115 -223q24 -47 36 -82h2q9 24 37 81l110 224h123l-217 -407v-275h-118z" />
    <glyph glyph-name="Z" unicode="Z" horiz-adv-x="612" 
d="M56 578v104h500v-98l-371 -480h387v-104h-533v97l371 481h-354z" />
    <glyph glyph-name="bracketleft" unicode="[" horiz-adv-x="365" 
d="M301 728v-92h-106v-744h106v-92h-209v928h209z" />
    <glyph glyph-name="backslash" unicode="\" horiz-adv-x="420" 
d="M426 -114h-102l-317 834h101z" />
    <glyph glyph-name="bracketright" unicode="]" horiz-adv-x="365" 
d="M64 636v92h209v-928h-209v92h106v744h-106z" />
    <glyph glyph-name="asciicircum" unicode="^" horiz-adv-x="668" 
d="M612 326h-106l-171 281h-3l-170 -281h-105l232 378h90z" />
    <glyph glyph-name="underscore" unicode="_" horiz-adv-x="550" 
d="M0 -238v87h550v-87h-550z" />
    <glyph glyph-name="grave" unicode="`" horiz-adv-x="324" 
d="M34 685l63 73l147 -142l-50 -60z" />
    <glyph glyph-name="a" unicode="a" horiz-adv-x="604" 
d="M538 479v-479h-109v61h-3q-63 -78 -164 -78q-89 0 -159.5 68.5t-70.5 188.5q0 112 69 183t169 71q96 0 157 -80h2v65h109zM147 240q0 -65 37.5 -112t107.5 -47q57 0 99.5 44.5t42.5 111.5q0 71 -40.5 116t-100.5 45q-70 0 -108 -47t-38 -111z" />
    <glyph glyph-name="b" unicode="b" horiz-adv-x="604" 
d="M66 0v720h109v-302h3q69 76 167 76q90 0 158.5 -69.5t68.5 -186.5q0 -113 -69 -184t-163 -71q-101 0 -161 75h-3v-58h-110zM457 239q0 65 -38 111t-107 46q-60 0 -100.5 -44t-40.5 -115q0 -68 41.5 -112.5t100.5 -44.5q68 0 106 47.5t38 111.5z" />
    <glyph glyph-name="c" unicode="c" horiz-adv-x="547" 
d="M287 495q94 0 151 -49t70 -111h-115q-26 65 -107 65q-62 0 -100.5 -43t-38.5 -117q0 -69 39.5 -115t103.5 -46q79 0 110 72h116q-22 -73 -78.5 -120.5t-149.5 -47.5q-110 0 -183 71.5t-73 186.5q0 108 70 181t185 73z" />
    <glyph glyph-name="d" unicode="d" horiz-adv-x="604" 
d="M538 720v-720h-109v57h-3q-64 -74 -166 -74q-89 0 -158.5 68.5t-69.5 188.5q0 111 68 183t166 72q97 0 159 -76h3v301h110zM147 240q0 -65 37.5 -112t106.5 -47q58 0 100.5 44.5t42.5 111.5q0 72 -41 117t-101 45q-68 0 -106.5 -47.5t-38.5 -111.5z" />
    <glyph glyph-name="e" unicode="e" horiz-adv-x="551" 
d="M275 495q116 -1 178.5 -75.5t62.5 -175.5q0 -23 -2 -33h-370q0 -56 42.5 -98t100.5 -42q67 0 107 54h115q-27 -62 -82.5 -102t-139.5 -40q-111 0 -183 73.5t-72 187.5q0 105 66.5 178t176.5 73zM275 411q-55 0 -90 -35t-40 -84h259q-5 50 -40.5 84.5t-88.5 34.5z" />
    <glyph glyph-name="f" unicode="f" horiz-adv-x="315" 
d="M21 385v94h68v79q0 81 42 124t121 43q43 0 73 -9v-92q-30 8 -54 8q-70 0 -70 -76v-77h107v-94h-107v-385h-112v385h-68z" />
    <glyph glyph-name="g" unicode="g" horiz-adv-x="604" 
d="M539 479v-464q0 -272 -253 -272q-99 0 -162 50.5t-77 137.5h112q23 -95 132 -95q69 0 105 42.5t36 122.5v60h-2q-65 -74 -163 -74t-166 70t-68 184q0 109 67.5 181t170.5 72q99 0 158 -77h3v62h107zM147 241q0 -63 38 -109.5t106 -46.5q60 0 101.5 43.5t41.5 110.5
q0 71 -40.5 115t-100.5 44q-69 0 -107.5 -47t-38.5 -110z" />
    <glyph glyph-name="h" unicode="h" horiz-adv-x="566" 
d="M65 0v720h112v-301h3q53 76 145 76q80 0 132.5 -54.5t52.5 -164.5v-276h-112v270q0 61 -27 93.5t-76 32.5q-54 0 -86 -36.5t-32 -104.5v-255h-112z" />
    <glyph glyph-name="i" unicode="i" horiz-adv-x="242" 
d="M65 0v479h112v-479h-112zM59 585v114h124v-114h-124z" />
    <glyph glyph-name="j" unicode="j" horiz-adv-x="242" 
d="M177 479v-524q0 -104 -45.5 -155t-127.5 -51q-47 0 -91 14v94q39 -12 72 -12q80 0 80 106v528h112zM59 585v114h124v-114h-124z" />
    <glyph glyph-name="k" unicode="k" horiz-adv-x="509" 
d="M380 0l-166 210l-37 -36v-174h-112v720h112v-420l172 179h136l-194 -197l225 -282h-136z" />
    <glyph glyph-name="l" unicode="l" horiz-adv-x="242" 
d="M65 0v720h112v-720h-112z" />
    <glyph glyph-name="m" unicode="m" horiz-adv-x="866" 
d="M65 0v479h111v-60h2q53 76 140 76q53 0 93 -26.5t54 -65.5q20 37 63 64.5t97 27.5q83 0 132 -57t49 -162v-276h-111v277q0 51 -24.5 85t-71.5 34q-45 0 -76 -34.5t-31 -100.5v-261h-112v277q0 52 -26 85.5t-69 33.5q-50 0 -79 -36t-29 -99v-261h-112z" />
    <glyph glyph-name="n" unicode="n" horiz-adv-x="569" 
d="M65 0v479h111v-60h2q53 76 146 76q80 0 133 -55t53 -164v-276h-112v270q0 61 -27 93.5t-76 32.5q-54 0 -86 -37t-32 -105v-254h-112z" />
    <glyph glyph-name="o" unicode="o" horiz-adv-x="577" 
d="M32 240q0 110 73.5 182.5t182.5 72.5q112 0 184 -72.5t72 -182.5q0 -107 -73 -182t-183 -75q-109 0 -182.5 74t-73.5 183zM146 240q0 -68 41.5 -112.5t100.5 -44.5q63 0 103 44.5t40 112.5q0 66 -39 111t-104 45q-64 0 -103 -44t-39 -112z" />
    <glyph glyph-name="p" unicode="p" horiz-adv-x="604" 
d="M66 -235v714h109v-61h3q65 76 165 76q95 0 162 -71.5t67 -184.5q0 -111 -68.5 -183t-166.5 -72t-158 75h-3v-293h-110zM457 239q0 65 -38 111t-107 46q-60 0 -100.5 -44t-40.5 -115q0 -68 41.5 -112.5t100.5 -44.5q68 0 106 47.5t38 111.5z" />
    <glyph glyph-name="q" unicode="q" horiz-adv-x="604" 
d="M538 479v-714h-109v292h-3q-62 -74 -164 -74q-89 0 -159.5 68.5t-70.5 188.5q0 111 68.5 183t169.5 72q93 0 155 -76h3v60h110zM147 240q0 -65 37.5 -112t106.5 -47q58 0 100.5 44.5t42.5 111.5q0 72 -41 117t-101 45q-68 0 -106.5 -47.5t-38.5 -111.5z" />
    <glyph glyph-name="r" unicode="r" horiz-adv-x="378" 
d="M354 491v-104q-35 5 -56 5q-58 0 -89.5 -38t-31.5 -112v-242h-112v479h110v-68h3q18 34 53.5 58.5t80.5 24.5q24 0 42 -3z" />
    <glyph glyph-name="s" unicode="s" horiz-adv-x="434" 
d="M386 356h-103q-4 26 -21.5 42t-42.5 16q-28 0 -44 -15t-16 -36q0 -24 19.5 -40.5t78.5 -36.5q139 -45 139 -153q0 -67 -47.5 -108.5t-128.5 -41.5q-83 0 -128 41t-52 111h104q9 -70 79 -70q31 0 48.5 16.5t17.5 42.5q0 28 -21.5 47t-78.5 39q-69 22 -102 57.5t-33 90.5
q0 60 44 98.5t119 38.5q74 0 116.5 -38.5t52.5 -100.5z" />
    <glyph glyph-name="t" unicode="t" horiz-adv-x="334" 
d="M14 385v94h60v153h112v-153h119v-94h-119v-214q0 -47 15 -65t51 -18q24 0 58 8v-91q-39 -11 -85 -11q-84 0 -117.5 44.5t-33.5 125.5v221h-60z" />
    <glyph glyph-name="u" unicode="u" horiz-adv-x="557" 
d="M493 479v-479h-111v59h-3q-54 -75 -142 -75q-33 0 -62.5 11t-56.5 34t-43 66t-16 101v283h112v-270q0 -60 26.5 -93t71.5 -33q52 0 82 36.5t30 104.5v255h112z" />
    <glyph glyph-name="v" unicode="v" horiz-adv-x="449" 
d="M452 479l-177 -479h-102l-177 479h116l80 -238q23 -71 32 -120h4q17 74 32 120l81 238h111z" />
    <glyph glyph-name="w" unicode="w" horiz-adv-x="710" 
d="M433 0l-58 241q-16 74 -20 104h-4q-6 -50 -23 -124l-52 -221h-134l-123 479h110l64 -272q13 -59 19 -95h4q13 67 21 100l66 267h107l67 -271q6 -24 18 -96h3q7 50 17 95l66 272h110l-125 -479h-133z" />
    <glyph glyph-name="x" unicode="x" horiz-adv-x="497" 
d="M13 0l175 243l-165 236h126l71 -107l10 -17l11 -19l8 -15h3q12 24 27 48l69 110h125l-165 -233l174 -246h-130l-76 115l-29 52h-3l-31 -53l-74 -114h-126z" />
    <glyph glyph-name="y" unicode="y" horiz-adv-x="452" 
d="M456 479l-263 -714h-107l88 237l-175 477h115l83 -238q26 -79 32 -110h3q14 56 32 110l81 238h111z" />
    <glyph glyph-name="z" unicode="z" horiz-adv-x="484" 
d="M48 386v93h387v-89l-257 -297h269v-93h-411v89l258 297h-246z" />
    <glyph glyph-name="braceleft" unicode="{" horiz-adv-x="382" 
d="M320 742v-85q-70 -1 -70 -79v-186q0 -43 -21 -78t-61 -51v-2q38 -13 60 -48.5t22 -87.5v-177q0 -76 70 -79v-84q-175 1 -175 165v188q0 35 -22 58.5t-61 26.5v80q39 2 61 26t22 58v192q0 76 43 119t132 44z" />
    <glyph glyph-name="bar" unicode="|" horiz-adv-x="376" 
d="M232 -210h-89v1000h89v-1000z" />
    <glyph glyph-name="braceright" unicode="}" horiz-adv-x="382" 
d="M62 657v85q88 -1 131 -44.5t43 -118.5v-192q0 -34 22 -58t61 -26v-80q-39 -3 -61 -26.5t-22 -58.5v-188q0 -82 -45.5 -123t-128.5 -42v84q70 3 70 79v177q0 52 22 87.5t60 48.5v2q-40 16 -61 51t-21 78v186q0 78 -70 79z" />
    <glyph glyph-name="asciitilde" unicode="~" horiz-adv-x="668" 
d="M624 294q-35 -59 -76.5 -87.5t-99.5 -28.5q-65 0 -125 38q-25 16 -38 23t-31.5 13.5t-35.5 6.5q-32 0 -55.5 -18t-48.5 -58l-70 46q65 117 172 117q60 0 126 -39q66 -43 108 -43q59 0 104 75z" />
    <glyph glyph-name="exclamdown" unicode="&#xa1;" horiz-adv-x="256" 
d="M188 682v-112h-119v112h119zM190 0h-123l12 480h99z" />
    <glyph glyph-name="cent" unicode="&#xa2;" horiz-adv-x="569" 
d="M250 0v93q-89 16 -147 84t-58 170q0 95 55.5 164.5t149.5 85.5v85h86v-84q77 -10 124.5 -56t60.5 -101h-113q-20 46 -72 61v-313q55 14 79 68h114q-20 -64 -69.5 -110t-123.5 -56v-91h-86zM159 346q0 -54 24.5 -95t66.5 -57v305q-42 -15 -66.5 -55.5t-24.5 -97.5z" />
    <glyph glyph-name="sterling" unicode="&#xa3;" horiz-adv-x="569" 
d="M415 398v-89h-172q9 -47 9 -79q0 -68 -44 -105q30 0 92 -22q70 -22 89 -22q50 0 53 88h107q-2 -90 -39.5 -140.5t-110.5 -50.5q-48 0 -135 29q-70 24 -104 24q-57 0 -114 -34v99q47 15 73 50.5t26 73.5q0 44 -12 89h-87v89h63q-15 64 -15 116q0 81 53.5 136t154.5 55
q93 0 149.5 -55t60.5 -142h-114q-1 45 -28 72.5t-67 27.5q-45 0 -69.5 -29t-24.5 -77q0 -49 12 -104h194z" />
    <glyph glyph-name="currency" unicode="&#xa4;" horiz-adv-x="614" 
d="M544 175l-53 -55l-69 67q-51 -36 -115 -36q-67 0 -116 36l-68 -67l-54 55l69 65q-36 56 -36 114q0 64 36 114l-69 66l54 55l68 -67q53 35 116 35q65 0 115 -35l69 67l53 -55l-68 -66q36 -54 36 -114q0 -59 -36 -114zM435 355q0 54 -39 90.5t-89 36.5q-54 0 -91.5 -37.5
t-37.5 -89.5q0 -53 38 -90.5t91 -37.5t90.5 37.5t37.5 90.5z" />
    <glyph glyph-name="yen" unicode="&#xa5;" horiz-adv-x="569" 
d="M53 278v84h135l-169 320h122l107 -213q27 -53 38 -85h2q16 40 37 84l105 214h119l-169 -320h136v-84h-175v-78h175v-84h-175v-116h-113v116h-175v84h175v78h-175z" />
    <glyph glyph-name="brokenbar" unicode="&#xa6;" horiz-adv-x="376" 
d="M232 390h-89v300h89v-300zM232 -110h-89v300h89v-300z" />
    <glyph glyph-name="section" unicode="&#xa7;" horiz-adv-x="439" 
d="M390 331q0 -80 -74 -116q60 -42 60 -117q0 -61 -42 -102.5t-121 -41.5q-76 0 -118 38.5t-47 107.5h95q3 -69 72 -69q32 0 50 18.5t18 45.5q0 30 -22.5 50.5t-67.5 40.5q-67 29 -102.5 64.5t-35.5 92.5q0 38 20 67.5t55 42.5q-62 45 -62 116q0 58 42 96.5t116 38.5
q67 0 107.5 -37.5t42.5 -95.5h-89q-2 24 -19 39t-45 15q-32 0 -47.5 -16.5t-15.5 -37.5q0 -29 22 -48t86 -46q122 -52 122 -146zM299 325q0 29 -23 47.5t-76 38.5q-23 -5 -39 -21t-16 -40q0 -30 22 -49t80 -44q52 19 52 68z" />
    <glyph glyph-name="dieresis" unicode="&#xa8;" horiz-adv-x="324" 
d="M20 593v102h105v-102h-105zM200 593v102h105v-102h-105z" />
    <glyph glyph-name="copyright" unicode="&#xa9;" horiz-adv-x="822" 
d="M412 554q75 0 121 -42t59 -99h-89q-19 63 -93 63q-51 0 -82 -35.5t-31 -94.5q0 -57 31.5 -93.5t85.5 -36.5q34 0 59 19t34 52h89q-17 -65 -66 -107t-118 -42q-90 0 -145 59t-55 151q0 89 57 147.5t143 58.5zM48 341q0 150 106.5 256.5t256.5 106.5q151 0 257 -106.5
t106 -256.5t-106 -256.5t-257 -106.5q-150 0 -256.5 106.5t-106.5 256.5zM106 341q0 -126 90 -215.5t215 -89.5q127 0 216 89.5t89 215.5t-89 215.5t-216 89.5q-125 0 -215 -89.5t-90 -215.5z" />
    <glyph glyph-name="ordfeminine" unicode="&#xaa;" horiz-adv-x="384" 
d="M360 399v-70q-14 -7 -39 -7q-26 0 -45.5 14.5t-23.5 40.5q-39 -58 -112 -58q-53 0 -83 28.5t-30 74.5q0 58 55 97t163 48v4q0 66 -58 66q-60 0 -69 -45h-78q7 51 47.5 81.5t100.5 30.5q66 0 103 -35.5t37 -107.5v-124q0 -40 19 -40q5 0 13 2zM245 483v21
q-69 -7 -101 -27.5t-32 -47.5q0 -41 48 -41q38 0 61.5 26t23.5 69z" />
    <glyph glyph-name="guillemotleft" unicode="&#xab;" horiz-adv-x="487" 
d="M241 248l128 207l70 -38l-87 -169l87 -169l-70 -39zM52 248l128 207l70 -38l-88 -169l88 -169l-70 -39z" />
    <glyph glyph-name="logicalnot" unicode="&#xac;" horiz-adv-x="672" 
d="M595 104h-92v191h-427v90h519v-281z" />
    <glyph glyph-name="uni00AD" unicode="&#xad;" horiz-adv-x="467" 
d="M401 217h-322v94h322v-94z" />
    <glyph glyph-name="registered" unicode="&#xae;" horiz-adv-x="498" 
d="M35 488q0 89 63 152.5t152 63.5q88 0 151 -63.5t63 -152.5q0 -88 -63 -151t-151 -63q-89 0 -152 63t-63 151zM80 488q0 -70 50 -119.5t120 -49.5t119.5 49.5t49.5 119.5q0 71 -49.5 120.5t-119.5 49.5t-120 -50t-50 -120zM299 464l67 -89h-64l-60 83h-20v-83h-59v232h97
q45 0 68 -21t23 -53q0 -25 -14.5 -44t-37.5 -25zM291 531q0 32 -42 32h-27v-63h27q42 0 42 31z" />
    <glyph glyph-name="macron" unicode="&#xaf;" horiz-adv-x="324" 
d="M303 597h-282v80h282v-80z" />
    <glyph glyph-name="degree" unicode="&#xb0;" horiz-adv-x="369" 
d="M52 564q0 55 39 93.5t94 38.5t93.5 -38.5t38.5 -93.5t-38.5 -93.5t-93.5 -38.5t-94 38.5t-39 93.5zM110 563q0 -31 21.5 -52.5t53.5 -21.5q31 0 52.5 21.5t21.5 52.5q0 32 -21.5 54t-52.5 22t-53 -22t-22 -54z" />
    <glyph glyph-name="plusminus" unicode="&#xb1;" horiz-adv-x="672" 
d="M594 0h-516v90h516v-90zM594 322h-213v-177h-91v177h-212v91h212v178h91v-178h213v-91z" />
    <glyph glyph-name="uni00B2" unicode="&#xb2;" 
d="M56 425v62l138 147q22 24 33 37t21 33t10 38q0 24 -15.5 38.5t-40.5 14.5q-56 0 -59 -64h-91q2 62 41 101.5t113 39.5q66 0 107 -36t41 -91q0 -39 -21.5 -73.5t-75.5 -90.5l-75 -77h178v-79h-304z" />
    <glyph glyph-name="uni00B3" unicode="&#xb3;" 
d="M139 744h-89q2 57 41.5 92.5t107.5 35.5q70 0 108.5 -31t38.5 -82q0 -35 -21 -60.5t-54 -34.5v-2q42 -10 66 -39.5t24 -72.5q0 -58 -43 -98.5t-121 -40.5q-75 0 -115.5 36.5t-45.5 102.5h90q8 -66 72 -66q32 0 50.5 20t18.5 52q0 29 -20.5 48t-60.5 19h-30v69h28
q32 0 50 15t18 40q0 23 -14.5 37.5t-41.5 14.5t-41 -16t-16 -39z" />
    <glyph glyph-name="acute" unicode="&#xb4;" horiz-adv-x="324" 
d="M80 616l148 142l62 -73l-160 -129z" />
    <glyph glyph-name="uni00B5" unicode="&#xb5;" horiz-adv-x="570" 
d="M59 -213v692h112v-270q0 -60 25 -93t72 -33q53 0 82.5 37.5t29.5 107.5v251h113v-338q0 -28 7.5 -39t26.5 -11q4 0 22 3v-98q-22 -8 -52 -8q-49 0 -74.5 18.5t-33.5 58.5h-2q-48 -81 -134 -81q-53 0 -90 28l-3 -2q11 -44 11 -122v-101h-112z" />
    <glyph glyph-name="paragraph" unicode="&#xb6;" horiz-adv-x="557" 
d="M492 607h-61v-607h-83v607h-73v-607h-82v371q-72 1 -117 45.5t-45 111.5q0 73 48 113.5t121 40.5h292v-75z" />
    <glyph glyph-name="periodcentered" unicode="&#xb7;" horiz-adv-x="256" 
d="M61 285v135h141v-135h-141z" />
    <glyph glyph-name="cedilla" unicode="&#xb8;" horiz-adv-x="324" 
d="M133 0h69l-16 -39q40 -7 63 -34t23 -63q0 -48 -32 -77.5t-92 -29.5q-55 0 -106 17l24 67q28 -12 71 -12q52 0 52 34q0 43 -94 43z" />
    <glyph glyph-name="uni00B9" unicode="&#xb9;" 
d="M163 425v357h-68v77h160v-434h-92z" />
    <glyph glyph-name="ordmasculine" unicode="&#xba;" horiz-adv-x="448" 
d="M29 513q0 85 56 138t139 53q85 0 140 -54.5t55 -136.5t-55 -137t-140 -55q-83 0 -139 53.5t-56 138.5zM119 512q0 -47 30 -78.5t75 -31.5q46 0 75.5 31t29.5 79t-29.5 79.5t-75.5 31.5t-75.5 -29t-29.5 -82z" />
    <glyph glyph-name="guillemotright" unicode="&#xbb;" horiz-adv-x="487" 
d="M246 247l-128 -207l-70 38l87 169l-87 170l70 38zM436 247l-128 -207l-71 38l88 169l-88 170l71 38z" />
    <glyph glyph-name="onequarter" unicode="&#xbc;" horiz-adv-x="929" 
d="M163 250v357h-68v77h160v-434h-92zM659 682h88l-461 -682h-89zM901 75h-63v-75h-90v75h-200v67l202 292h88v-289h63v-70zM713 268l-86 -123h121v131q0 12 2 48h-3q-10 -20 -34 -56z" />
    <glyph glyph-name="onehalf" unicode="&#xbd;" horiz-adv-x="971" 
d="M163 250v357h-68v77h160v-434h-92zM659 682h88l-461 -682h-89zM625 0v62l138 147q22 24 33 37t21 33t10 38q0 24 -15.5 38.5t-40.5 14.5q-56 0 -59 -64h-91q2 62 41 101.5t113 39.5q66 0 107 -36t41 -91q0 -39 -21.5 -73.5t-75.5 -90.5l-75 -77h178v-79h-304z" />
    <glyph glyph-name="threequarters" unicode="&#xbe;" horiz-adv-x="955" 
d="M139 569h-89q2 57 41.5 92.5t107.5 35.5q70 0 108.5 -31t38.5 -82q0 -35 -21 -60.5t-54 -34.5v-2q42 -10 66 -39.5t24 -72.5q0 -58 -43 -98.5t-121 -40.5q-75 0 -115.5 36.5t-45.5 102.5h90q8 -66 72 -66q32 0 50.5 20t18.5 52q0 29 -20.5 48t-60.5 19h-30v69h28
q32 0 50 15t18 40q0 23 -14.5 37.5t-41.5 14.5t-41 -16t-16 -39zM686 682h88l-461 -682h-89zM927 75h-63v-75h-90v75h-200v67l202 292h88v-289h63v-70zM739 268l-86 -123h121v131q0 12 2 48h-3q-10 -20 -34 -56z" />
    <glyph glyph-name="questiondown" unicode="&#xbf;" horiz-adv-x="454" 
d="M127 357q28 27 40 54.5t12 68.5h100q0 -58 -10.5 -93.5t-41.5 -71.5q-5 -5 -21 -23l-21 -22l-15 -18l-14 -20l-8 -18l-6 -22l-2 -22q0 -39 24.5 -65t65.5 -26q39 0 65.5 27.5t26.5 74.5h114q-2 -92 -59.5 -147.5t-149.5 -55.5q-96 0 -151 52.5t-55 131.5q0 58 28 104
t78 91zM289 682v-112h-120v112h120z" />
    <glyph glyph-name="Agrave" unicode="&#xc0;" horiz-adv-x="652" 
d="M10 0l271 682h108l259 -682h-123l-61 167h-272l-62 -167h-120zM287 431l-64 -174h210l-63 175q-21 58 -38 118h-5q-18 -62 -40 -119zM200 814l42 88l182 -97l-34 -71z" />
    <glyph glyph-name="Aacute" unicode="&#xc1;" horiz-adv-x="652" 
d="M10 0l271 682h108l259 -682h-123l-61 167h-272l-62 -167h-120zM287 431l-64 -174h210l-63 175q-21 58 -38 118h-5q-18 -62 -40 -119zM427 902l41 -88l-190 -80l-33 71z" />
    <glyph glyph-name="Acircumflex" unicode="&#xc2;" horiz-adv-x="652" 
d="M10 0l271 682h108l259 -682h-123l-61 167h-272l-62 -167h-120zM287 431l-64 -174h210l-63 175q-21 58 -38 118h-5q-18 -62 -40 -119zM334 897l155 -101l-32 -62l-123 59l-123 -59l-32 62z" />
    <glyph glyph-name="Atilde" unicode="&#xc3;" horiz-adv-x="652" 
d="M10 0l271 682h108l259 -682h-123l-61 167h-272l-62 -167h-120zM287 431l-64 -174h210l-63 175q-21 58 -38 118h-5q-18 -62 -40 -119zM236 770h-71q3 58 28 93t74 35q36 0 75 -30q37 -28 60 -28q29 0 30 49h71q-5 -128 -103 -128q-43 0 -81 29q-37 29 -53 29
q-27 0 -30 -49z" />
    <glyph glyph-name="Adieresis" unicode="&#xc4;" horiz-adv-x="652" 
d="M10 0l271 682h108l259 -682h-123l-61 167h-272l-62 -167h-120zM287 431l-64 -174h210l-63 175q-21 58 -38 118h-5q-18 -62 -40 -119zM191 773v102h105v-102h-105zM371 773v102h105v-102h-105z" />
    <glyph glyph-name="Aring" unicode="&#xc5;" horiz-adv-x="652" 
d="M10 0l271 682h108l259 -682h-123l-61 167h-272l-62 -167h-120zM287 431l-64 -174h210l-63 175q-21 58 -38 118h-5q-18 -62 -40 -119zM273 842q0 -25 18 -43t44 -18q25 0 42 17.5t17 43.5q0 25 -17 42t-42 17q-26 0 -44 -17t-18 -42zM208 842q0 52 36.5 88.5t90.5 36.5
q52 0 88.5 -36.5t36.5 -88.5q0 -53 -36.5 -90t-88.5 -37q-54 0 -90.5 37t-36.5 90z" />
    <glyph glyph-name="AE" unicode="&#xc6;" horiz-adv-x="893" 
d="M822 682v-104h-261v-175h251v-101h-251v-198h272v-104h-389v167h-233l-87 -167h-130l373 682h455zM426 578l-170 -321h188v321h-18z" />
    <glyph glyph-name="Ccedilla" unicode="&#xc7;" horiz-adv-x="764" 
d="M388 704q131 0 213 -66.5t107 -155.5h-129q-19 52 -69.5 86t-122.5 34q-98 0 -164.5 -71t-66.5 -189q0 -110 66 -186t169 -76q74 0 124 37t72 95h132q-37 -100 -112.5 -162.5t-189.5 -70.5l-7 -18q40 -7 63 -34t23 -63q0 -48 -32 -77.5t-92 -29.5q-55 0 -106 17l24 67
q28 -12 71 -12q52 0 52 34q0 43 -94 43l29 74q-141 13 -227 114t-86 249q0 156 100.5 258.5t252.5 102.5z" />
    <glyph glyph-name="Egrave" unicode="&#xc8;" horiz-adv-x="535" 
d="M467 682v-104h-276v-175h266v-101h-266v-198h287v-104h-405v682h394zM141 814l42 88l182 -97l-34 -71z" />
    <glyph glyph-name="Eacute" unicode="&#xc9;" horiz-adv-x="535" 
d="M467 682v-104h-276v-175h266v-101h-266v-198h287v-104h-405v682h394zM359 902l41 -88l-190 -80l-33 71z" />
    <glyph glyph-name="Ecircumflex" unicode="&#xca;" horiz-adv-x="535" 
d="M467 682v-104h-276v-175h266v-101h-266v-198h287v-104h-405v682h394zM271 897l155 -101l-32 -62l-123 59l-123 -59l-32 62z" />
    <glyph glyph-name="Edieresis" unicode="&#xcb;" horiz-adv-x="535" 
d="M467 682v-104h-276v-175h266v-101h-266v-198h287v-104h-405v682h394zM127 773v102h105v-102h-105zM307 773v102h105v-102h-105z" />
    <glyph glyph-name="Igrave" unicode="&#xcc;" horiz-adv-x="259" 
d="M73 0v682h118v-682h-118zM-2 814l42 88l182 -97l-34 -71z" />
    <glyph glyph-name="Iacute" unicode="&#xcd;" horiz-adv-x="259" 
d="M73 0v682h118v-682h-118zM225 902l41 -88l-190 -80l-33 71z" />
    <glyph glyph-name="Icircumflex" unicode="&#xce;" horiz-adv-x="259" 
d="M73 0v682h118v-682h-118zM132 897l155 -101l-32 -62l-123 59l-123 -59l-32 62z" />
    <glyph glyph-name="Idieresis" unicode="&#xcf;" horiz-adv-x="259" 
d="M73 0v682h118v-682h-118zM-10 773v102h105v-102h-105zM170 773v102h105v-102h-105z" />
    <glyph glyph-name="Eth" unicode="&#xd0;" horiz-adv-x="732" 
d="M15 305v94h80v283h228q177 0 275.5 -97t98.5 -244q0 -145 -101 -243t-275 -98h-226v305h-80zM213 103h108q124 0 189.5 67.5t65.5 170.5q0 107 -67 172.5t-188 65.5h-108v-180h169v-94h-169v-202z" />
    <glyph glyph-name="Ntilde" unicode="&#xd1;" horiz-adv-x="675" 
d="M178 503h-3q3 -102 3 -136v-367h-105v682h105l203 -308q85 -127 122 -198h2q-2 72 -2 133v373h104v-682h-104l-194 293q-91 137 -131 210zM240 770h-71q3 58 28 93t74 35q36 0 75 -30q37 -28 60 -28q29 0 30 49h71q-5 -128 -103 -128q-43 0 -81 29q-37 29 -53 29
q-27 0 -30 -49z" />
    <glyph glyph-name="Ograve" unicode="&#xd2;" horiz-adv-x="793" 
d="M159 341q0 -110 69 -183.5t171 -73.5q103 0 172 73.5t69 183.5t-67 183.5t-173 73.5q-102 0 -171.5 -73.5t-69.5 -183.5zM38 341q0 149 103.5 256t259.5 107q162 0 261 -107t99 -256q0 -151 -104 -257t-257 -106q-90 0 -161.5 32.5t-114 86t-64.5 116t-22 128.5zM275 814
l42 88l182 -97l-34 -71z" />
    <glyph glyph-name="Oacute" unicode="&#xd3;" horiz-adv-x="793" 
d="M159 341q0 -110 69 -183.5t171 -73.5q103 0 172 73.5t69 183.5t-67 183.5t-173 73.5q-102 0 -171.5 -73.5t-69.5 -183.5zM38 341q0 149 103.5 256t259.5 107q162 0 261 -107t99 -256q0 -151 -104 -257t-257 -106q-90 0 -161.5 32.5t-114 86t-64.5 116t-22 128.5zM488 902
l41 -88l-190 -80l-33 71z" />
    <glyph glyph-name="Ocircumflex" unicode="&#xd4;" horiz-adv-x="793" 
d="M159 341q0 -110 69 -183.5t171 -73.5q103 0 172 73.5t69 183.5t-67 183.5t-173 73.5q-102 0 -171.5 -73.5t-69.5 -183.5zM38 341q0 149 103.5 256t259.5 107q162 0 261 -107t99 -256q0 -151 -104 -257t-257 -106q-90 0 -161.5 32.5t-114 86t-64.5 116t-22 128.5zM402 897
l155 -101l-32 -62l-123 59l-123 -59l-32 62z" />
    <glyph glyph-name="Otilde" unicode="&#xd5;" horiz-adv-x="793" 
d="M159 341q0 -110 69 -183.5t171 -73.5q103 0 172 73.5t69 183.5t-67 183.5t-173 73.5q-102 0 -171.5 -73.5t-69.5 -183.5zM38 341q0 149 103.5 256t259.5 107q162 0 261 -107t99 -256q0 -151 -104 -257t-257 -106q-90 0 -161.5 32.5t-114 86t-64.5 116t-22 128.5zM304 770
h-71q3 58 28 93t74 35q36 0 75 -30q37 -28 60 -28q29 0 30 49h71q-5 -128 -103 -128q-43 0 -81 29q-37 29 -53 29q-27 0 -30 -49z" />
    <glyph glyph-name="Odieresis" unicode="&#xd6;" horiz-adv-x="793" 
d="M159 341q0 -110 69 -183.5t171 -73.5q103 0 172 73.5t69 183.5t-67 183.5t-173 73.5q-102 0 -171.5 -73.5t-69.5 -183.5zM38 341q0 149 103.5 256t259.5 107q162 0 261 -107t99 -256q0 -151 -104 -257t-257 -106q-90 0 -161.5 32.5t-114 86t-64.5 116t-22 128.5zM260 773
v102h105v-102h-105zM440 773v102h105v-102h-105z" />
    <glyph glyph-name="multiply" unicode="&#xd7;" horiz-adv-x="672" 
d="M585 72l-64 -64l-186 188l-187 -190l-64 64l187 189l-187 187l64 64l186 -187l188 187l64 -64l-187 -187z" />
    <glyph glyph-name="Oslash" unicode="&#xd8;" horiz-adv-x="793" 
d="M35 341q0 149 103.5 256t259.5 107q123 0 213 -66l90 96l63 -58l-90 -97q84 -99 84 -238q0 -151 -104 -257t-257 -106q-128 0 -216 64l-90 -97l-64 57l91 99q-83 102 -83 240zM152 341q0 -86 46 -153l340 369q-63 45 -141 45q-104 0 -174.5 -74.5t-70.5 -186.5zM641 341
q0 84 -45 153l-339 -369q61 -45 139 -45q104 0 174.5 74.5t70.5 186.5z" />
    <glyph glyph-name="Ugrave" unicode="&#xd9;" horiz-adv-x="631" 
d="M316 -22q-112 0 -184 70.5t-72 222.5v411h118v-422q0 -83 36.5 -131.5t101.5 -48.5q137 0 137 180v422h117v-409q0 -152 -69 -223.5t-185 -71.5zM183 814l42 88l182 -97l-34 -71z" />
    <glyph glyph-name="Uacute" unicode="&#xda;" horiz-adv-x="631" 
d="M316 -22q-112 0 -184 70.5t-72 222.5v411h118v-422q0 -83 36.5 -131.5t101.5 -48.5q137 0 137 180v422h117v-409q0 -152 -69 -223.5t-185 -71.5zM406 902l41 -88l-190 -80l-33 71z" />
    <glyph glyph-name="Ucircumflex" unicode="&#xdb;" horiz-adv-x="631" 
d="M316 -22q-112 0 -184 70.5t-72 222.5v411h118v-422q0 -83 36.5 -131.5t101.5 -48.5q137 0 137 180v422h117v-409q0 -152 -69 -223.5t-185 -71.5zM315 897l155 -101l-32 -62l-123 59l-123 -59l-32 62z" />
    <glyph glyph-name="Udieresis" unicode="&#xdc;" horiz-adv-x="631" 
d="M316 -22q-112 0 -184 70.5t-72 222.5v411h118v-422q0 -83 36.5 -131.5t101.5 -48.5q137 0 137 180v422h117v-409q0 -152 -69 -223.5t-185 -71.5zM173 773v102h105v-102h-105zM353 773v102h105v-102h-105z" />
    <glyph glyph-name="Yacute" unicode="&#xdd;" horiz-adv-x="570" 
d="M230 0v274l-218 408h130l115 -223q24 -47 36 -82h2q9 24 37 81l110 224h123l-217 -407v-275h-118zM384 902l41 -88l-190 -80l-33 71z" />
    <glyph glyph-name="Thorn" unicode="&#xde;" horiz-adv-x="549" 
d="M70 0v682h118v-124h86q110 0 176 -51.5t66 -149.5q0 -101 -62.5 -155.5t-185.5 -54.5h-80v-147h-118zM396 355q0 48 -31 76t-90 28h-87v-213h84q124 0 124 109z" />
    <glyph glyph-name="germandbls" unicode="&#xdf;" horiz-adv-x="620" 
d="M497 560q0 -86 -82 -128q-62 -32 -62 -62q0 -21 18 -36.5t73 -37.5q79 -32 109.5 -70t30.5 -92q0 -65 -46 -108t-132 -43q-84 0 -128 41.5t-50 110.5h104q10 -70 78 -70q32 0 49.5 16.5t17.5 43.5q0 29 -21 49t-76 42q-74 30 -103.5 64.5t-29.5 82.5q0 76 76 116
q37 20 50.5 36.5t13.5 41.5q0 29 -22.5 53.5t-75.5 24.5q-112 0 -112 -134v-501h-112v504q0 110 60.5 165.5t165.5 55.5q93 0 149.5 -47t56.5 -118z" />
    <glyph glyph-name="agrave" unicode="&#xe0;" horiz-adv-x="604" 
d="M541 479v-479h-109v61h-3q-63 -78 -164 -78q-89 0 -159.5 68.5t-70.5 188.5q0 112 69 183t169 71q96 0 157 -80h2v65h109zM150 240q0 -65 37.5 -112t107.5 -47q57 0 99.5 44.5t42.5 111.5q0 71 -40.5 116t-100.5 45q-70 0 -108 -47t-38 -111zM163 685l63 73l147 -142
l-50 -60z" />
    <glyph glyph-name="aacute" unicode="&#xe1;" horiz-adv-x="604" 
d="M541 479v-479h-109v61h-3q-63 -78 -164 -78q-89 0 -159.5 68.5t-70.5 188.5q0 112 69 183t169 71q96 0 157 -80h2v65h109zM150 240q0 -65 37.5 -112t107.5 -47q57 0 99.5 44.5t42.5 111.5q0 71 -40.5 116t-100.5 45q-70 0 -108 -47t-38 -111zM209 616l148 142l62 -73
l-160 -129z" />
    <glyph glyph-name="acircumflex" unicode="&#xe2;" horiz-adv-x="604" 
d="M541 479v-479h-109v61h-3q-63 -78 -164 -78q-89 0 -159.5 68.5t-70.5 188.5q0 112 69 183t169 71q96 0 157 -80h2v65h109zM150 240q0 -65 37.5 -112t107.5 -47q57 0 99.5 44.5t42.5 111.5q0 71 -40.5 116t-100.5 45q-70 0 -108 -47t-38 -111zM291 740l154 -127l-45 -59
l-109 79l-109 -79l-45 59z" />
    <glyph glyph-name="atilde" unicode="&#xe3;" horiz-adv-x="604" 
d="M541 479v-479h-109v61h-3q-63 -78 -164 -78q-89 0 -159.5 68.5t-70.5 188.5q0 112 69 183t169 71q96 0 157 -80h2v65h109zM150 240q0 -65 37.5 -112t107.5 -47q57 0 99.5 44.5t42.5 111.5q0 71 -40.5 116t-100.5 45q-70 0 -108 -47t-38 -111zM199 590h-71q3 58 28 93
t74 35q36 0 75 -30q37 -28 60 -28q29 0 30 49h71q-5 -128 -103 -128q-43 0 -81 29q-37 29 -53 29q-27 0 -30 -49z" />
    <glyph glyph-name="adieresis" unicode="&#xe4;" horiz-adv-x="604" 
d="M541 479v-479h-109v61h-3q-63 -78 -164 -78q-89 0 -159.5 68.5t-70.5 188.5q0 112 69 183t169 71q96 0 157 -80h2v65h109zM150 240q0 -65 37.5 -112t107.5 -47q57 0 99.5 44.5t42.5 111.5q0 71 -40.5 116t-100.5 45q-70 0 -108 -47t-38 -111zM149 593v102h105v-102h-105z
M329 593v102h105v-102h-105z" />
    <glyph glyph-name="aring" unicode="&#xe5;" horiz-adv-x="604" 
d="M541 479v-479h-109v61h-3q-63 -78 -164 -78q-89 0 -159.5 68.5t-70.5 188.5q0 112 69 183t169 71q96 0 157 -80h2v65h109zM150 240q0 -65 37.5 -112t107.5 -47q57 0 99.5 44.5t42.5 111.5q0 71 -40.5 116t-100.5 45q-70 0 -108 -47t-38 -111zM231 657q0 -25 18 -43
t44 -18q25 0 42 17.5t17 43.5q0 25 -17 42t-42 17q-26 0 -44 -17t-18 -42zM166 657q0 52 36.5 88.5t90.5 36.5q52 0 88.5 -36.5t36.5 -88.5q0 -53 -36.5 -90t-88.5 -37q-54 0 -90.5 37t-36.5 90z" />
    <glyph glyph-name="ae" unicode="&#xe6;" horiz-adv-x="852" 
d="M586 495q59 0 105 -22.5t72.5 -59.5t40 -80t13.5 -89q0 -18 -2 -28h-353q1 -62 36.5 -103.5t95.5 -41.5q67 0 97 54h115q-59 -142 -211 -142q-138 0 -196 105q-73 -105 -193 -105q-88 0 -130 43t-42 108q0 80 64.5 119.5t184.5 39.5h75v25q0 43 -27 68.5t-73 25.5
q-92 0 -101 -63h-104q4 60 56 103t145 43q124 0 165 -78q61 78 167 78zM585 411q-53 0 -85 -34t-37 -84h242q-5 51 -36 84.5t-84 33.5zM358 216h-75q-139 0 -139 -80q0 -35 21 -52t53 -17q61 0 98.5 44t41.5 105z" />
    <glyph glyph-name="ccedilla" unicode="&#xe7;" horiz-adv-x="547" 
d="M287 495q94 0 151 -49t70 -111h-115q-26 65 -107 65q-62 0 -100.5 -43t-38.5 -117q0 -69 39.5 -115t103.5 -46q79 0 110 72h116q-21 -68 -71.5 -114t-131.5 -53l-9 -23q40 -7 63 -34t23 -63q0 -48 -32 -77.5t-92 -29.5q-55 0 -106 17l24 67q28 -12 71 -12q52 0 52 34
q0 43 -94 43l32 81q-92 13 -152.5 81.5t-60.5 172.5q0 108 70 181t185 73z" />
    <glyph glyph-name="egrave" unicode="&#xe8;" horiz-adv-x="551" 
d="M278 495q116 -1 178.5 -75.5t62.5 -175.5q0 -23 -2 -33h-370q0 -56 42.5 -98t100.5 -42q67 0 107 54h115q-27 -62 -82.5 -102t-139.5 -40q-111 0 -183 73.5t-72 187.5q0 105 66.5 178t176.5 73zM278 411q-55 0 -90 -35t-40 -84h259q-5 50 -40.5 84.5t-88.5 34.5zM148 685
l63 73l147 -142l-50 -60z" />
    <glyph glyph-name="eacute" unicode="&#xe9;" horiz-adv-x="551" 
d="M278 495q116 -1 178.5 -75.5t62.5 -175.5q0 -23 -2 -33h-370q0 -56 42.5 -98t100.5 -42q67 0 107 54h115q-27 -62 -82.5 -102t-139.5 -40q-111 0 -183 73.5t-72 187.5q0 105 66.5 178t176.5 73zM278 411q-55 0 -90 -35t-40 -84h259q-5 50 -40.5 84.5t-88.5 34.5zM194 616
l148 142l62 -73l-160 -129z" />
    <glyph glyph-name="ecircumflex" unicode="&#xea;" horiz-adv-x="551" 
d="M278 495q116 -1 178.5 -75.5t62.5 -175.5q0 -23 -2 -33h-370q0 -56 42.5 -98t100.5 -42q67 0 107 54h115q-27 -62 -82.5 -102t-139.5 -40q-111 0 -183 73.5t-72 187.5q0 105 66.5 178t176.5 73zM278 411q-55 0 -90 -35t-40 -84h259q-5 50 -40.5 84.5t-88.5 34.5zM276 740
l154 -127l-45 -59l-109 79l-109 -79l-45 59z" />
    <glyph glyph-name="edieresis" unicode="&#xeb;" horiz-adv-x="551" 
d="M278 495q116 -1 178.5 -75.5t62.5 -175.5q0 -23 -2 -33h-370q0 -56 42.5 -98t100.5 -42q67 0 107 54h115q-27 -62 -82.5 -102t-139.5 -40q-111 0 -183 73.5t-72 187.5q0 105 66.5 178t176.5 73zM278 411q-55 0 -90 -35t-40 -84h259q-5 50 -40.5 84.5t-88.5 34.5zM134 593
v102h105v-102h-105zM314 593v102h105v-102h-105z" />
    <glyph glyph-name="igrave" unicode="&#xec;" horiz-adv-x="242" 
d="M68 0v479h112v-479h-112zM-4 685l63 73l147 -142l-50 -60z" />
    <glyph glyph-name="iacute" unicode="&#xed;" horiz-adv-x="242" 
d="M68 0v479h112v-479h-112zM42 616l148 142l62 -73l-160 -129z" />
    <glyph glyph-name="icircumflex" unicode="&#xee;" horiz-adv-x="242" 
d="M68 0v479h112v-479h-112zM124 740l154 -127l-45 -59l-109 79l-109 -79l-45 59z" />
    <glyph glyph-name="idieresis" unicode="&#xef;" horiz-adv-x="242" 
d="M68 0v479h112v-479h-112zM-18 593v102h105v-102h-105zM162 593v102h105v-102h-105z" />
    <glyph glyph-name="eth" unicode="&#xf0;" horiz-adv-x="577" 
d="M185 513l-42 68l86 54q-51 48 -102 85h131q23 -15 56 -41l84 51l41 -68l-63 -39q168 -165 168 -375q0 -111 -73 -188t-183 -77q-109 0 -182.5 74t-73.5 183q0 110 74 181.5t184 71.5q50 0 85 -23l2 3q-39 55 -91 103zM146 240q0 -68 41.5 -112.5t100.5 -44.5
q63 0 103 44.5t40 112.5q0 66 -39 111t-104 45q-64 0 -103 -44t-39 -112z" />
    <glyph glyph-name="ntilde" unicode="&#xf1;" horiz-adv-x="569" 
d="M68 0v479h111v-60h2q53 76 146 76q80 0 133 -55t53 -164v-276h-112v270q0 61 -27 93.5t-76 32.5q-54 0 -86 -37t-32 -105v-254h-112zM198 590h-71q3 58 28 93t74 35q36 0 75 -30q37 -28 60 -28q29 0 30 49h71q-5 -128 -103 -128q-43 0 -81 29q-37 29 -53 29
q-27 0 -30 -49z" />
    <glyph glyph-name="ograve" unicode="&#xf2;" horiz-adv-x="577" 
d="M35 240q0 110 73.5 182.5t182.5 72.5q112 0 184 -72.5t72 -182.5q0 -107 -73 -182t-183 -75q-109 0 -182.5 74t-73.5 183zM149 240q0 -68 41.5 -112.5t100.5 -44.5q63 0 103 44.5t40 112.5q0 66 -39 111t-104 45q-64 0 -103 -44t-39 -112zM172 685l63 73l147 -142
l-50 -60z" />
    <glyph glyph-name="oacute" unicode="&#xf3;" horiz-adv-x="577" 
d="M35 240q0 110 73.5 182.5t182.5 72.5q112 0 184 -72.5t72 -182.5q0 -107 -73 -182t-183 -75q-109 0 -182.5 74t-73.5 183zM149 240q0 -68 41.5 -112.5t100.5 -44.5q63 0 103 44.5t40 112.5q0 66 -39 111t-104 45q-64 0 -103 -44t-39 -112zM201 616l148 142l62 -73
l-160 -129z" />
    <glyph glyph-name="ocircumflex" unicode="&#xf4;" horiz-adv-x="577" 
d="M35 240q0 110 73.5 182.5t182.5 72.5q112 0 184 -72.5t72 -182.5q0 -107 -73 -182t-183 -75q-109 0 -182.5 74t-73.5 183zM149 240q0 -68 41.5 -112.5t100.5 -44.5q63 0 103 44.5t40 112.5q0 66 -39 111t-104 45q-64 0 -103 -44t-39 -112zM291 740l154 -127l-45 -59
l-109 79l-109 -79l-45 59z" />
    <glyph glyph-name="otilde" unicode="&#xf5;" horiz-adv-x="577" 
d="M35 240q0 110 73.5 182.5t182.5 72.5q112 0 184 -72.5t72 -182.5q0 -107 -73 -182t-183 -75q-109 0 -182.5 74t-73.5 183zM149 240q0 -68 41.5 -112.5t100.5 -44.5q63 0 103 44.5t40 112.5q0 66 -39 111t-104 45q-64 0 -103 -44t-39 -112zM193 590h-71q3 58 28 93t74 35
q36 0 75 -30q37 -28 60 -28q29 0 30 49h71q-5 -128 -103 -128q-43 0 -81 29q-37 29 -53 29q-27 0 -30 -49z" />
    <glyph glyph-name="odieresis" unicode="&#xf6;" horiz-adv-x="577" 
d="M35 240q0 110 73.5 182.5t182.5 72.5q112 0 184 -72.5t72 -182.5q0 -107 -73 -182t-183 -75q-109 0 -182.5 74t-73.5 183zM149 240q0 -68 41.5 -112.5t100.5 -44.5q63 0 103 44.5t40 112.5q0 66 -39 111t-104 45q-64 0 -103 -44t-39 -112zM149 593v102h105v-102h-105z
M329 593v102h105v-102h-105z" />
    <glyph glyph-name="divide" unicode="&#xf7;" horiz-adv-x="672" 
d="M594 219h-516v90h516v-90zM401 455q0 -28 -19 -46t-46 -18q-26 0 -45.5 19t-19.5 44q0 27 19 46.5t46 19.5q29 0 47 -18.5t18 -46.5zM401 74q0 -29 -19 -48t-45 -19q-27 0 -46.5 20t-19.5 46t19 45t46 19q29 0 47 -18t18 -45z" />
    <glyph glyph-name="oslash" unicode="&#xf8;" horiz-adv-x="577" 
d="M32 240q0 110 73.5 182.5t182.5 72.5q77 0 139 -38l63 71l58 -52l-62 -70q58 -69 58 -166q0 -107 -73 -182t-183 -75q-75 0 -138 39l-61 -70l-60 51l62 70q-59 72 -59 167zM142 240q0 -50 25 -89l199 226q-35 22 -78 22q-65 0 -105.5 -45t-40.5 -114zM435 240
q0 46 -24 88l-199 -226q34 -23 76 -23q65 0 106 46t41 115z" />
    <glyph glyph-name="ugrave" unicode="&#xf9;" horiz-adv-x="557" 
d="M496 479v-479h-111v59h-3q-54 -75 -142 -75q-33 0 -62.5 11t-56.5 34t-43 66t-16 101v283h112v-270q0 -60 26.5 -93t71.5 -33q52 0 82 36.5t30 104.5v255h112zM152 685l63 73l147 -142l-50 -60z" />
    <glyph glyph-name="uacute" unicode="&#xfa;" horiz-adv-x="557" 
d="M496 479v-479h-111v59h-3q-54 -75 -142 -75q-33 0 -62.5 11t-56.5 34t-43 66t-16 101v283h112v-270q0 -60 26.5 -93t71.5 -33q52 0 82 36.5t30 104.5v255h112zM198 616l148 142l62 -73l-160 -129z" />
    <glyph glyph-name="ucircumflex" unicode="&#xfb;" horiz-adv-x="557" 
d="M496 479v-479h-111v59h-3q-54 -75 -142 -75q-33 0 -62.5 11t-56.5 34t-43 66t-16 101v283h112v-270q0 -60 26.5 -93t71.5 -33q52 0 82 36.5t30 104.5v255h112zM280 740l154 -127l-45 -59l-109 79l-109 -79l-45 59z" />
    <glyph glyph-name="udieresis" unicode="&#xfc;" horiz-adv-x="557" 
d="M496 479v-479h-111v59h-3q-54 -75 -142 -75q-33 0 -62.5 11t-56.5 34t-43 66t-16 101v283h112v-270q0 -60 26.5 -93t71.5 -33q52 0 82 36.5t30 104.5v255h112zM138 593v102h105v-102h-105zM318 593v102h105v-102h-105z" />
    <glyph glyph-name="yacute" unicode="&#xfd;" horiz-adv-x="452" 
d="M459 479l-263 -714h-107l88 237l-175 477h115l83 -238q26 -79 32 -110h3q14 56 32 110l81 238h111zM152 616l148 142l62 -73l-160 -129z" />
    <glyph glyph-name="thorn" unicode="&#xfe;" horiz-adv-x="604" 
d="M65 -235v955h110v-302h3q65 76 165 76q94 0 161 -71.5t67 -184.5q0 -111 -68 -183t-167 -72q-98 0 -158 75h-3v-293h-110zM457 239q0 65 -38 111t-108 46q-60 0 -100.5 -44t-40.5 -115q0 -68 42 -112.5t100 -44.5q69 0 107 47.5t38 111.5z" />
    <glyph glyph-name="ydieresis" unicode="&#xff;" horiz-adv-x="452" 
d="M459 479l-263 -714h-107l88 237l-175 477h115l83 -238q26 -79 32 -110h3q14 56 32 110l81 238h111zM92 593v102h105v-102h-105zM272 593v102h105v-102h-105z" />
    <glyph glyph-name="Amacron" unicode="&#x100;" horiz-adv-x="652" 
d="M7 0l271 682h108l259 -682h-123l-61 167h-272l-62 -167h-120zM284 431l-64 -174h210l-63 175q-21 58 -38 118h-5q-18 -62 -40 -119zM481 777h-282v80h282v-80z" />
    <glyph glyph-name="amacron" unicode="&#x101;" horiz-adv-x="604" 
d="M538 479v-479h-109v61h-3q-63 -78 -164 -78q-89 0 -159.5 68.5t-70.5 188.5q0 112 69 183t169 71q96 0 157 -80h2v65h109zM147 240q0 -65 37.5 -112t107.5 -47q57 0 99.5 44.5t42.5 111.5q0 71 -40.5 116t-100.5 45q-70 0 -108 -47t-38 -111zM429 597h-282v80h282v-80z
" />
    <glyph glyph-name="Abreve" unicode="&#x102;" horiz-adv-x="652" 
d="M7 0l271 682h108l259 -682h-123l-61 167h-272l-62 -167h-120zM284 431l-64 -174h210l-63 175q-21 58 -38 118h-5q-18 -62 -40 -119zM414 886h80q-4 -63 -49 -101t-114 -38q-75 0 -117.5 38.5t-44.5 100.5h79q2 -27 24 -42.5t59 -15.5q38 0 59.5 16t23.5 42z" />
    <glyph glyph-name="abreve" unicode="&#x103;" horiz-adv-x="604" 
d="M538 479v-479h-109v61h-3q-63 -78 -164 -78q-89 0 -159.5 68.5t-70.5 188.5q0 112 69 183t169 71q96 0 157 -80h2v65h109zM147 240q0 -65 37.5 -112t107.5 -47q57 0 99.5 44.5t42.5 111.5q0 71 -40.5 116t-100.5 45q-70 0 -108 -47t-38 -111zM367 721h80q-4 -68 -50 -111
t-113 -43q-70 0 -114.5 42.5t-47.5 111.5h79q3 -33 25 -52t58 -19q35 0 58 19.5t25 51.5z" />
    <glyph glyph-name="Aogonek" unicode="&#x104;" horiz-adv-x="652" 
d="M645 -135v-80q-26 -7 -58 -7q-60 0 -89 30.5t-29 78.5q0 73 73 113h-20l-61 167h-272l-62 -167h-120l271 682h108l259 -682h-5q-32 0 -57 -27.5t-25 -65.5q0 -46 49 -46q21 0 38 4zM284 431l-64 -174h210l-60 167q-25 70 -41 126h-5q-18 -62 -40 -119z" />
    <glyph glyph-name="aogonek" unicode="&#x105;" horiz-adv-x="604" 
d="M551 -135v-80q-26 -7 -58 -7q-60 0 -89 30.5t-29 78.5q0 32 19.5 63.5t53.5 49.5h-19v61h-3q-57 -70 -145 -75q-18 -3 -43 -1q-82 10 -144 76.5t-62 178.5q0 104 60.5 173.5t151.5 78.5q25 2 43 -1q82 -5 140 -77h2v65h109v-479q-26 -1 -50 -27.5t-24 -65.5q0 -46 49 -46
q21 0 38 4zM147 240q0 -65 37.5 -112t107.5 -47q57 0 99.5 44.5t42.5 111.5q0 71 -40.5 116t-100.5 45q-70 0 -108 -47t-38 -111z" />
    <glyph glyph-name="Cacute" unicode="&#x106;" horiz-adv-x="764" 
d="M388 704q131 0 213 -66.5t107 -155.5h-129q-19 52 -69.5 86t-122.5 34q-98 0 -164.5 -71t-66.5 -189q0 -110 66 -186t169 -76q74 0 124 37t72 95h132q-39 -107 -122 -170.5t-210 -63.5q-156 0 -254 103.5t-98 261.5q0 156 100.5 258.5t252.5 102.5zM484 902l41 -88
l-190 -80l-33 71z" />
    <glyph glyph-name="cacute" unicode="&#x107;" horiz-adv-x="547" 
d="M287 495q94 0 151 -49t70 -111h-115q-26 65 -107 65q-62 0 -100.5 -43t-38.5 -117q0 -69 39.5 -115t103.5 -46q79 0 110 72h116q-22 -73 -78.5 -120.5t-149.5 -47.5q-110 0 -183 71.5t-73 186.5q0 108 70 181t185 73zM190 616l148 142l62 -73l-160 -129z" />
    <glyph glyph-name="Ccircumflex" unicode="&#x108;" horiz-adv-x="764" 
d="M388 704q131 0 213 -66.5t107 -155.5h-129q-19 52 -69.5 86t-122.5 34q-98 0 -164.5 -71t-66.5 -189q0 -110 66 -186t169 -76q74 0 124 37t72 95h132q-39 -107 -122 -170.5t-210 -63.5q-156 0 -254 103.5t-98 261.5q0 156 100.5 258.5t252.5 102.5zM388 897l155 -101
l-32 -62l-123 59l-123 -59l-32 62z" />
    <glyph glyph-name="ccircumflex" unicode="&#x109;" horiz-adv-x="547" 
d="M287 495q94 0 151 -49t70 -111h-115q-26 65 -107 65q-62 0 -100.5 -43t-38.5 -117q0 -69 39.5 -115t103.5 -46q79 0 110 72h116q-22 -73 -78.5 -120.5t-149.5 -47.5q-110 0 -183 71.5t-73 186.5q0 108 70 181t185 73zM284 740l154 -127l-45 -59l-109 79l-109 -79l-45 59z
" />
    <glyph glyph-name="Cdotaccent" unicode="&#x10a;" horiz-adv-x="764" 
d="M388 704q131 0 213 -66.5t107 -155.5h-129q-19 52 -69.5 86t-122.5 34q-98 0 -164.5 -71t-66.5 -189q0 -110 66 -186t169 -76q74 0 124 37t72 95h132q-39 -107 -122 -170.5t-210 -63.5q-156 0 -254 103.5t-98 261.5q0 156 100.5 258.5t252.5 102.5zM334 773v104h108v-104
h-108z" />
    <glyph glyph-name="cdotaccent" unicode="&#x10b;" horiz-adv-x="547" 
d="M287 495q94 0 151 -49t70 -111h-115q-26 65 -107 65q-62 0 -100.5 -43t-38.5 -117q0 -69 39.5 -115t103.5 -46q79 0 110 72h116q-22 -73 -78.5 -120.5t-149.5 -47.5q-110 0 -183 71.5t-73 186.5q0 108 70 181t185 73zM230 592v103h108v-103h-108z" />
    <glyph glyph-name="Ccaron" unicode="&#x10c;" horiz-adv-x="764" 
d="M388 704q131 0 213 -66.5t107 -155.5h-129q-19 52 -69.5 86t-122.5 34q-98 0 -164.5 -71t-66.5 -189q0 -110 66 -186t169 -76q74 0 124 37t72 95h132q-39 -107 -122 -170.5t-210 -63.5q-156 0 -254 103.5t-98 261.5q0 156 100.5 258.5t252.5 102.5zM389 734l-155 101
l32 62l123 -59l124 59l31 -62z" />
    <glyph glyph-name="ccaron" unicode="&#x10d;" horiz-adv-x="547" 
d="M287 495q94 0 151 -49t70 -111h-115q-26 65 -107 65q-62 0 -100.5 -43t-38.5 -117q0 -69 39.5 -115t103.5 -46q79 0 110 72h116q-22 -73 -78.5 -120.5t-149.5 -47.5q-110 0 -183 71.5t-73 186.5q0 108 70 181t185 73zM284 554l-154 127l45 59l109 -79l109 79l45 -59z" />
    <glyph glyph-name="Dcaron" unicode="&#x10e;" horiz-adv-x="708" 
d="M71 682h228q177 0 275.5 -97t98.5 -244q0 -145 -101 -243t-275 -98h-226v682zM189 105h108q124 0 189.5 66.5t65.5 169.5q0 107 -66.5 171.5t-188.5 64.5h-108v-472zM303 734l-155 101l32 62l123 -59l124 59l31 -62z" />
    <glyph glyph-name="dcaron" unicode="&#x10f;" horiz-adv-x="712" 
d="M538 720v-720h-109v57h-3q-64 -74 -166 -74q-89 0 -158.5 68.5t-69.5 188.5q0 111 68 183t166 72q97 0 159 -76h3v301h110zM147 240q0 -65 37.5 -112t106.5 -47q58 0 100.5 44.5t42.5 111.5q0 72 -41 117t-101 45q-68 0 -106.5 -47.5t-38.5 -111.5zM604 629v91h106v-55
q0 -72 -34 -122h-57q24 35 26 86h-41z" />
    <glyph glyph-name="Dcroat" unicode="&#x110;" horiz-adv-x="732" 
d="M15 305v94h80v283h228q177 0 275.5 -97t98.5 -244q0 -145 -101 -243t-275 -98h-226v305h-80zM213 103h108q124 0 189.5 67.5t65.5 170.5q0 107 -67 172.5t-188 65.5h-108v-180h169v-94h-169v-202z" />
    <glyph glyph-name="dcroat" unicode="&#x111;" horiz-adv-x="604" 
d="M604 564h-66v-564h-109v57h-3q-64 -74 -166 -74q-89 0 -158.5 68.5t-69.5 188.5q0 111 68 183t166 72q97 0 159 -76h3v145h-177v80h177v76h110v-76h66v-80zM147 240q0 -65 37.5 -112t106.5 -47q58 0 100.5 44.5t42.5 111.5q0 72 -41 117t-101 45q-68 0 -106.5 -47.5
t-38.5 -111.5z" />
    <glyph glyph-name="Emacron" unicode="&#x112;" horiz-adv-x="535" 
d="M464 682v-104h-276v-175h266v-101h-266v-198h287v-104h-405v682h394zM414 777h-282v80h282v-80z" />
    <glyph glyph-name="emacron" unicode="&#x113;" horiz-adv-x="551" 
d="M275 495q116 -1 178.5 -75.5t62.5 -175.5q0 -23 -2 -33h-370q0 -56 42.5 -98t100.5 -42q67 0 107 54h115q-27 -62 -82.5 -102t-139.5 -40q-111 0 -183 73.5t-72 187.5q0 105 66.5 178t176.5 73zM275 411q-55 0 -90 -35t-40 -84h259q-5 50 -40.5 84.5t-88.5 34.5zM414 597
h-282v80h282v-80z" />
    <glyph glyph-name="Ebreve" unicode="&#x114;" horiz-adv-x="535" 
d="M464 682v-104h-276v-175h266v-101h-266v-198h287v-104h-405v682h394zM347 886h80q-4 -63 -49 -101t-114 -38q-75 0 -117.5 38.5t-44.5 100.5h79q2 -27 24 -42.5t59 -15.5q38 0 59.5 16t23.5 42z" />
    <glyph glyph-name="ebreve" unicode="&#x115;" horiz-adv-x="551" 
d="M275 495q116 -1 178.5 -75.5t62.5 -175.5q0 -23 -2 -33h-370q0 -56 42.5 -98t100.5 -42q67 0 107 54h115q-27 -62 -82.5 -102t-139.5 -40q-111 0 -183 73.5t-72 187.5q0 105 66.5 178t176.5 73zM275 411q-55 0 -90 -35t-40 -84h259q-5 50 -40.5 84.5t-88.5 34.5zM357 721
h80q-4 -68 -50 -111t-113 -43q-70 0 -114.5 42.5t-47.5 111.5h79q3 -33 25 -52t58 -19q35 0 58 19.5t25 51.5z" />
    <glyph glyph-name="Edotaccent" unicode="&#x116;" horiz-adv-x="535" 
d="M464 682v-104h-276v-175h266v-101h-266v-198h287v-104h-405v682h394zM212 773v104h108v-104h-108z" />
    <glyph glyph-name="edotaccent" unicode="&#x117;" horiz-adv-x="551" 
d="M275 495q116 -1 178.5 -75.5t62.5 -175.5q0 -23 -2 -33h-370q0 -56 42.5 -98t100.5 -42q67 0 107 54h115q-27 -62 -82.5 -102t-139.5 -40q-111 0 -183 73.5t-72 187.5q0 105 66.5 178t176.5 73zM275 411q-55 0 -90 -35t-40 -84h259q-5 50 -40.5 84.5t-88.5 34.5zM220 592
v103h108v-103h-108z" />
    <glyph glyph-name="Eogonek" unicode="&#x118;" horiz-adv-x="535" 
d="M454 -135v-80q-28 -7 -59 -7q-59 0 -88.5 30.5t-29.5 78.5q0 32 20 63.5t53 49.5h-280v682h394v-104h-276v-175h266v-101h-266v-198h287v-104h-24q-32 0 -58 -27t-26 -66q0 -46 48 -46q20 0 39 4z" />
    <glyph glyph-name="eogonek" unicode="&#x119;" horiz-adv-x="551" 
d="M431 -135v-80q-26 -7 -58 -7q-60 0 -89.5 30.5t-29.5 78.5q0 56 49 97q-2 0 -7.5 -0.5t-8.5 -0.5q-111 0 -183 73.5t-72 187.5q0 105 66.5 178t176.5 73q116 -1 178.5 -75.5t62.5 -175.5q0 -23 -2 -33h-370q0 -56 42.5 -98t100.5 -42q67 0 107 54h115q-28 -65 -95 -111
q-70 -50 -70 -107q0 -46 48 -46q20 0 39 4zM275 411q-55 0 -90 -35t-40 -84h259q-5 50 -40.5 84.5t-88.5 34.5z" />
    <glyph glyph-name="Ecaron" unicode="&#x11a;" horiz-adv-x="535" 
d="M464 682v-104h-276v-175h266v-101h-266v-198h287v-104h-405v682h394zM266 734l-155 101l32 62l123 -59l124 59l31 -62z" />
    <glyph glyph-name="ecaron" unicode="&#x11b;" horiz-adv-x="551" 
d="M275 495q116 -1 178.5 -75.5t62.5 -175.5q0 -23 -2 -33h-370q0 -56 42.5 -98t100.5 -42q67 0 107 54h115q-27 -62 -82.5 -102t-139.5 -40q-111 0 -183 73.5t-72 187.5q0 105 66.5 178t176.5 73zM275 411q-55 0 -90 -35t-40 -84h259q-5 50 -40.5 84.5t-88.5 34.5zM274 554
l-154 127l45 59l109 -79l109 79l45 -59z" />
    <glyph glyph-name="Gcircumflex" unicode="&#x11c;" horiz-adv-x="773" 
d="M355 373h383v-22q0 -99 -38 -182t-119 -136.5t-192 -53.5q-154 0 -254 105t-100 255q0 154 101 259t253 105q121 0 205.5 -55.5t120.5 -150.5h-128q-25 48 -76 76t-119 28q-104 0 -170 -72.5t-66 -186.5q0 -118 68 -189.5t174 -71.5q86 0 145.5 54.5t68.5 137.5h-257v100
zM392 897l155 -101l-32 -62l-123 59l-123 -59l-32 62z" />
    <glyph glyph-name="gcircumflex" unicode="&#x11d;" horiz-adv-x="604" 
d="M539 479v-464q0 -272 -253 -272q-99 0 -162 50.5t-77 137.5h112q23 -95 132 -95q69 0 105 42.5t36 122.5v60h-2q-65 -74 -163 -74t-166 70t-68 184q0 109 67.5 181t170.5 72q99 0 158 -77h3v62h107zM147 241q0 -63 38 -109.5t106 -46.5q60 0 101.5 43.5t41.5 110.5
q0 71 -40.5 115t-100.5 44q-69 0 -107.5 -47t-38.5 -110zM286 740l154 -127l-45 -59l-109 79l-109 -79l-45 59z" />
    <glyph glyph-name="Gbreve" unicode="&#x11e;" horiz-adv-x="773" 
d="M355 373h383v-22q0 -99 -38 -182t-119 -136.5t-192 -53.5q-154 0 -254 105t-100 255q0 154 101 259t253 105q121 0 205.5 -55.5t120.5 -150.5h-128q-25 48 -76 76t-119 28q-104 0 -170 -72.5t-66 -186.5q0 -118 68 -189.5t174 -71.5q86 0 145.5 54.5t68.5 137.5h-257v100
zM474 886h80q-4 -63 -49 -101t-114 -38q-75 0 -117.5 38.5t-44.5 100.5h79q2 -27 24 -42.5t59 -15.5q38 0 59.5 16t23.5 42z" />
    <glyph glyph-name="gbreve" unicode="&#x11f;" horiz-adv-x="604" 
d="M539 479v-464q0 -272 -253 -272q-99 0 -162 50.5t-77 137.5h112q23 -95 132 -95q69 0 105 42.5t36 122.5v60h-2q-65 -74 -163 -74t-166 70t-68 184q0 109 67.5 181t170.5 72q99 0 158 -77h3v62h107zM147 241q0 -63 38 -109.5t106 -46.5q60 0 101.5 43.5t41.5 110.5
q0 71 -40.5 115t-100.5 44q-69 0 -107.5 -47t-38.5 -110zM365 721h80q-4 -68 -50 -111t-113 -43q-70 0 -114.5 42.5t-47.5 111.5h79q3 -33 25 -52t58 -19q35 0 58 19.5t25 51.5z" />
    <glyph glyph-name="Gdotaccent" unicode="&#x120;" horiz-adv-x="773" 
d="M355 373h383v-22q0 -99 -38 -182t-119 -136.5t-192 -53.5q-154 0 -254 105t-100 255q0 154 101 259t253 105q121 0 205.5 -55.5t120.5 -150.5h-128q-25 48 -76 76t-119 28q-104 0 -170 -72.5t-66 -186.5q0 -118 68 -189.5t174 -71.5q86 0 145.5 54.5t68.5 137.5h-257v100
zM336 773v104h108v-104h-108z" />
    <glyph glyph-name="gdotaccent" unicode="&#x121;" horiz-adv-x="604" 
d="M539 479v-464q0 -272 -253 -272q-99 0 -162 50.5t-77 137.5h112q23 -95 132 -95q69 0 105 42.5t36 122.5v60h-2q-65 -74 -163 -74t-166 70t-68 184q0 109 67.5 181t170.5 72q99 0 158 -77h3v62h107zM147 241q0 -63 38 -109.5t106 -46.5q60 0 101.5 43.5t41.5 110.5
q0 71 -40.5 115t-100.5 44q-69 0 -107.5 -47t-38.5 -110zM228 592v103h108v-103h-108z" />
    <glyph glyph-name="Gcommaaccent" unicode="&#x122;" horiz-adv-x="773" 
d="M355 373h383v-22q0 -99 -38 -182t-119 -136.5t-192 -53.5q-154 0 -254 105t-100 255q0 154 101 259t253 105q121 0 205.5 -55.5t120.5 -150.5h-128q-25 48 -76 76t-119 28q-104 0 -170 -72.5t-66 -186.5q0 -118 68 -189.5t174 -71.5q86 0 145.5 54.5t68.5 137.5h-257v100
zM334 -153v91h106v-55q0 -72 -34 -122h-57q24 35 26 86h-41z" />
    <glyph glyph-name="gcommaaccent" unicode="&#x123;" horiz-adv-x="604" 
d="M539 479v-464q0 -272 -253 -272q-99 0 -162 50.5t-77 137.5h112q23 -95 132 -95q69 0 105 42.5t36 122.5v60h-2q-65 -74 -163 -74t-166 70t-68 184q0 109 67.5 181t170.5 72q99 0 158 -77h3v62h107zM147 241q0 -63 38 -109.5t106 -46.5q60 0 101.5 43.5t41.5 110.5
q0 71 -40.5 115t-100.5 44q-69 0 -107.5 -47t-38.5 -110zM344 642v-91h-106v55q0 72 34 122h57q-24 -35 -26 -86h41z" />
    <glyph glyph-name="Hcircumflex" unicode="&#x124;" horiz-adv-x="693" 
d="M504 0v300h-315v-300h-118v682h118v-277h315v277h118v-682h-118zM346 897l155 -101l-32 -62l-123 59l-123 -59l-32 62z" />
    <glyph glyph-name="hcircumflex" unicode="&#x125;" horiz-adv-x="566" 
d="M65 0v720h112v-301h3q53 76 145 76q80 0 132.5 -54.5t52.5 -164.5v-276h-112v270q0 61 -27 93.5t-76 32.5q-54 0 -86 -36.5t-32 -104.5v-255h-112zM122 955l154 -127l-45 -59l-109 79l-109 -79l-45 59z" />
    <glyph glyph-name="Hbar" unicode="&#x126;" horiz-adv-x="693" 
d="M685 515h-63v-515h-117v297h-316v-297h-118v515h-63v80h63v87h118v-87h316v87h117v-87h63v-80zM189 397h316v118h-316v-118z" />
    <glyph glyph-name="hbar" unicode="&#x127;" horiz-adv-x="566" 
d="M332 564h-155v-145h3q53 76 145 76q80 0 132.5 -54.5t52.5 -164.5v-276h-112v270q0 61 -27 93.5t-76 32.5q-54 0 -86 -36.5t-32 -104.5v-255h-112v564h-65v80h65v76h112v-76h155v-80z" />
    <glyph glyph-name="Itilde" unicode="&#x128;" horiz-adv-x="259" 
d="M70 0v682h118v-682h-118zM32 770h-71q3 58 28 93t74 35q36 0 75 -30q37 -28 60 -28q29 0 30 49h71q-5 -128 -103 -128q-43 0 -81 29q-37 29 -53 29q-27 0 -30 -49z" />
    <glyph glyph-name="itilde" unicode="&#x129;" horiz-adv-x="242" 
d="M65 0v479h112v-479h-112zM23 590h-71q3 58 28 93t74 35q36 0 75 -30q37 -28 60 -28q29 0 30 49h71q-5 -128 -103 -128q-43 0 -81 29q-37 29 -53 29q-27 0 -30 -49z" />
    <glyph glyph-name="Imacron" unicode="&#x12a;" horiz-adv-x="259" 
d="M70 0v682h118v-682h-118zM276 777h-282v80h282v-80z" />
    <glyph glyph-name="imacron" unicode="&#x12b;" horiz-adv-x="242" 
d="M65 0v479h112v-479h-112zM262 597h-282v80h282v-80z" />
    <glyph glyph-name="Ibreve" unicode="&#x12c;" horiz-adv-x="259" 
d="M70 0v682h118v-682h-118zM212 886h80q-4 -63 -49 -101t-114 -38q-75 0 -117.5 38.5t-44.5 100.5h79q2 -27 24 -42.5t59 -15.5q38 0 59.5 16t23.5 42z" />
    <glyph glyph-name="ibreve" unicode="&#x12d;" horiz-adv-x="242" 
d="M65 0v479h112v-479h-112zM204 721h80q-4 -68 -50 -111t-113 -43q-70 0 -114.5 42.5t-47.5 111.5h79q3 -33 25 -52t58 -19q35 0 58 19.5t25 51.5z" />
    <glyph glyph-name="Iogonek" unicode="&#x12e;" horiz-adv-x="259" 
d="M70 0v682h118v-682q-24 -4 -46 -30t-22 -63q0 -46 48 -46q20 0 39 4v-80q-26 -7 -59 -7q-59 0 -88.5 30.5t-29.5 78.5q0 32 20 63.5t53 49.5h-33z" />
    <glyph glyph-name="iogonek" unicode="&#x12f;" horiz-adv-x="242" 
d="M65 0v479h112v-479q-26 -3 -49 -29.5t-23 -63.5q0 -46 48 -46q22 0 39 4v-80q-26 -7 -58 -7q-60 0 -89.5 30.5t-29.5 78.5q0 32 20 63.5t54 49.5h-24zM59 585v114h124v-114h-124z" />
    <glyph glyph-name="Idotaccent" unicode="&#x130;" horiz-adv-x="259" 
d="M70 0v682h118v-682h-118zM74 773v104h108v-104h-108z" />
    <glyph glyph-name="dotlessi" unicode="&#x131;" horiz-adv-x="242" 
d="M65 0v479h112v-479h-112z" />
    <glyph glyph-name="Jcircumflex" unicode="&#x134;" horiz-adv-x="369" 
d="M189 190v492h118v-487q0 -114 -48.5 -165t-144.5 -51q-56 0 -104 20v101q42 -19 89 -19t68.5 25t21.5 84zM246 897l155 -101l-32 -62l-123 59l-123 -59l-32 62z" />
    <glyph glyph-name="jcircumflex" unicode="&#x135;" horiz-adv-x="242" 
d="M177 479v-528q0 -102 -45.5 -152t-127.5 -50q-47 0 -91 14v94q52 -12 72 -12q80 0 80 106v528h112zM121 739l155 -127l-46 -59l-109 79l-108 -79l-46 59z" />
    <glyph glyph-name="Kcommaaccent" unicode="&#x136;" horiz-adv-x="629" 
d="M494 0l-251 308l-54 -56v-252h-118v682h118v-286l272 286h151l-287 -294l320 -388h-151zM272 -153v91h106v-55q0 -72 -34 -122h-57q24 35 26 86h-41z" />
    <glyph glyph-name="kcommaaccent" unicode="&#x137;" horiz-adv-x="509" 
d="M380 0l-166 210l-37 -36v-174h-112v720h112v-420l172 179h136l-194 -197l225 -282h-136zM212 -153v91h106v-55q0 -72 -34 -122h-57q24 35 26 86h-41z" />
    <glyph glyph-name="kgreenlandic" unicode="&#x138;" horiz-adv-x="509" 
d="M380 0l-166 210l-37 -36v-174h-112v479h112v-179l172 179h136l-194 -197l225 -282h-136z" />
    <glyph glyph-name="Lacute" unicode="&#x139;" horiz-adv-x="485" 
d="M70 0v682h118v-578h287v-104h-405zM217 902l41 -88l-190 -80l-33 71z" />
    <glyph glyph-name="lacute" unicode="&#x13a;" horiz-adv-x="242" 
d="M65 0v720h112v-720h-112zM33 831l148 142l62 -73l-160 -129z" />
    <glyph glyph-name="Lcommaaccent" unicode="&#x13b;" horiz-adv-x="485" 
d="M70 0v682h118v-578h287v-104h-405zM211 -153v91h106v-55q0 -72 -34 -122h-57q24 35 26 86h-41z" />
    <glyph glyph-name="lcommaaccent" unicode="&#x13c;" horiz-adv-x="242" 
d="M65 0v720h112v-720h-112zM66 -153v91h106v-55q0 -72 -34 -122h-57q24 35 26 86h-41z" />
    <glyph glyph-name="Lcaron" unicode="&#x13d;" horiz-adv-x="485" 
d="M70 0v682h118v-578h287v-104h-405zM314 591v91h106v-55q0 -72 -34 -122h-57q24 35 26 86h-41z" />
    <glyph glyph-name="lcaron" unicode="&#x13e;" horiz-adv-x="350" 
d="M65 0v720h112v-720h-112zM242 629v91h106v-55q0 -72 -34 -122h-57q24 35 26 86h-41z" />
    <glyph glyph-name="Ldot" unicode="&#x13f;" horiz-adv-x="503" 
d="M70 0v682h118v-578h287v-104h-405zM325 310v103h108v-103h-108z" />
    <glyph glyph-name="ldot" unicode="&#x140;" horiz-adv-x="365" 
d="M65 0v720h112v-720h-112zM249 314v103h108v-103h-108z" />
    <glyph glyph-name="Lslash" unicode="&#x141;" horiz-adv-x="489" 
d="M8 170v101l67 48v363h118v-289l127 90v-102l-127 -89v-188h286v-104h-404v217z" />
    <glyph glyph-name="lslash" unicode="&#x142;" horiz-adv-x="264" 
d="M3 229v101l73 56v334h112v-254l73 57v-101l-73 -57v-365h-112v285z" />
    <glyph glyph-name="Nacute" unicode="&#x143;" horiz-adv-x="675" 
d="M175 503h-3q3 -102 3 -136v-367h-105v682h105l203 -308q85 -127 122 -198h2q-2 72 -2 133v373h104v-682h-104l-194 293q-91 137 -131 210zM426 902l41 -88l-190 -80l-33 71z" />
    <glyph glyph-name="nacute" unicode="&#x144;" horiz-adv-x="569" 
d="M65 0v479h111v-60h2q53 76 146 76q80 0 133 -55t53 -164v-276h-112v270q0 61 -27 93.5t-76 32.5q-54 0 -86 -37t-32 -105v-254h-112zM204 616l148 142l62 -73l-160 -129z" />
    <glyph glyph-name="Ncommaaccent" unicode="&#x145;" horiz-adv-x="675" 
d="M175 503h-3q3 -102 3 -136v-367h-105v682h105l203 -308q85 -127 122 -198h2q-2 72 -2 133v373h104v-682h-104l-194 293q-91 137 -131 210zM279 -153v91h106v-55q0 -72 -34 -122h-57q24 35 26 86h-41z" />
    <glyph glyph-name="ncommaaccent" unicode="&#x146;" horiz-adv-x="569" 
d="M65 0v479h111v-60h2q53 76 146 76q80 0 133 -55t53 -164v-276h-112v270q0 61 -27 93.5t-76 32.5q-54 0 -86 -37t-32 -105v-254h-112zM231 -153v91h106v-55q0 -72 -34 -122h-57q24 35 26 86h-41z" />
    <glyph glyph-name="Ncaron" unicode="&#x147;" horiz-adv-x="675" 
d="M175 503h-3q3 -102 3 -136v-367h-105v682h105l203 -308q85 -127 122 -198h2q-2 72 -2 133v373h104v-682h-104l-194 293q-91 137 -131 210zM337 734l-155 101l32 62l123 -59l124 59l31 -62z" />
    <glyph glyph-name="ncaron" unicode="&#x148;" horiz-adv-x="569" 
d="M65 0v479h111v-60h2q53 76 146 76q80 0 133 -55t53 -164v-276h-112v270q0 61 -27 93.5t-76 32.5q-54 0 -86 -37t-32 -105v-254h-112zM291 554l-154 127l45 59l109 -79l109 79l45 -59z" />
    <glyph glyph-name="Eng" unicode="&#x14a;" horiz-adv-x="675" 
d="M175 503h-3q3 -102 3 -136v-367h-105v682h105l203 -308q85 -127 122 -198h2q-2 72 -2 133v373h104v-701q0 -102 -45 -152t-127 -50q-47 0 -89 14v91q36 -12 74 -12q83 0 83 99v29l-194 293q-91 137 -131 210z" />
    <glyph glyph-name="eng" unicode="&#x14b;" horiz-adv-x="569" 
d="M65 0v479h111v-60h2q53 76 146 76q80 0 133 -55t53 -164v-321q0 -103 -43.5 -154.5t-124.5 -51.5q-45 0 -85 14v89q28 -10 66 -10q41 0 58 26.5t17 78.5v323q0 61 -27 93.5t-76 32.5q-54 0 -86 -37t-32 -105v-254h-112z" />
    <glyph glyph-name="Omacron" unicode="&#x14c;" horiz-adv-x="793" 
d="M156 341q0 -110 69 -183.5t171 -73.5q103 0 172 73.5t69 183.5t-67 183.5t-173 73.5q-102 0 -171.5 -73.5t-69.5 -183.5zM35 341q0 149 103.5 256t259.5 107q162 0 261 -107t99 -256q0 -151 -104 -257t-257 -106q-90 0 -161.5 32.5t-114 86t-64.5 116t-22 128.5zM545 777
h-282v80h282v-80z" />
    <glyph glyph-name="omacron" unicode="&#x14d;" horiz-adv-x="577" 
d="M32 240q0 110 73.5 182.5t182.5 72.5q112 0 184 -72.5t72 -182.5q0 -107 -73 -182t-183 -75q-109 0 -182.5 74t-73.5 183zM146 240q0 -68 41.5 -112.5t100.5 -44.5q63 0 103 44.5t40 112.5q0 66 -39 111t-104 45q-64 0 -103 -44t-39 -112zM429 597h-282v80h282v-80z" />
    <glyph glyph-name="Obreve" unicode="&#x14e;" horiz-adv-x="793" 
d="M156 341q0 -110 69 -183.5t171 -73.5q103 0 172 73.5t69 183.5t-67 183.5t-173 73.5q-102 0 -171.5 -73.5t-69.5 -183.5zM35 341q0 149 103.5 256t259.5 107q162 0 261 -107t99 -256q0 -151 -104 -257t-257 -106q-90 0 -161.5 32.5t-114 86t-64.5 116t-22 128.5zM480 886
h80q-4 -63 -49 -101t-114 -38q-75 0 -117.5 38.5t-44.5 100.5h79q2 -27 24 -42.5t59 -15.5q38 0 59.5 16t23.5 42z" />
    <glyph glyph-name="obreve" unicode="&#x14f;" horiz-adv-x="577" 
d="M32 240q0 110 73.5 182.5t182.5 72.5q112 0 184 -72.5t72 -182.5q0 -107 -73 -182t-183 -75q-109 0 -182.5 74t-73.5 183zM146 240q0 -68 41.5 -112.5t100.5 -44.5q63 0 103 44.5t40 112.5q0 66 -39 111t-104 45q-64 0 -103 -44t-39 -112zM371 721h80q-4 -68 -50 -111
t-113 -43q-70 0 -114.5 42.5t-47.5 111.5h79q3 -33 25 -52t58 -19q35 0 58 19.5t25 51.5z" />
    <glyph glyph-name="Ohungarumlaut" unicode="&#x150;" horiz-adv-x="793" 
d="M156 341q0 -110 69 -183.5t171 -73.5q103 0 172 73.5t69 183.5t-67 183.5t-173 73.5q-102 0 -171.5 -73.5t-69.5 -183.5zM35 341q0 149 103.5 256t259.5 107q162 0 261 -107t99 -256q0 -151 -104 -257t-257 -106q-90 0 -161.5 32.5t-114 86t-64.5 116t-22 128.5zM403 907
l58 -76l-159 -105l-47 62zM600 907l58 -76l-160 -105l-46 62z" />
    <glyph glyph-name="ohungarumlaut" unicode="&#x151;" horiz-adv-x="577" 
d="M32 240q0 110 73.5 182.5t182.5 72.5q112 0 184 -72.5t72 -182.5q0 -107 -73 -182t-183 -75q-109 0 -182.5 74t-73.5 183zM146 240q0 -68 41.5 -112.5t100.5 -44.5q63 0 103 44.5t40 112.5q0 66 -39 111t-104 45q-64 0 -103 -44t-39 -112zM238 754l81 -52l-113 -153
l-64 41zM409 754l81 -52l-113 -153l-64 41z" />
    <glyph glyph-name="OE" unicode="&#x152;" horiz-adv-x="1082" 
d="M1011 682v-104h-275v-175h265v-101h-265v-198h286v-104h-396v96q-95 -118 -238 -118q-88 0 -157.5 32.5t-111 86t-63 116t-21.5 128.5q0 149 101 256t253 107q146 0 237 -114v92h385zM156 341q0 -110 68.5 -183.5t171.5 -73.5q101 0 169 73.5t68 183.5t-66 183.5
t-170 73.5q-103 0 -172 -73t-69 -184z" />
    <glyph glyph-name="oe" unicode="&#x153;" horiz-adv-x="920" 
d="M32 240q0 110 70.5 182.5t175.5 72.5q126 0 193 -100q62 100 184 100q108 -1 169.5 -75t61.5 -176q0 -12 -2 -32h-357q0 -57 38.5 -99t94.5 -42q62 0 100 54h115q-26 -61 -80 -101.5t-136 -40.5q-126 0 -188 102q-32 -48 -81.5 -75t-111.5 -27q-105 0 -175.5 74
t-70.5 183zM146 240q0 -68 39.5 -112.5t96.5 -44.5q60 0 98 44.5t38 112.5q0 66 -37.5 111t-98.5 45t-98.5 -44t-37.5 -112zM652 411q-51 0 -84.5 -35t-39.5 -85h246q-5 50 -38.5 85t-83.5 35z" />
    <glyph glyph-name="Racute" unicode="&#x154;" horiz-adv-x="589" 
d="M377 290l212 -290h-142l-194 275h-65v-275h-118v682h206q128 0 188 -58.5t60 -146.5q0 -70 -42 -120.5t-105 -66.5zM402 474q0 52 -30.5 80.5t-87.5 28.5h-96v-215h97q55 0 86 29.5t31 76.5zM358 902l41 -88l-190 -80l-33 71z" />
    <glyph glyph-name="racute" unicode="&#x155;" horiz-adv-x="378" 
d="M354 491v-104q-35 5 -56 5q-58 0 -89.5 -38t-31.5 -112v-242h-112v479h110v-68h3q18 34 53.5 58.5t80.5 24.5q24 0 42 -3zM117 616l148 142l62 -73l-160 -129z" />
    <glyph glyph-name="Rcommaaccent" unicode="&#x156;" horiz-adv-x="589" 
d="M377 290l212 -290h-142l-194 275h-65v-275h-118v682h206q128 0 188 -58.5t60 -146.5q0 -70 -42 -120.5t-105 -66.5zM402 474q0 52 -30.5 80.5t-87.5 28.5h-96v-215h97q55 0 86 29.5t31 76.5zM250 -153v91h106v-55q0 -72 -34 -122h-57q24 35 26 86h-41z" />
    <glyph glyph-name="rcommaaccent" unicode="&#x157;" horiz-adv-x="378" 
d="M354 491v-104q-35 5 -56 5q-58 0 -89.5 -38t-31.5 -112v-242h-112v479h110v-68h3q18 34 53.5 58.5t80.5 24.5q24 0 42 -3zM66 -153v91h106v-55q0 -72 -34 -122h-57q24 35 26 86h-41z" />
    <glyph glyph-name="Rcaron" unicode="&#x158;" horiz-adv-x="589" 
d="M377 290l212 -290h-142l-194 275h-65v-275h-118v682h206q128 0 188 -58.5t60 -146.5q0 -70 -42 -120.5t-105 -66.5zM402 474q0 52 -30.5 80.5t-87.5 28.5h-96v-215h97q55 0 86 29.5t31 76.5zM259 734l-155 101l32 62l123 -59l124 59l31 -62z" />
    <glyph glyph-name="rcaron" unicode="&#x159;" horiz-adv-x="378" 
d="M354 491v-104q-35 5 -56 5q-58 0 -89.5 -38t-31.5 -112v-242h-112v479h110v-68h3q18 34 53.5 58.5t80.5 24.5q24 0 42 -3zM211 554l-154 127l45 59l109 -79l109 79l45 -59z" />
    <glyph glyph-name="Sacute" unicode="&#x15a;" horiz-adv-x="555" 
d="M489 520h-116q-5 39 -30.5 62.5t-66.5 23.5t-66.5 -23.5t-25.5 -61.5q0 -40 30.5 -64t91.5 -44q106 -33 151.5 -88.5t45.5 -136.5q0 -83 -58.5 -146.5t-165.5 -63.5q-97 0 -160 53t-76 153h120q9 -51 38.5 -79.5t78.5 -28.5t77.5 31t28.5 74q0 48 -31 78t-101 52
q-186 60 -186 209q0 80 59.5 132t149.5 52t147.5 -51t64.5 -133zM367 902l41 -88l-190 -80l-33 71z" />
    <glyph glyph-name="sacute" unicode="&#x15b;" horiz-adv-x="434" 
d="M388 356h-103q-4 26 -21.5 42t-42.5 16q-28 0 -44 -15t-16 -36q0 -24 19.5 -40.5t78.5 -36.5q139 -45 139 -153q0 -67 -47.5 -108.5t-128.5 -41.5q-83 0 -128 41t-52 111h104q9 -70 79 -70q31 0 48.5 16.5t17.5 42.5q0 28 -21.5 47t-78.5 39q-69 22 -102 57.5t-33 90.5
q0 60 44 98.5t119 38.5q74 0 116.5 -38.5t52.5 -100.5zM135 616l148 142l62 -73l-160 -129z" />
    <glyph glyph-name="Scircumflex" unicode="&#x15c;" horiz-adv-x="555" 
d="M489 520h-116q-5 39 -30.5 62.5t-66.5 23.5t-66.5 -23.5t-25.5 -61.5q0 -40 30.5 -64t91.5 -44q106 -33 151.5 -88.5t45.5 -136.5q0 -83 -58.5 -146.5t-165.5 -63.5q-97 0 -160 53t-76 153h120q9 -51 38.5 -79.5t78.5 -28.5t77.5 31t28.5 74q0 48 -31 78t-101 52
q-186 60 -186 209q0 80 59.5 132t149.5 52t147.5 -51t64.5 -133zM275 897l155 -101l-32 -62l-123 59l-123 -59l-32 62z" />
    <glyph glyph-name="scircumflex" unicode="&#x15d;" horiz-adv-x="434" 
d="M388 356h-103q-4 26 -21.5 42t-42.5 16q-28 0 -44 -15t-16 -36q0 -24 19.5 -40.5t78.5 -36.5q139 -45 139 -153q0 -67 -47.5 -108.5t-128.5 -41.5q-83 0 -128 41t-52 111h104q9 -70 79 -70q31 0 48.5 16.5t17.5 42.5q0 28 -21.5 47t-78.5 39q-69 22 -102 57.5t-33 90.5
q0 60 44 98.5t119 38.5q74 0 116.5 -38.5t52.5 -100.5zM222 740l154 -127l-45 -59l-109 79l-109 -79l-45 59z" />
    <glyph glyph-name="Scedilla" unicode="&#x15e;" horiz-adv-x="555" 
d="M489 520h-116q-5 39 -30.5 62.5t-66.5 23.5t-66.5 -23.5t-25.5 -61.5q0 -39 29 -62.5t93 -45.5q106 -36 151.5 -90.5t45.5 -134.5q0 -77 -52 -138t-145 -70l-8 -19q40 -7 63.5 -34t23.5 -63q0 -48 -32 -77.5t-93 -29.5q-54 0 -105 17l23 67q28 -12 71 -12q52 0 52 34
q0 43 -94 43l30 75q-81 10 -131.5 62t-62.5 141h120q9 -51 38.5 -79.5t78.5 -28.5t77.5 31t28.5 73q0 48 -32 78t-101 54q-97 33 -141 84t-44 125q0 80 60 131.5t149 51.5q90 0 147.5 -51t64.5 -133z" />
    <glyph glyph-name="scedilla" unicode="&#x15f;" horiz-adv-x="434" 
d="M386 356h-103q-4 26 -21.5 42t-42.5 16q-28 0 -44 -14.5t-16 -34.5q0 -25 18.5 -41t79.5 -38q75 -26 107 -63.5t32 -90.5q0 -60 -39.5 -100t-109.5 -47l-9 -24q40 -7 63.5 -34t23.5 -63q0 -48 -32 -77.5t-93 -29.5q-54 0 -105 17l23 67q28 -12 71 -12q52 0 52 34
q0 43 -94 43l32 80q-125 17 -139 149h104q9 -70 78 -70q30 0 48.5 16t18.5 43t-21 46t-79 40q-70 24 -102.5 59t-32.5 89q0 60 44 98.5t119 38.5q74 0 116.5 -38.5t52.5 -100.5z" />
    <glyph glyph-name="Scaron" unicode="&#x160;" horiz-adv-x="555" 
d="M492 520h-116q-5 39 -30.5 62.5t-66.5 23.5t-66.5 -23.5t-25.5 -61.5q0 -40 30.5 -64t91.5 -44q106 -33 151.5 -88.5t45.5 -136.5q0 -83 -58.5 -146.5t-165.5 -63.5q-97 0 -160 53t-76 153h120q9 -51 38.5 -79.5t78.5 -28.5t77.5 31t28.5 74q0 48 -31 78t-101 52
q-186 60 -186 209q0 80 59.5 132t149.5 52t147.5 -51t64.5 -133zM275 734l-155 101l32 62l123 -59l124 59l31 -62z" />
    <glyph glyph-name="scaron" unicode="&#x161;" horiz-adv-x="434" 
d="M391 356h-103q-4 26 -21.5 42t-42.5 16q-28 0 -44 -15t-16 -36q0 -24 19.5 -40.5t78.5 -36.5q139 -45 139 -153q0 -67 -47.5 -108.5t-128.5 -41.5q-83 0 -128 41t-52 111h104q9 -70 79 -70q31 0 48.5 16.5t17.5 42.5q0 28 -21.5 47t-78.5 39q-69 22 -102 57.5t-33 90.5
q0 60 44 98.5t119 38.5q74 0 116.5 -38.5t52.5 -100.5zM220 554l-154 127l45 59l109 -79l109 79l45 -59z" />
    <glyph glyph-name="Tcommaaccent" unicode="&#x162;" horiz-adv-x="478" 
d="M180 0v578h-170v104h458v-104h-170v-578h-118zM184 -153v91h106v-55q0 -72 -34 -122h-57q24 35 26 86h-41z" />
    <glyph glyph-name="tcommaaccent" unicode="&#x163;" horiz-adv-x="334" 
d="M14 385v94h60v153h112v-153h119v-94h-119v-214q0 -47 15 -65t51 -18q24 0 58 8v-91q-39 -11 -85 -11q-84 0 -117.5 44.5t-33.5 125.5v221h-60zM142 -149v91h106v-55q0 -72 -34 -122h-57q24 35 26 86h-41z" />
    <glyph glyph-name="Tcaron" unicode="&#x164;" horiz-adv-x="478" 
d="M180 0v578h-170v104h458v-104h-170v-578h-118zM238 734l-155 101l32 62l123 -59l124 59l31 -62z" />
    <glyph glyph-name="tcaron" unicode="&#x165;" horiz-adv-x="349" 
d="M14 385v94h60v153h112v-153h119v-94h-119v-214q0 -47 15 -65t51 -18q24 0 58 8v-91q-39 -11 -85 -11q-84 0 -117.5 44.5t-33.5 125.5v221h-60zM244 629v91h106v-55q0 -72 -34 -122h-57q24 35 26 86h-41z" />
    <glyph glyph-name="Tbar" unicode="&#x166;" horiz-adv-x="478" 
d="M412 301h-114v-301h-118v301h-114v94h114v183h-170v104h458v-104h-170v-183h114v-94z" />
    <glyph glyph-name="tbar" unicode="&#x167;" horiz-adv-x="334" 
d="M292 208l-106 1q0 -74 12 -97.5t54 -23.5q24 0 58 8v-91q-39 -11 -85 -11q-84 0 -117.5 44.5t-33.5 125.5v45h-50v76h50v100h-60v94h60v153h112v-153h119v-94h-119v-100l106 -1v-76z" />
    <glyph glyph-name="Utilde" unicode="&#x168;" horiz-adv-x="631" 
d="M316 -22q-112 0 -184 70.5t-72 222.5v411h118v-422q0 -83 36.5 -131.5t101.5 -48.5q137 0 137 180v422h117v-409q0 -152 -69 -223.5t-185 -71.5zM217 770h-71q3 58 28 93t74 35q36 0 75 -30q37 -28 60 -28q29 0 30 49h71q-5 -128 -103 -128q-43 0 -81 29q-37 29 -53 29
q-27 0 -30 -49z" />
    <glyph glyph-name="utilde" unicode="&#x169;" horiz-adv-x="557" 
d="M493 479v-479h-111v59h-3q-54 -75 -142 -75q-33 0 -62.5 11t-56.5 34t-43 66t-16 101v283h112v-270q0 -60 26.5 -93t71.5 -33q52 0 82 36.5t30 104.5v255h112zM179 590h-71q3 58 28 93t74 35q36 0 75 -30q37 -28 60 -28q29 0 30 49h71q-5 -128 -103 -128q-43 0 -81 29
q-37 29 -53 29q-27 0 -30 -49z" />
    <glyph glyph-name="Umacron" unicode="&#x16a;" horiz-adv-x="631" 
d="M316 -22q-112 0 -184 70.5t-72 222.5v411h118v-422q0 -83 36.5 -131.5t101.5 -48.5q137 0 137 180v422h117v-409q0 -152 -69 -223.5t-185 -71.5zM464 777h-282v80h282v-80z" />
    <glyph glyph-name="umacron" unicode="&#x16b;" horiz-adv-x="557" 
d="M493 479v-479h-111v59h-3q-54 -75 -142 -75q-33 0 -62.5 11t-56.5 34t-43 66t-16 101v283h112v-270q0 -60 26.5 -93t71.5 -33q52 0 82 36.5t30 104.5v255h112zM419 597h-282v80h282v-80z" />
    <glyph glyph-name="Ubreve" unicode="&#x16c;" horiz-adv-x="631" 
d="M316 -22q-112 0 -184 70.5t-72 222.5v411h118v-422q0 -83 36.5 -131.5t101.5 -48.5q137 0 137 180v422h117v-409q0 -152 -69 -223.5t-185 -71.5zM398 886h80q-4 -63 -49 -101t-114 -38q-75 0 -117.5 38.5t-44.5 100.5h79q2 -27 24 -42.5t59 -15.5q38 0 59.5 16t23.5 42z
" />
    <glyph glyph-name="ubreve" unicode="&#x16d;" horiz-adv-x="557" 
d="M493 479v-479h-111v59h-3q-54 -75 -142 -75q-33 0 -62.5 11t-56.5 34t-43 66t-16 101v283h112v-270q0 -60 26.5 -93t71.5 -33q52 0 82 36.5t30 104.5v255h112zM361 721h80q-4 -68 -50 -111t-113 -43q-70 0 -114.5 42.5t-47.5 111.5h79q3 -33 25 -52t58 -19q35 0 58 19.5
t25 51.5z" />
    <glyph glyph-name="Uring" unicode="&#x16e;" horiz-adv-x="631" 
d="M316 -22q-112 0 -184 70.5t-72 222.5v411h118v-422q0 -83 36.5 -131.5t101.5 -48.5q137 0 137 180v422h117v-409q0 -152 -69 -223.5t-185 -71.5zM255 842q0 -25 18 -43t44 -18q25 0 42 17.5t17 43.5q0 25 -17 42t-42 17q-26 0 -44 -17t-18 -42zM190 842q0 52 36.5 88.5
t90.5 36.5q52 0 88.5 -36.5t36.5 -88.5q0 -53 -36.5 -90t-88.5 -37q-54 0 -90.5 37t-36.5 90z" />
    <glyph glyph-name="uring" unicode="&#x16f;" horiz-adv-x="557" 
d="M493 479v-479h-111v59h-3q-54 -75 -142 -75q-33 0 -62.5 11t-56.5 34t-43 66t-16 101v283h112v-270q0 -60 26.5 -93t71.5 -33q52 0 82 36.5t30 104.5v255h112zM217 657q0 -25 18 -43t44 -18q25 0 42 17.5t17 43.5q0 25 -17 42t-42 17q-26 0 -44 -17t-18 -42zM152 657
q0 52 36.5 88.5t90.5 36.5q52 0 88.5 -36.5t36.5 -88.5q0 -53 -36.5 -90t-88.5 -37q-54 0 -90.5 37t-36.5 90z" />
    <glyph glyph-name="Uhungarumlaut" unicode="&#x170;" horiz-adv-x="631" 
d="M316 -22q-112 0 -184 70.5t-72 222.5v411h118v-422q0 -83 36.5 -131.5t101.5 -48.5q137 0 137 180v422h117v-409q0 -152 -69 -223.5t-185 -71.5zM310 907l58 -76l-159 -105l-47 62zM507 907l58 -76l-160 -105l-46 62z" />
    <glyph glyph-name="uhungarumlaut" unicode="&#x171;" horiz-adv-x="557" 
d="M493 479v-479h-111v59h-3q-54 -75 -142 -75q-33 0 -62.5 11t-56.5 34t-43 66t-16 101v283h112v-270q0 -60 26.5 -93t71.5 -33q52 0 82 36.5t30 104.5v255h112zM227 754l81 -52l-113 -153l-64 41zM398 754l81 -52l-113 -153l-64 41z" />
    <glyph glyph-name="Uogonek" unicode="&#x172;" horiz-adv-x="631" 
d="M316 -22q-112 0 -184 70.5t-72 222.5v411h118v-422q0 -83 36.5 -131.5t101.5 -48.5q137 0 137 180v422h117v-409q0 -186 -105 -255q-51 -33 -64 -49q-24 -30 -24 -62q0 -46 49 -46q20 0 39 4v-80q-28 -7 -59 -7q-59 0 -88.5 30.5t-29.5 78.5q0 51 41 92q-4 -1 -13 -1z
" />
    <glyph glyph-name="uogonek" unicode="&#x173;" horiz-adv-x="557" 
d="M506 -135v-80q-26 -7 -58 -7q-60 0 -89 30.5t-29 78.5q0 32 19.5 63.5t53.5 49.5h-21v59h-3q-54 -75 -142 -75q-33 0 -62.5 11t-56.5 34t-43 66t-16 101v283h112v-270q0 -60 26.5 -93t71.5 -33q52 0 82 36.5t30 104.5v255h112v-479q-25 -2 -49.5 -27.5t-24.5 -65.5
q0 -46 49 -46q21 0 38 4z" />
    <glyph glyph-name="Wcircumflex" unicode="&#x174;" horiz-adv-x="855" 
d="M550 0l-93 390q-19 81 -24 145h-4q-10 -80 -25 -142l-90 -393h-123l-179 682h117l97 -400q13 -52 27 -130h4q12 73 27 139l92 391h113l95 -398q11 -46 26 -132h4q11 74 24 131l90 399h116l-168 -682h-126zM430 897l155 -101l-32 -62l-123 59l-123 -59l-32 62z" />
    <glyph glyph-name="wcircumflex" unicode="&#x175;" horiz-adv-x="710" 
d="M433 0l-58 241q-16 74 -20 104h-4q-6 -50 -23 -124l-52 -221h-134l-123 479h110l64 -272q13 -59 19 -95h4q13 67 21 100l66 267h107l67 -271q6 -24 18 -96h3q7 50 17 95l66 272h110l-125 -479h-133zM357 740l154 -127l-45 -59l-109 79l-109 -79l-45 59z" />
    <glyph glyph-name="Ycircumflex" unicode="&#x176;" horiz-adv-x="570" 
d="M227 0v274l-218 408h130l115 -223q24 -47 36 -82h2q9 24 37 81l110 224h123l-217 -407v-275h-118zM289 897l155 -101l-32 -62l-123 59l-123 -59l-32 62z" />
    <glyph glyph-name="ycircumflex" unicode="&#x177;" horiz-adv-x="452" 
d="M456 479l-263 -714h-107l88 237l-175 477h115l83 -238q26 -79 32 -110h3q14 56 32 110l81 238h111zM231 740l154 -127l-45 -59l-109 79l-109 -79l-45 59z" />
    <glyph glyph-name="Ydieresis" unicode="&#x178;" horiz-adv-x="570" 
d="M230 0v274l-218 408h130l115 -223q24 -47 36 -82h2q9 24 37 81l110 224h123l-217 -407v-275h-118zM150 773v102h105v-102h-105zM330 773v102h105v-102h-105z" />
    <glyph glyph-name="Zacute" unicode="&#x179;" horiz-adv-x="612" 
d="M56 578v104h500v-98l-371 -480h387v-104h-533v97l371 481h-354zM388 902l41 -88l-190 -80l-33 71z" />
    <glyph glyph-name="zacute" unicode="&#x17a;" horiz-adv-x="484" 
d="M48 386v93h387v-89l-257 -297h269v-93h-411v89l258 297h-246zM152 616l148 142l62 -73l-160 -129z" />
    <glyph glyph-name="Zdotaccent" unicode="&#x17b;" horiz-adv-x="612" 
d="M56 578v104h500v-98l-371 -480h387v-104h-533v97l371 481h-354zM241 773v104h108v-104h-108z" />
    <glyph glyph-name="zdotaccent" unicode="&#x17c;" horiz-adv-x="484" 
d="M48 386v93h387v-89l-257 -297h269v-93h-411v89l258 297h-246zM180 592v103h108v-103h-108z" />
    <glyph glyph-name="Zcaron" unicode="&#x17d;" horiz-adv-x="612" 
d="M59 578v104h500v-98l-371 -480h387v-104h-533v97l371 481h-354zM300 734l-155 101l32 62l123 -59l124 59l31 -62z" />
    <glyph glyph-name="zcaron" unicode="&#x17e;" horiz-adv-x="484" 
d="M51 386v93h387v-89l-257 -297h269v-93h-411v89l258 297h-246zM238 554l-154 127l45 59l109 -79l109 79l45 -59z" />
    <glyph glyph-name="longs" unicode="&#x17f;" horiz-adv-x="261" 
d="M70 0v558q0 81 41.5 124t121.5 43q41 0 73 -9v-92q-30 8 -54 8q-70 0 -70 -76v-556h-112z" />
    <glyph glyph-name="florin" unicode="&#x192;" horiz-adv-x="569" 
d="M141 -79l75 467h-79v94h92l9 56q13 85 53.5 125.5t111.5 40.5q28 0 68 -7v-91q-20 4 -48 4q-62 0 -73 -75l-9 -53h88v-94h-102l-75 -474q-15 -89 -55.5 -130t-109.5 -41q-45 0 -70 7v92q30 -6 49 -6q33 0 50 20t25 65z" />
    <glyph glyph-name="Scommaaccent" unicode="&#x218;" horiz-adv-x="555" 
d="M489 520h-116q-5 39 -30.5 62.5t-66.5 23.5t-66.5 -23.5t-25.5 -61.5q0 -40 30.5 -64t91.5 -44q106 -33 151.5 -88.5t45.5 -136.5q0 -83 -58.5 -146.5t-165.5 -63.5q-97 0 -160 53t-76 153h120q9 -51 38.5 -79.5t78.5 -28.5t77.5 31t28.5 74q0 48 -31 78t-101 52
q-186 60 -186 209q0 80 59.5 132t149.5 52t147.5 -51t64.5 -133zM222 -153v91h106v-55q0 -72 -34 -122h-57q24 35 26 86h-41z" />
    <glyph glyph-name="scommaaccent" unicode="&#x219;" horiz-adv-x="434" 
d="M386 356h-103q-4 26 -21.5 42t-42.5 16q-28 0 -44 -15t-16 -36q0 -24 19.5 -40.5t78.5 -36.5q139 -45 139 -153q0 -67 -47.5 -108.5t-128.5 -41.5q-83 0 -128 41t-52 111h104q9 -70 79 -70q31 0 48.5 16.5t17.5 42.5q0 28 -21.5 47t-78.5 39q-69 22 -102 57.5t-33 90.5
q0 60 44 98.5t119 38.5q74 0 116.5 -38.5t52.5 -100.5zM160 -153v91h106v-55q0 -72 -34 -122h-57q24 35 26 86h-41z" />
    <glyph glyph-name="uni021A" unicode="&#x21a;" horiz-adv-x="478" 
d="M180 0v578h-170v104h458v-104h-170v-578h-118zM184 -153v91h106v-55q0 -72 -34 -122h-57q24 35 26 86h-41z" />
    <glyph glyph-name="uni021B" unicode="&#x21b;" horiz-adv-x="334" 
d="M14 385v94h60v153h112v-153h119v-94h-119v-214q0 -47 15 -65t51 -18q24 0 58 8v-91q-39 -11 -85 -11q-84 0 -117.5 44.5t-33.5 125.5v221h-60zM142 -149v91h106v-55q0 -72 -34 -122h-57q24 35 26 86h-41z" />
    <glyph glyph-name="uni0237" unicode="&#x237;" horiz-adv-x="242" 
d="M177 479v-524q0 -104 -45.5 -155t-127.5 -51q-47 0 -91 14v94q39 -12 72 -12q80 0 80 106v528h112z" />
    <glyph glyph-name="circumflex" unicode="&#x2c6;" horiz-adv-x="324" 
d="M162 740l154 -127l-45 -59l-109 79l-109 -79l-45 59z" />
    <glyph glyph-name="caron" unicode="&#x2c7;" horiz-adv-x="324" 
d="M162 554l-154 127l45 59l109 -79l109 79l45 -59z" />
    <glyph glyph-name="uni02C9" unicode="&#x2c9;" horiz-adv-x="324" 
d="M303 597h-282v80h282v-80z" />
    <glyph glyph-name="breve" unicode="&#x2d8;" horiz-adv-x="324" 
d="M245 721h80q-4 -68 -50 -111t-113 -43q-70 0 -114.5 42.5t-47.5 111.5h79q3 -33 25 -52t58 -19q35 0 58 19.5t25 51.5z" />
    <glyph glyph-name="dotaccent" unicode="&#x2d9;" horiz-adv-x="324" 
d="M108 592v103h108v-103h-108z" />
    <glyph glyph-name="ring" unicode="&#x2da;" horiz-adv-x="324" 
d="M102 657q0 -25 18 -43t44 -18q25 0 42 17.5t17 43.5q0 25 -17 42t-42 17q-26 0 -44 -17t-18 -42zM37 657q0 52 36.5 88.5t90.5 36.5q52 0 88.5 -36.5t36.5 -88.5q0 -53 -36.5 -90t-88.5 -37q-54 0 -90.5 37t-36.5 90z" />
    <glyph glyph-name="ogonek" unicode="&#x2db;" horiz-adv-x="324" 
d="M242 -135v-80q-26 -7 -58 -7q-60 0 -89 30.5t-29 78.5q0 32 19.5 63.5t53.5 49.5h71q-55 -47 -55 -93t48 -46q22 0 39 4z" />
    <glyph glyph-name="tilde" unicode="&#x2dc;" horiz-adv-x="324" 
d="M64 590h-71q3 58 28 93t74 35q36 0 75 -30q37 -28 60 -28q29 0 30 49h71q-5 -128 -103 -128q-43 0 -81 29q-37 29 -53 29q-27 0 -30 -49z" />
    <glyph glyph-name="hungarumlaut" unicode="&#x2dd;" horiz-adv-x="324" 
d="M112 754l81 -52l-113 -153l-64 41zM283 754l81 -52l-113 -153l-64 41z" />
    <glyph glyph-name="Delta" unicode="&#x394;" horiz-adv-x="652" 
d="M7 0l271 682h108l259 -682h-638zM284 431l-123 -334h327l-121 335q-21 58 -38 118h-5q-18 -62 -40 -119z" />
    <glyph glyph-name="Omega" unicode="&#x3a9;" horiz-adv-x="758" 
d="M718 382q0 -87 -45.5 -159.5t-127.5 -106.5v-13h174v-103h-282v157q73 20 116.5 79t43.5 140q0 99 -60.5 162.5t-158.5 63.5q-94 0 -156 -63.5t-62 -162.5q0 -81 43.5 -140t116.5 -79v-157h-281v103h173v13q-81 33 -127 105t-46 161q0 133 96 227.5t245 94.5
q155 0 246.5 -93t91.5 -229z" />
    <glyph glyph-name="mu" unicode="&#x3bc;" horiz-adv-x="570" 
d="M59 -213v692h112v-270q0 -60 25 -93t72 -33q53 0 82.5 37.5t29.5 107.5v251h113v-338q0 -28 7.5 -39t26.5 -11q4 0 22 3v-98q-22 -8 -52 -8q-49 0 -74.5 18.5t-33.5 58.5h-2q-48 -81 -134 -81q-53 0 -90 28l-3 -2q11 -44 11 -122v-101h-112z" />
    <glyph glyph-name="pi" unicode="&#x3c0;" horiz-adv-x="646" 
d="M590 97v-93q-32 -10 -72 -10q-69 0 -98.5 37t-29.5 114v240h-142v-250q0 -77 -17 -135h-113q18 57 18 141v244q-70 0 -116 -26v94q47 26 143 26h454v-94h-115v-224q0 -39 10.5 -54.5t38.5 -15.5q19 0 39 6z" />
    <glyph glyph-name="uni0400" unicode="&#x400;" horiz-adv-x="535" 
d="M467 682v-104h-276v-175h266v-101h-266v-198h287v-104h-405v682h394zM141 814l42 88l182 -97l-34 -71z" />
    <glyph glyph-name="afii10023" unicode="&#x401;" horiz-adv-x="535" 
d="M467 682v-104h-276v-175h266v-101h-266v-198h287v-104h-405v682h394zM127 773v102h105v-102h-105zM307 773v102h105v-102h-105z" />
    <glyph glyph-name="afii10051" unicode="&#x402;" horiz-adv-x="677" 
d="M500 -29v268q0 125 -108 125q-51 0 -81 -33.5t-30 -82.5l1 -248h-118v578h-154v104h425v-104h-153v-184h3q20 33 57.5 52.5t82.5 19.5q94 0 143.5 -56.5t49.5 -165.5v-264q0 -102 -45 -151.5t-127 -49.5q-46 0 -90 14v91q39 -12 69 -12q75 0 75 99z" />
    <glyph glyph-name="afii10052" unicode="&#x403;" horiz-adv-x="485" 
d="M70 0v682h405v-104h-289v-578h-116zM359 902l41 -88l-190 -80l-33 71z" />
    <glyph glyph-name="afii10053" unicode="&#x404;" horiz-adv-x="762" 
d="M388 704q66 0 122.5 -18.5t94.5 -49.5t63 -66.5t39 -74.5h-130q-22 49 -71.5 79.5t-118.5 30.5q-86 0 -148.5 -54.5t-77.5 -147.5h337v-101h-339q10 -97 73.5 -161t158.5 -64q72 0 121 33t73 89h132q-42 -102 -124 -161.5t-206 -59.5q-156 0 -254 103.5t-98 261.5
q0 156 100.5 258.5t252.5 102.5z" />
    <glyph glyph-name="afii10054" unicode="&#x405;" horiz-adv-x="555" 
d="M489 520h-116q-5 39 -30.5 62.5t-66.5 23.5t-66.5 -23.5t-25.5 -61.5q0 -40 30.5 -64t91.5 -44q106 -33 151.5 -88.5t45.5 -136.5q0 -83 -58.5 -146.5t-165.5 -63.5q-97 0 -160 53t-76 153h120q9 -51 38.5 -79.5t78.5 -28.5t77.5 31t28.5 74q0 48 -31 78t-101 52
q-186 60 -186 209q0 80 59.5 132t149.5 52t147.5 -51t64.5 -133z" />
    <glyph glyph-name="afii10055" unicode="&#x406;" horiz-adv-x="259" 
d="M71 0v682h118v-682h-118z" />
    <glyph glyph-name="afii10056" unicode="&#x407;" horiz-adv-x="259" 
d="M74 0v682h118v-682h-118zM-10 773v102h105v-102h-105zM170 773v102h105v-102h-105z" />
    <glyph glyph-name="afii10057" unicode="&#x408;" horiz-adv-x="369" 
d="M189 190v492h118v-487q0 -114 -48.5 -165t-144.5 -51q-56 0 -104 20v101q42 -19 89 -19t68.5 25t21.5 84z" />
    <glyph glyph-name="afii10058" unicode="&#x409;" horiz-adv-x="947" 
d="M463 578h-208l-32 -410q-7 -93 -44 -134t-113 -41q-28 0 -57 9v99q14 -6 39 -6q28 0 42 16t18 57l40 514h433v-277h98q107 0 170.5 -53t63.5 -148t-65.5 -149.5t-169.5 -54.5h-215v578zM793 204q0 50 -34 78t-95 28h-83v-215h92q58 0 89 29t31 80z" />
    <glyph glyph-name="afii10059" unicode="&#x40a;" horiz-adv-x="945" 
d="M579 682v-277h98q107 0 170.5 -53t63.5 -148t-65.5 -149.5t-169.5 -54.5h-215v300h-272v-300h-118v682h118v-277h272v277h118zM791 204q0 50 -34 78t-95 28h-83v-215h92q58 0 89 29t31 80z" />
    <glyph glyph-name="afii10060" unicode="&#x40b;" horiz-adv-x="677" 
d="M282 578v-184h3q19 33 58.5 52.5t84.5 19.5q190 0 190 -225v-241h-118v239q0 65 -25.5 95t-82.5 30q-51 0 -81 -33.5t-30 -82.5l1 -248h-118v578h-154v104h425v-104h-153z" />
    <glyph glyph-name="afii10061" unicode="&#x40c;" horiz-adv-x="629" 
d="M492 0l-303 326v-326h-118v682h118v-318l297 318h147l-321 -330l333 -352h-153zM410 902l41 -88l-190 -80l-33 71z" />
    <glyph glyph-name="uni040D" unicode="&#x40d;" horiz-adv-x="681" 
d="M71 682h115v-373q0 -97 -2 -133h2q19 39 120 198l195 308h109v-682h-115v367q0 68 2 136h-2q-21 -41 -129 -210l-186 -293h-109v682zM219 814l42 88l182 -97l-34 -71z" />
    <glyph glyph-name="afii10062" unicode="&#x40e;" horiz-adv-x="590" 
d="M586 682l-239 -546q-63 -143 -174 -143q-29 0 -56 9v98q16 -6 42 -6q27 0 45.5 13t35.5 49l24 56l-255 470h130l149 -290q18 -33 30 -67h2l26 68l117 289h123zM395 886h80q-4 -63 -49 -101t-114 -38q-75 0 -117.5 38.5t-44.5 100.5h79q2 -27 24 -42.5t59 -15.5
q38 0 59.5 16t23.5 42z" />
    <glyph glyph-name="afii10145" unicode="&#x40f;" horiz-adv-x="662" 
d="M71 0v682h115v-578h290v578h115v-682h-202v-175h-117v175h-201z" />
    <glyph glyph-name="afii10017" unicode="&#x410;" horiz-adv-x="652" 
d="M7 0l271 682h108l259 -682h-123l-61 167h-272l-62 -167h-120zM284 431l-64 -174h210l-63 175q-21 58 -38 118h-5q-18 -62 -40 -119z" />
    <glyph glyph-name="afii10018" unicode="&#x411;" horiz-adv-x="556" 
d="M401 204q0 50 -34 78t-95 28h-83v-215h92q58 0 89 29t31 80zM71 682h390v-104h-272v-173h98q107 0 170.5 -53t63.5 -148t-65.5 -149.5t-169.5 -54.5h-215v682z" />
    <glyph glyph-name="afii10019" unicode="&#x412;" horiz-adv-x="554" 
d="M71 0v682h173q107 0 168.5 -45.5t61.5 -127.5q0 -55 -33 -92t-84 -52v-2q76 -9 117.5 -57t41.5 -113q0 -92 -65.5 -142.5t-168.5 -50.5h-211zM396 202q0 49 -34 78t-95 29h-83v-214h92q59 0 89.5 28.5t30.5 78.5zM356 498q0 45 -31 67.5t-85 22.5h-56v-186h61
q54 0 82.5 26t28.5 70z" />
    <glyph glyph-name="afii10020" unicode="&#x413;" horiz-adv-x="485" 
d="M70 0v682h405v-104h-289v-578h-116z" />
    <glyph glyph-name="afii10021" unicode="&#x414;" horiz-adv-x="772" 
d="M20 -175v279h22q104 0 118 187l28 391h463v-578h91v-279h-118v175h-486v-175h-118zM533 104v474h-237l-20 -287q-11 -133 -62 -187h319z" />
    <glyph glyph-name="afii10022" unicode="&#x415;" horiz-adv-x="535" 
d="M464 682v-104h-276v-175h266v-101h-266v-198h287v-104h-405v682h394z" />
    <glyph glyph-name="afii10024" unicode="&#x416;" horiz-adv-x="884" 
d="M383 332l-255 -332h-142l278 354l-266 328h140l245 -313v313h118v-313l245 313h140l-266 -328l278 -354h-142l-255 332v-332h-118v332z" />
    <glyph glyph-name="afii10025" unicode="&#x417;" horiz-adv-x="546" 
d="M31 182h122q5 -46 36 -74.5t80 -28.5t80.5 33t31.5 86q0 51 -33.5 85t-92.5 34h-63v97h63q48 0 75.5 27.5t27.5 71.5q0 38 -26 64.5t-66 26.5t-62.5 -22.5t-26.5 -59.5h-121q6 83 65 132.5t146 49.5q96 0 152.5 -51.5t56.5 -133.5q0 -49 -27.5 -88t-74.5 -58v-3
q58 -18 92.5 -65.5t34.5 -110.5q0 -93 -65 -154t-168 -61t-166.5 57t-70.5 146z" />
    <glyph glyph-name="afii10026" unicode="&#x418;" horiz-adv-x="681" 
d="M71 682h115v-373q0 -97 -2 -133h2q19 39 120 198l195 308h109v-682h-115v367q0 68 2 136h-2q-21 -41 -129 -210l-186 -293h-109v682z" />
    <glyph glyph-name="afii10027" unicode="&#x419;" horiz-adv-x="681" 
d="M71 682h115v-373q0 -97 -2 -133h2q19 39 120 198l195 308h109v-682h-115v367q0 68 2 136h-2q-21 -41 -129 -210l-186 -293h-109v682zM421 886h80q-4 -63 -49 -101t-114 -38q-75 0 -117.5 38.5t-44.5 100.5h79q2 -27 24 -42.5t59 -15.5q38 0 59.5 16t23.5 42z" />
    <glyph glyph-name="afii10028" unicode="&#x41a;" horiz-adv-x="629" 
d="M492 0l-303 326v-326h-118v682h118v-318l297 318h147l-321 -330l333 -352h-153z" />
    <glyph glyph-name="afii10029" unicode="&#x41b;" horiz-adv-x="682" 
d="M255 578l-32 -410q-7 -93 -44 -134t-113 -41q-28 0 -57 9v99q14 -6 39 -6q28 0 42 16t18 57l40 514h463v-682h-115v578h-241z" />
    <glyph glyph-name="afii10030" unicode="&#x41c;" horiz-adv-x="819" 
d="M702 682l80 -682h-114l-36 361q-3 29 -9 94t-6 69h-5q-25 -91 -48 -164l-113 -360h-88l-114 368q-37 113 -46 156h-7q-3 -65 -12 -155l-38 -369h-108l79 682h135l120 -371q22 -69 36 -125h4q8 32 37 125l119 371h134z" />
    <glyph glyph-name="afii10031" unicode="&#x41d;" horiz-adv-x="693" 
d="M504 0v300h-315v-300h-118v682h118v-277h315v277h118v-682h-118z" />
    <glyph glyph-name="afii10032" unicode="&#x41e;" horiz-adv-x="793" 
d="M156 341q0 -110 69 -183.5t171 -73.5q103 0 172 73.5t69 183.5t-67 183.5t-173 73.5q-102 0 -171.5 -73.5t-69.5 -183.5zM35 341q0 149 103.5 256t259.5 107q162 0 261 -107t99 -256q0 -151 -104 -257t-257 -106q-90 0 -161.5 32.5t-114 86t-64.5 116t-22 128.5z" />
    <glyph glyph-name="afii10033" unicode="&#x41f;" horiz-adv-x="662" 
d="M476 0v578h-290v-578h-115v682h520v-682h-115z" />
    <glyph glyph-name="afii10034" unicode="&#x420;" horiz-adv-x="554" 
d="M415 465q0 53 -33 85.5t-101 32.5h-93v-236h91q136 0 136 118zM70 0v682h210q115 0 185 -54.5t70 -160.5q0 -104 -65 -161t-196 -57h-86v-249h-118z" />
    <glyph glyph-name="afii10035" unicode="&#x421;" horiz-adv-x="764" 
d="M388 704q131 0 213 -66.5t107 -155.5h-129q-19 52 -69.5 86t-122.5 34q-98 0 -164.5 -71t-66.5 -189q0 -110 66 -186t169 -76q74 0 124 37t72 95h132q-39 -107 -122 -170.5t-210 -63.5q-156 0 -254 103.5t-98 261.5q0 156 100.5 258.5t252.5 102.5z" />
    <glyph glyph-name="afii10036" unicode="&#x422;" horiz-adv-x="478" 
d="M180 0v578h-170v104h458v-104h-170v-578h-118z" />
    <glyph glyph-name="afii10037" unicode="&#x423;" horiz-adv-x="590" 
d="M586 682l-239 -546q-63 -143 -174 -143q-29 0 -56 9v98q16 -6 42 -6q27 0 45.5 13t35.5 49l24 56l-255 470h130l149 -290q18 -33 30 -67h2l26 68l117 289h123z" />
    <glyph glyph-name="afii10038" unicode="&#x424;" horiz-adv-x="780" 
d="M331 162v364q-80 0 -129 -50t-49 -131t52 -132t126 -51zM449 526v-364q74 0 126 51t52 132q0 80 -49.5 130.5t-128.5 50.5zM449 -10h-118v76q-133 2 -216 80.5t-83 198.5q0 121 83.5 197.5t215.5 78.5v70h118v-70q133 -2 216 -78.5t83 -197.5t-83 -199t-216 -80v-76z" />
    <glyph glyph-name="afii10039" unicode="&#x425;" horiz-adv-x="594" 
d="M146 682l105 -164q20 -31 48 -79h3q25 45 48 81l104 162h126l-221 -326l231 -356h-133l-107 173l-32 53l-23 39h-2l-57 -94l-105 -171h-127l229 352l-221 330h134z" />
    <glyph glyph-name="afii10040" unicode="&#x426;" horiz-adv-x="712" 
d="M564 0h-493v682h118v-578h284v578h118v-578h91v-279h-118v175z" />
    <glyph glyph-name="afii10041" unicode="&#x427;" horiz-adv-x="624" 
d="M554 0h-118v313h-4q-24 -33 -69.5 -52.5t-91.5 -19.5q-102 0 -157.5 56.5t-55.5 170.5v214h118v-204q0 -135 127 -135q61 0 97 36t36 101v202h118v-682z" />
    <glyph glyph-name="afii10042" unicode="&#x428;" horiz-adv-x="917" 
d="M71 0v682h115v-578h215v578h115v-578h215v578h115v-682h-775z" />
    <glyph glyph-name="afii10043" unicode="&#x429;" horiz-adv-x="967" 
d="M819 0h-748v682h115v-578h215v578h115v-578h215v578h115v-578h91v-279h-118v175z" />
    <glyph glyph-name="afii10044" unicode="&#x42a;" horiz-adv-x="664" 
d="M510 204q0 50 -33.5 78t-95.5 28h-83v-215h92q58 0 89 29t31 80zM180 578h-170v104h288v-277h98q107 0 170.5 -53t63.5 -148t-65.5 -149.5t-169.5 -54.5h-215v578z" />
    <glyph glyph-name="afii10045" unicode="&#x42b;" horiz-adv-x="796" 
d="M401 204q0 50 -34 78t-95 28h-83v-215h92q58 0 89 29t31 80zM71 0v682h118v-277h98q107 0 170.5 -53t63.5 -148t-65.5 -149.5t-169.5 -54.5h-215zM608 0v682h118v-682h-118z" />
    <glyph glyph-name="afii10046" unicode="&#x42c;" horiz-adv-x="555" 
d="M401 204q0 50 -34 78t-95 28h-83v-215h92q58 0 89 29t31 80zM71 0v682h118v-277h98q107 0 170.5 -53t63.5 -148t-65.5 -149.5t-169.5 -54.5h-215z" />
    <glyph glyph-name="afii10047" unicode="&#x42d;" horiz-adv-x="762" 
d="M374 704q152 0 252.5 -102.5t100.5 -258.5q0 -158 -98 -261.5t-254 -103.5q-124 0 -206 59.5t-124 161.5h132q24 -56 73 -89t121 -33q95 0 158 63.5t74 161.5h-342v101h340q-15 93 -78 147.5t-148 54.5q-69 0 -118 -30.5t-71 -79.5h-130q14 39 39 74.5t63 66.5t94 49.5
t122 18.5z" />
    <glyph glyph-name="afii10048" unicode="&#x42e;" horiz-adv-x="1030" 
d="M634 -22q-83 0 -150 28t-109.5 74.5t-67 102.5t-30.5 117h-88v-300h-118v682h118v-277h91q22 128 119.5 213.5t235.5 85.5q162 0 261 -107t99 -256q0 -151 -104 -257t-257 -106zM393 341q0 -110 69 -183.5t171 -73.5q103 0 172 73.5t69 183.5t-67 183.5t-173 73.5
q-102 0 -171.5 -73.5t-69.5 -183.5z" />
    <glyph glyph-name="afii10049" unicode="&#x42f;" horiz-adv-x="589" 
d="M0 0l212 290q-63 16 -104.5 66.5t-41.5 120.5q0 88 59.5 146.5t187.5 58.5h206v-682h-118v275h-65l-194 -275h-142zM187 474q0 -47 31 -76.5t86 -29.5h97v215h-96q-57 0 -87.5 -28.5t-30.5 -80.5z" />
    <glyph glyph-name="afii10065" unicode="&#x430;" horiz-adv-x="604" 
d="M538 479v-479h-109v61h-3q-63 -78 -164 -78q-89 0 -159.5 68.5t-70.5 188.5q0 112 69 183t169 71q96 0 157 -80h2v65h109zM147 240q0 -65 37.5 -112t107.5 -47q57 0 99.5 44.5t42.5 111.5q0 71 -40.5 116t-100.5 45q-70 0 -108 -47t-38 -111z" />
    <glyph glyph-name="afii10066" unicode="&#x431;" horiz-adv-x="580" 
d="M149 240q0 -68 41.5 -112.5t101.5 -44.5q63 0 102.5 44.5t39.5 112.5q0 66 -38 111t-102 45t-104.5 -44.5t-40.5 -111.5zM348 584q-171 -26 -193 -154h3q24 27 64.5 44.5t83.5 17.5q108 0 175 -71t67 -181q0 -107 -73 -182t-183 -75q-114 0 -184 77.5t-70 217.5
q0 82 14.5 146t39.5 107.5t62.5 74.5t80 48t96.5 26q76 14 130 47l45 -92q-72 -40 -158 -51z" />
    <glyph glyph-name="afii10067" unicode="&#x432;" horiz-adv-x="501" 
d="M65 0v479h201q77 0 119 -30.5t42 -86.5q0 -35 -20 -62.5t-60 -38.5q59 -11 86.5 -43t27.5 -75q0 -65 -46.5 -104t-129.5 -39h-220zM264 212h-93v-134h103q40 0 59.5 19t19.5 48q0 67 -89 67zM247 401h-76v-113h68q81 0 81 59q0 54 -73 54z" />
    <glyph glyph-name="afii10068" unicode="&#x433;" horiz-adv-x="421" 
d="M411 479v-97h-234v-382h-112v479h346z" />
    <glyph glyph-name="afii10069" unicode="&#x434;" horiz-adv-x="614" 
d="M15 -155v252h11q98 0 117 204l17 178h367v-382h72v-252h-110v155h-364v-155h-110zM415 97v285h-161l-9 -90q-8 -83 -21 -125t-38 -70h229z" />
    <glyph glyph-name="afii10070" unicode="&#x435;" horiz-adv-x="551" 
d="M275 495q116 -1 178.5 -75.5t62.5 -175.5q0 -23 -2 -33h-370q0 -56 42.5 -98t100.5 -42q67 0 107 54h115q-27 -62 -82.5 -102t-139.5 -40q-111 0 -183 73.5t-72 187.5q0 105 66.5 178t176.5 73zM275 411q-55 0 -90 -35t-40 -84h259q-5 50 -40.5 84.5t-88.5 34.5z" />
    <glyph glyph-name="afii10072" unicode="&#x436;" horiz-adv-x="711" 
d="M302 0v238l-174 -238h-131l193 252l-186 227h125l173 -216v216h108v-216l172 216h125l-186 -227l194 -252h-132l-173 238v-238h-108z" />
    <glyph glyph-name="afii10073" unicode="&#x437;" horiz-adv-x="456" 
d="M24 129h106q5 -27 28 -44t61 -17q44 0 68 19t24 50q0 33 -24.5 52t-59.5 19h-55v80h58q32 0 52 17t20 45q0 26 -21.5 43t-57.5 17q-31 0 -53 -14t-28 -40h-105q10 64 61 101.5t128 37.5q83 0 132 -36.5t49 -95.5q0 -88 -87 -114q45 -10 72 -40.5t27 -72.5
q0 -69 -51 -111.5t-153 -42.5q-78 0 -129.5 38.5t-61.5 108.5z" />
    <glyph glyph-name="afii10074" unicode="&#x438;" horiz-adv-x="575" 
d="M65 0v479h108v-184q0 -89 -3 -147h2q15 28 66 98l173 233h99v-479h-108v183q0 89 3 148h-2q-16 -29 -66 -98l-173 -233h-99z" />
    <glyph glyph-name="afii10075" unicode="&#x439;" horiz-adv-x="575" 
d="M65 0v479h108v-184q0 -89 -3 -147h2q15 28 66 98l173 233h99v-479h-108v183q0 89 3 148h-2q-16 -29 -66 -98l-173 -233h-99zM374 721h80q-4 -68 -50 -111t-113 -43q-70 0 -114.5 42.5t-47.5 111.5h79q3 -33 25 -52t58 -19q35 0 58 19.5t25 51.5z" />
    <glyph glyph-name="afii10076" unicode="&#x43a;" horiz-adv-x="519" 
d="M65 0v479h112v-212l200 212h131l-214 -227l220 -252h-136l-201 234v-234h-112z" />
    <glyph glyph-name="afii10077" unicode="&#x43b;" horiz-adv-x="573" 
d="M98 157l29 322h381v-479h-111v382h-174l-22 -238q-8 -82 -40 -116.5t-101 -34.5q-20 0 -48 6v92q16 -4 33 -4q26 0 38 17t15 53z" />
    <glyph glyph-name="afii10078" unicode="&#x43c;" horiz-adv-x="691" 
d="M579 479l86 -479h-103l-39 232q-13 85 -15 108h-3q-14 -62 -30 -108l-86 -232h-86l-87 237q-23 61 -31 103h-3q-8 -62 -14 -102l-40 -238h-102l88 479h112l95 -257q12 -32 24 -86h3q14 54 25 87l96 256h110z" />
    <glyph glyph-name="afii10079" unicode="&#x43d;" horiz-adv-x="575" 
d="M510 479v-479h-112v203h-221v-203h-112v479h112v-182h221v182h112z" />
    <glyph glyph-name="afii10080" unicode="&#x43e;" horiz-adv-x="577" 
d="M32 240q0 110 73.5 182.5t182.5 72.5q112 0 184 -72.5t72 -182.5q0 -107 -73 -182t-183 -75q-109 0 -182.5 74t-73.5 183zM146 240q0 -68 41.5 -112.5t100.5 -44.5q63 0 103 44.5t40 112.5q0 66 -39 111t-104 45q-64 0 -103 -44t-39 -112z" />
    <glyph glyph-name="afii10081" unicode="&#x43f;" horiz-adv-x="575" 
d="M510 479v-479h-112v382h-221v-382h-112v479h445z" />
    <glyph glyph-name="afii10082" unicode="&#x440;" horiz-adv-x="604" 
d="M65 -235v714h109v-61h3q65 76 165 76q95 0 162 -71.5t67 -184.5q0 -111 -68.5 -183t-166.5 -72t-158 75h-3v-293h-110zM456 239q0 65 -38 111t-107 46q-60 0 -100.5 -44t-40.5 -115q0 -68 41.5 -112.5t100.5 -44.5q68 0 106 47.5t38 111.5z" />
    <glyph glyph-name="afii10083" unicode="&#x441;" horiz-adv-x="547" 
d="M287 495q94 0 151 -49t70 -111h-115q-26 65 -107 65q-62 0 -100.5 -43t-38.5 -117q0 -69 39.5 -115t103.5 -46q79 0 110 72h116q-22 -73 -78.5 -120.5t-149.5 -47.5q-110 0 -183 71.5t-73 186.5q0 108 70 181t185 73z" />
    <glyph glyph-name="afii10084" unicode="&#x442;" horiz-adv-x="394" 
d="M383 479v-97h-130v-382h-111v382h-131v97h372z" />
    <glyph glyph-name="afii10085" unicode="&#x443;" horiz-adv-x="452" 
d="M456 479l-263 -714h-107l88 237l-175 477h115l83 -238q26 -79 32 -110h3q14 56 32 110l81 238h111z" />
    <glyph glyph-name="afii10086" unicode="&#x444;" horiz-adv-x="824" 
d="M355 431h2v289h110v-289h3q44 63 127 63q81 0 137 -67.5t56 -188.5q0 -113 -54.5 -184t-142.5 -71q-40 0 -72.5 17.5t-50.5 45.5h-3v-281h-110v282h-2q-52 -64 -125 -64q-89 0 -142.5 71t-53.5 186q0 112 56 183t146 71q37 0 69 -18.5t50 -44.5zM146 240
q0 -73 29.5 -117.5t80.5 -44.5q44 0 75 42.5t31 116.5q0 77 -29.5 119.5t-77.5 42.5q-50 0 -79.5 -45t-29.5 -114zM678 239q0 67 -27 113.5t-81 46.5q-47 0 -77 -41.5t-30 -120.5q0 -71 29.5 -115t78.5 -44q50 0 78.5 45t28.5 116z" />
    <glyph glyph-name="afii10087" unicode="&#x445;" horiz-adv-x="497" 
d="M13 0l175 243l-165 236h126l71 -107l10 -17l11 -19l8 -15h3q12 24 27 48l69 110h125l-165 -233l174 -246h-130l-76 115l-29 52h-3l-31 -53l-74 -114h-126z" />
    <glyph glyph-name="afii10088" unicode="&#x446;" horiz-adv-x="597" 
d="M510 97h72v-252h-112v155h-405v479h112v-382h221v382h112v-382z" />
    <glyph glyph-name="afii10089" unicode="&#x447;" horiz-adv-x="545" 
d="M480 479v-479h-112v229h-2q-48 -76 -136 -76q-76 0 -125 53.5t-49 160.5v112h112v-105q0 -58 25 -89.5t69 -31.5q49 0 77.5 35t28.5 101v90h112z" />
    <glyph glyph-name="afii10090" unicode="&#x448;" horiz-adv-x="847" 
d="M782 0h-717v479h112v-382h191v382h111v-382h191v382h112v-479z" />
    <glyph glyph-name="afii10091" unicode="&#x449;" horiz-adv-x="869" 
d="M742 0h-677v479h112v-382h191v382h111v-382h191v382h112v-382h72v-252h-112v155z" />
    <glyph glyph-name="afii10092" unicode="&#x44a;" horiz-adv-x="541" 
d="M325 212h-69v-127h69q36 0 54 18t18 46q0 63 -72 63zM256 479v-182h79q83 0 128.5 -38t45.5 -110q0 -68 -45 -108.5t-124 -40.5h-196v382h-133v97h245z" />
    <glyph glyph-name="afii10093" unicode="&#x44b;" horiz-adv-x="690" 
d="M246 212h-69v-127h69q37 0 54.5 18t17.5 46q0 63 -72 63zM177 297h79q83 0 128.5 -38t45.5 -110q0 -68 -45 -108.5t-124 -40.5h-196v479h112v-182zM513 0v479h112v-479h-112z" />
    <glyph glyph-name="afii10094" unicode="&#x44c;" horiz-adv-x="463" 
d="M246 212h-69v-127h69q37 0 54.5 18t17.5 46q0 63 -72 63zM177 297h79q83 0 128.5 -38t45.5 -110q0 -68 -45 -108.5t-124 -40.5h-196v479h112v-182z" />
    <glyph glyph-name="afii10095" unicode="&#x44d;" horiz-adv-x="543" 
d="M259 495q113 0 182.5 -72.5t69.5 -182.5q0 -112 -71.5 -184.5t-185.5 -72.5q-93 0 -150 46t-76 112h115q29 -70 110 -70q58 0 96.5 37.5t44.5 99.5h-206v80h204q-10 58 -47 88.5t-89 30.5q-82 0 -108 -60h-117q18 61 75 104.5t153 43.5z" />
    <glyph glyph-name="afii10096" unicode="&#x44e;" horiz-adv-x="786" 
d="M177 479v-184h72q17 89 85.5 144.5t163.5 55.5q112 0 184 -72.5t72 -182.5q0 -107 -73 -182t-183 -75q-100 0 -170.5 63t-81.5 160h-69v-206h-112v479h112zM355 240q0 -68 41.5 -112.5t101.5 -44.5q62 0 102 45t40 112q0 66 -39 111t-103 45t-103.5 -44t-39.5 -112z" />
    <glyph glyph-name="afii10097" unicode="&#x44f;" horiz-adv-x="472" 
d="M295 185h-39l-119 -185h-123l136 196q-47 13 -74.5 48t-27.5 86q0 68 45.5 108.5t127.5 40.5h186v-479h-112v185zM232 264h63v131h-63q-36 0 -54 -18.5t-18 -46.5q0 -66 72 -66z" />
    <glyph glyph-name="uni0450" unicode="&#x450;" horiz-adv-x="551" 
d="M278 495q116 -1 178.5 -75.5t62.5 -175.5q0 -23 -2 -33h-370q0 -56 42.5 -98t100.5 -42q67 0 107 54h115q-27 -62 -82.5 -102t-139.5 -40q-111 0 -183 73.5t-72 187.5q0 105 66.5 178t176.5 73zM278 411q-55 0 -90 -35t-40 -84h259q-5 50 -40.5 84.5t-88.5 34.5zM148 685
l63 73l147 -142l-50 -60z" />
    <glyph glyph-name="afii10071" unicode="&#x451;" horiz-adv-x="551" 
d="M278 495q116 -1 178.5 -75.5t62.5 -175.5q0 -23 -2 -33h-370q0 -56 42.5 -98t100.5 -42q67 0 107 54h115q-27 -62 -82.5 -102t-139.5 -40q-111 0 -183 73.5t-72 187.5q0 105 66.5 178t176.5 73zM278 411q-55 0 -90 -35t-40 -84h259q-5 50 -40.5 84.5t-88.5 34.5zM134 593
v102h105v-102h-105zM314 593v102h105v-102h-105z" />
    <glyph glyph-name="afii10099" unicode="&#x452;" horiz-adv-x="566" 
d="M398 -53v323q0 61 -27 93.5t-76 32.5q-54 0 -86 -36.5t-32 -104.5v-255h-112v564h-65v80h65v76h112v-76h155v-80h-155v-145h3q53 76 145 76q80 0 132.5 -54.5t52.5 -164.5v-321q0 -103 -43.5 -154.5t-124.5 -51.5q-45 0 -85 14v89q28 -10 66 -10q41 0 58 26.5t17 78.5z
" />
    <glyph glyph-name="afii10100" unicode="&#x453;" horiz-adv-x="421" 
d="M411 479v-97h-234v-382h-112v479h346zM153 616l148 142l62 -73l-160 -129z" />
    <glyph glyph-name="afii10101" unicode="&#x454;" horiz-adv-x="547" 
d="M287 495q94 0 151.5 -45t72.5 -103h-116q-27 60 -108 60q-52 0 -89 -30.5t-47 -88.5h202v-80h-204q7 -62 45.5 -99.5t95.5 -37.5q79 0 110 70h116q-22 -69 -78.5 -113.5t-149.5 -44.5q-110 0 -183 71.5t-73 186.5q0 108 70 181t185 73z" />
    <glyph glyph-name="afii10102" unicode="&#x455;" horiz-adv-x="434" 
d="M386 356h-103q-4 26 -21.5 42t-42.5 16q-28 0 -44 -15t-16 -36q0 -24 19.5 -40.5t78.5 -36.5q139 -45 139 -153q0 -67 -47.5 -108.5t-128.5 -41.5q-83 0 -128 41t-52 111h104q9 -70 79 -70q31 0 48.5 16.5t17.5 42.5q0 28 -21.5 47t-78.5 39q-69 22 -102 57.5t-33 90.5
q0 60 44 98.5t119 38.5q74 0 116.5 -38.5t52.5 -100.5z" />
    <glyph glyph-name="afii10103" unicode="&#x456;" horiz-adv-x="242" 
d="M65 0v479h112v-479h-112zM59 585v114h124v-114h-124z" />
    <glyph glyph-name="afii10104" unicode="&#x457;" horiz-adv-x="242" 
d="M68 0v479h112v-479h-112zM-18 593v102h105v-102h-105zM162 593v102h105v-102h-105z" />
    <glyph glyph-name="afii10105" unicode="&#x458;" horiz-adv-x="242" 
d="M177 479v-524q0 -104 -45.5 -155t-127.5 -51q-47 0 -91 14v94q39 -12 72 -12q80 0 80 106v528h112zM59 585v114h124v-114h-124z" />
    <glyph glyph-name="afii10106" unicode="&#x459;" horiz-adv-x="751" 
d="M127 479h338v-182h80q83 0 128.5 -38t45.5 -110q0 -68 -45 -108.5t-124 -40.5h-196v382h-131l-22 -237q-8 -82 -40 -117t-101 -35q-20 0 -48 6v92q14 -4 33 -4q26 0 38 17t15 53zM535 212h-70v-127h70q36 0 54 18t18 46q0 63 -72 63z" />
    <glyph glyph-name="afii10107" unicode="&#x45a;" horiz-adv-x="744" 
d="M458 297h79q83 0 128.5 -38t45.5 -110q0 -68 -45 -108.5t-124 -40.5h-196v203h-169v-203h-112v479h112v-182h169v182h112v-182zM527 212h-69v-127h69q37 0 54.5 18t17.5 46q0 63 -72 63z" />
    <glyph glyph-name="afii10108" unicode="&#x45b;" horiz-adv-x="566" 
d="M332 564h-155v-145h3q53 76 145 76q80 0 132.5 -54.5t52.5 -164.5v-276h-112v270q0 61 -27 93.5t-76 32.5q-54 0 -86 -36.5t-32 -104.5v-255h-112v564h-65v80h65v76h112v-76h155v-80z" />
    <glyph glyph-name="afii10109" unicode="&#x45c;" horiz-adv-x="519" 
d="M65 0v479h112v-212l200 212h131l-214 -227l220 -252h-136l-201 234v-234h-112zM180 616l148 142l62 -73l-160 -129z" />
    <glyph glyph-name="uni045D" unicode="&#x45d;" horiz-adv-x="575" 
d="M65 0v479h108v-184q0 -89 -3 -147h2q15 28 66 98l173 233h99v-479h-108v183q0 89 3 148h-2q-16 -29 -66 -98l-173 -233h-99zM165 685l63 73l147 -142l-50 -60z" />
    <glyph glyph-name="afii10110" unicode="&#x45e;" horiz-adv-x="452" 
d="M456 479l-263 -714h-107l88 237l-175 477h115l83 -238q26 -79 32 -110h3q14 56 32 110l81 238h111zM314 721h80q-4 -68 -50 -111t-113 -43q-70 0 -114.5 42.5t-47.5 111.5h79q3 -33 25 -52t58 -19q35 0 58 19.5t25 51.5z" />
    <glyph glyph-name="afii10193" unicode="&#x45f;" horiz-adv-x="575" 
d="M510 0h-167v-155h-111v155h-167v479h112v-382h221v382h112v-479z" />
    <glyph glyph-name="afii10050" unicode="&#x490;" horiz-adv-x="485" 
d="M359 682v158h116v-262h-289v-578h-116v682h289z" />
    <glyph glyph-name="afii10098" unicode="&#x491;" horiz-adv-x="424" 
d="M411 614v-232h-234v-382h-112v479h234v135h112z" />
    <glyph glyph-name="Wgrave" unicode="&#x1e80;" horiz-adv-x="855" 
d="M550 0l-93 390q-19 81 -24 145h-4q-10 -80 -25 -142l-90 -393h-123l-179 682h117l97 -400q13 -52 27 -130h4q12 73 27 139l92 391h113l95 -398q11 -46 26 -132h4q11 74 24 131l90 399h116l-168 -682h-126zM303 814l42 88l182 -97l-34 -71z" />
    <glyph glyph-name="wgrave" unicode="&#x1e81;" horiz-adv-x="710" 
d="M433 0l-58 241q-16 74 -20 104h-4q-6 -50 -23 -124l-52 -221h-134l-123 479h110l64 -272q13 -59 19 -95h4q13 67 21 100l66 267h107l67 -271q6 -24 18 -96h3q7 50 17 95l66 272h110l-125 -479h-133zM234 685l63 73l147 -142l-50 -60z" />
    <glyph glyph-name="Wacute" unicode="&#x1e82;" horiz-adv-x="855" 
d="M550 0l-93 390q-19 81 -24 145h-4q-10 -80 -25 -142l-90 -393h-123l-179 682h117l97 -400q13 -52 27 -130h4q12 73 27 139l92 391h113l95 -398q11 -46 26 -132h4q11 74 24 131l90 399h116l-168 -682h-126zM516 902l41 -88l-190 -80l-33 71z" />
    <glyph glyph-name="wacute" unicode="&#x1e83;" horiz-adv-x="710" 
d="M433 0l-58 241q-16 74 -20 104h-4q-6 -50 -23 -124l-52 -221h-134l-123 479h110l64 -272q13 -59 19 -95h4q13 67 21 100l66 267h107l67 -271q6 -24 18 -96h3q7 50 17 95l66 272h110l-125 -479h-133zM270 616l148 142l62 -73l-160 -129z" />
    <glyph glyph-name="Wdieresis" unicode="&#x1e84;" horiz-adv-x="855" 
d="M550 0l-93 390q-19 81 -24 145h-4q-10 -80 -25 -142l-90 -393h-123l-179 682h117l97 -400q13 -52 27 -130h4q12 73 27 139l92 391h113l95 -398q11 -46 26 -132h4q11 74 24 131l90 399h116l-168 -682h-126zM290 773v102h105v-102h-105zM470 773v102h105v-102h-105z" />
    <glyph glyph-name="wdieresis" unicode="&#x1e85;" horiz-adv-x="710" 
d="M433 0l-58 241q-16 74 -20 104h-4q-6 -50 -23 -124l-52 -221h-134l-123 479h110l64 -272q13 -59 19 -95h4q13 67 21 100l66 267h107l67 -271q6 -24 18 -96h3q7 50 17 95l66 272h110l-125 -479h-133zM214 593v102h105v-102h-105zM394 593v102h105v-102h-105z" />
    <glyph glyph-name="Ygrave" unicode="&#x1ef2;" horiz-adv-x="570" 
d="M227 0v274l-218 408h130l115 -223q24 -47 36 -82h2q9 24 37 81l110 224h123l-217 -407v-275h-118zM144 814l42 88l182 -97l-34 -71z" />
    <glyph glyph-name="ygrave" unicode="&#x1ef3;" horiz-adv-x="452" 
d="M456 479l-263 -714h-107l88 237l-175 477h115l83 -238q26 -79 32 -110h3q14 56 32 110l81 238h111zM105 685l63 73l147 -142l-50 -60z" />
    <glyph glyph-name="uni2010" unicode="&#x2010;" horiz-adv-x="467" 
d="M398 217h-322v94h322v-94z" />
    <glyph glyph-name="endash" unicode="&#x2013;" horiz-adv-x="556" 
d="M480 217h-404v94h404v-94z" />
    <glyph glyph-name="emdash" unicode="&#x2014;" horiz-adv-x="1106" 
d="M1030 217h-954v94h954v-94z" />
    <glyph glyph-name="underscoredbl" unicode="&#x2017;" horiz-adv-x="550" 
d="M0 -235v62h550v-62h-550zM0 -128v63h550v-63h-550z" />
    <glyph glyph-name="quoteleft" unicode="&#x2018;" horiz-adv-x="256" 
d="M194 597v-124h-131v60q0 103 53 187h65q-33 -50 -38 -123h51z" />
    <glyph glyph-name="quoteright" unicode="&#x2019;" horiz-adv-x="256" 
d="M63 596v124h130v-60q0 -103 -53 -187h-65q33 50 38 123h-50z" />
    <glyph glyph-name="quotesinglbase" unicode="&#x201a;" horiz-adv-x="256" 
d="M63 0v124h130v-60q0 -103 -53 -187h-65q33 50 38 123h-50z" />
    <glyph glyph-name="quotereversed" unicode="&#x201b;" horiz-adv-x="256" 
d="M194 720v-124h-51q5 -73 38 -123h-65q-53 84 -53 187v60h131z" />
    <glyph glyph-name="quotedblleft" unicode="&#x201c;" horiz-adv-x="443" 
d="M194 597v-124h-131v60q0 103 53 187h65q-33 -50 -38 -123h51zM380 597v-124h-130v60q0 103 53 187h64q-31 -50 -38 -123h51z" />
    <glyph glyph-name="quotedblright" unicode="&#x201d;" horiz-adv-x="443" 
d="M249 596v124h131v-60q0 -103 -53 -187h-65q33 50 38 123h-51zM63 596v124h130v-60q0 -103 -53 -187h-65q33 50 38 123h-50z" />
    <glyph glyph-name="quotedblbase" unicode="&#x201e;" horiz-adv-x="443" 
d="M249 0v124h131v-60q0 -103 -53 -187h-65q33 50 38 123h-51zM63 0v124h130v-60q0 -103 -53 -187h-65q33 50 38 123h-50z" />
    <glyph glyph-name="dagger" unicode="&#x2020;" horiz-adv-x="451" 
d="M407 428l-142 15l14 -93l-14 -350h-79l-15 350l15 93l-141 -15v108l141 -14l-15 160h108l-14 -160l142 14v-108z" />
    <glyph glyph-name="daggerdbl" unicode="&#x2021;" horiz-adv-x="451" 
d="M276 151l-13 -151h-76l-12 151l12 76l-142 -13v102l142 -13l-12 76l12 77l-142 -13v101l142 -13l-12 151h101l-13 -151l144 13v-101l-144 13l13 -77l-13 -76l144 13v-102l-144 13z" />
    <glyph glyph-name="bullet" unicode="&#x2022;" horiz-adv-x="412" 
d="M66 304q0 58 40.5 99t98.5 41q57 0 99 -41.5t42 -98.5q0 -58 -42 -99t-99 -41q-58 0 -98.5 41t-40.5 99z" />
    <glyph glyph-name="ellipsis" unicode="&#x2026;" horiz-adv-x="1006" 
d="M100 0v135h140v-135h-140zM433 0v135h140v-135h-140zM766 0v135h140v-135h-140z" />
    <glyph glyph-name="perthousand" unicode="&#x2030;" horiz-adv-x="1144" 
d="M580 682h91l-458 -682h-92zM41 515q0 93 48 140.5t113 47.5q61 0 106.5 -45.5t45.5 -140.5q0 -54 -15.5 -94t-40 -60t-49.5 -29t-50 -9q-64 0 -111 45.5t-47 144.5zM268 515q0 112 -70 112q-31 0 -50.5 -27.5t-19.5 -83.5q0 -115 71 -115q30 0 49.5 28.5t19.5 85.5z
M437 169q0 92 47.5 139.5t111.5 47.5q61 0 107 -45t46 -140q0 -55 -15.5 -95t-40 -60t-49.5 -29t-51 -9q-63 0 -109.5 46t-46.5 145zM663 169q0 111 -70 111q-31 0 -50.5 -27.5t-19.5 -82.5q0 -115 71 -115q30 0 49.5 28t19.5 86zM790 169q0 92 48 139.5t112 47.5
q61 0 107 -45t46 -140q0 -55 -15.5 -95t-40 -60t-49.5 -29t-51 -9q-63 0 -110 46t-47 145zM1016 169q0 111 -70 111q-30 0 -49.5 -27.5t-19.5 -82.5q0 -115 70 -115q30 0 49.5 27.5t19.5 86.5z" />
    <glyph glyph-name="minute" unicode="&#x2032;" horiz-adv-x="237" 
d="M116 698l78 -26l-90 -251l-61 18z" />
    <glyph glyph-name="second" unicode="&#x2033;" horiz-adv-x="432" 
d="M116 698l78 -26l-90 -251l-61 18zM311 698l78 -26l-90 -251l-61 18z" />
    <glyph glyph-name="guilsinglleft" unicode="&#x2039;" horiz-adv-x="298" 
d="M52 248l128 207l70 -38l-88 -169l88 -169l-70 -39z" />
    <glyph glyph-name="guilsinglright" unicode="&#x203a;" horiz-adv-x="298" 
d="M246 247l-128 -207l-70 38l87 169l-87 170l70 38z" />
    <glyph glyph-name="exclamdbl" unicode="&#x203c;" horiz-adv-x="513" 
d="M69 0v112h119v-112h-119zM67 682h123l-12 -480h-99zM325 0v112h119v-112h-119zM323 682h123l-12 -480h-99z" />
    <glyph glyph-name="uni203E" unicode="&#x203e;" horiz-adv-x="550" 
d="M0 755v87h550v-87h-550z" />
    <glyph glyph-name="fraction" unicode="&#x2044;" horiz-adv-x="192" 
d="M283 682h88l-461 -682h-89z" />
    <glyph glyph-name="uni2070" unicode="&#x2070;" 
d="M28 646q0 115 52 170.5t126 55.5q70 0 120 -53.5t50 -172.5q0 -68 -17 -117t-45 -73.5t-55.5 -35t-56.5 -10.5q-72 0 -123 55t-51 181zM281 644q0 151 -79 151q-34 0 -56.5 -35t-22.5 -112q0 -160 80 -160q33 0 55.5 37t22.5 119z" />
    <glyph glyph-name="uni2074" unicode="&#x2074;" 
d="M375 500h-63v-75h-90v75h-200v67l202 292h88v-289h63v-70zM187 693l-87 -123h122v131q0 13 2 49h-3q-5 -11 -34 -57z" />
    <glyph glyph-name="uni2075" unicode="&#x2075;" 
d="M169 781l-9 -74q16 4 37 4q72 0 114.5 -40.5t42.5 -107.5q0 -62 -43 -107t-116 -45q-72 0 -111.5 37t-43.5 93h93q2 -23 18 -37t44 -14q27 0 44 19t17 50q0 76 -88 76q-48 0 -100 -12l22 236h230v-78h-151z" />
    <glyph glyph-name="uni2076" unicode="&#x2076;" 
d="M29 569q0 75 63 154l112 136h97l-110 -136q11 4 34 4q66 -3 107.5 -47.5t41.5 -110.5t-47.5 -112t-126.5 -46q-77 0 -124 44.5t-47 113.5zM120 569q0 -37 23 -59.5t58 -22.5t58.5 23t23.5 59t-23 60t-59 24q-35 0 -58 -23.5t-23 -60.5z" />
    <glyph glyph-name="uni2077" unicode="&#x2077;" 
d="M351 859v-70l-172 -364h-101l176 356h-201v78h298z" />
    <glyph glyph-name="uni2078" unicode="&#x2078;" 
d="M138 746q0 -28 18 -45t45 -17q29 0 46.5 17t17.5 45q0 27 -18 43t-46 16t-45.5 -16t-17.5 -43zM129 552q0 -33 20 -52.5t54 -19.5q32 0 52.5 19.5t20.5 52.5q0 32 -20.5 52.5t-52.5 20.5q-33 0 -53.5 -20t-20.5 -53zM362 546q0 -57 -41.5 -96t-118.5 -39
q-78 0 -119.5 37.5t-41.5 95.5q0 84 78 114v1q-65 27 -65 93q0 52 40 86t108 34q66 0 106 -32.5t40 -81.5q0 -35 -18 -60.5t-48 -36.5v-2q80 -29 80 -113z" />
    <glyph glyph-name="uni2079" unicode="&#x2079;" 
d="M374 714q0 -71 -63 -153l-112 -136h-97l110 136q-12 -4 -34 -4q-67 2 -108 46t-41 111t48.5 112.5t125.5 45.5t124 -43.5t47 -114.5zM284 715q0 37 -24 59.5t-58 22.5q-36 0 -59 -22t-23 -60q0 -37 23 -60.5t59 -23.5t59 22.5t23 61.5z" />
    <glyph glyph-name="uni207F" unicode="&#x207f;" horiz-adv-x="443" 
d="M57 328v354h90v-44h2q38 56 104 56q59 0 98 -40.5t39 -121.5v-204h-91v193q0 43 -18 66.5t-49 23.5q-39 0 -61.5 -26t-22.5 -75v-182h-91z" />
    <glyph glyph-name="uni2080" unicode="&#x2080;" 
d="M28 46q0 115 52 170.5t126 55.5q70 0 120 -53.5t50 -172.5q0 -68 -17 -117t-45 -73.5t-55.5 -35t-56.5 -10.5q-72 0 -123 55t-51 181zM281 44q0 151 -79 151q-34 0 -56.5 -35t-22.5 -112q0 -160 80 -160q33 0 55.5 37t22.5 119z" />
    <glyph glyph-name="uni2081" unicode="&#x2081;" 
d="M163 -175v357h-68v77h160v-434h-92z" />
    <glyph glyph-name="uni2082" unicode="&#x2082;" 
d="M56 -175v62l138 147q22 24 33 37t21 33t10 38q0 24 -15.5 38.5t-40.5 14.5q-56 0 -59 -64h-91q2 62 41 101.5t113 39.5q66 0 107 -36t41 -91q0 -39 -21.5 -73.5t-75.5 -90.5l-75 -77h178v-79h-304z" />
    <glyph glyph-name="uni2083" unicode="&#x2083;" 
d="M139 144h-89q2 57 41.5 92.5t107.5 35.5q70 0 108.5 -31t38.5 -82q0 -35 -21 -60.5t-54 -34.5v-2q42 -10 66 -39.5t24 -72.5q0 -58 -43 -98.5t-121 -40.5q-75 0 -115.5 36.5t-45.5 102.5h90q8 -66 72 -66q32 0 50.5 20t18.5 52q0 29 -20.5 48t-60.5 19h-30v69h28
q32 0 50 15t18 40q0 23 -14.5 37.5t-41.5 14.5t-41 -16t-16 -39z" />
    <glyph glyph-name="uni2084" unicode="&#x2084;" 
d="M375 -100h-63v-75h-90v75h-200v67l202 292h88v-289h63v-70zM187 93l-86 -123h121v131q0 12 2 48h-3q-10 -20 -34 -56z" />
    <glyph glyph-name="uni2085" unicode="&#x2085;" 
d="M169 181l-9 -74q16 4 37 4q72 0 114.5 -40.5t42.5 -107.5q0 -62 -43 -107t-116 -45q-72 0 -111.5 37t-43.5 93h93q2 -23 18 -37t44 -14q27 0 44 19t17 50q0 76 -88 76q-48 0 -100 -12l22 236h230v-78h-151z" />
    <glyph glyph-name="uni2086" unicode="&#x2086;" 
d="M29 -31q0 75 63 154l112 136h97l-110 -136q11 4 34 4q66 -3 107.5 -47.5t41.5 -110.5t-47.5 -112t-126.5 -46q-77 0 -124 44.5t-47 113.5zM120 -31q0 -37 23 -59.5t58 -22.5t58.5 23t23.5 59t-23 60t-59 24q-35 0 -58 -23.5t-23 -60.5z" />
    <glyph glyph-name="uni2087" unicode="&#x2087;" 
d="M351 259v-70l-172 -364h-101l176 356h-201v78h298z" />
    <glyph glyph-name="uni2088" unicode="&#x2088;" 
d="M138 146q0 -28 18 -45t45 -17q29 0 46.5 17t17.5 45q0 27 -18 43t-46 16t-45.5 -16t-17.5 -43zM129 -48q0 -33 20 -52.5t54 -19.5q32 0 52.5 19.5t20.5 52.5q0 32 -20.5 52.5t-52.5 20.5q-33 0 -53.5 -20t-20.5 -53zM362 -54q0 -57 -41.5 -96t-118.5 -39
q-78 0 -119.5 37.5t-41.5 95.5q0 84 78 114v1q-65 27 -65 93q0 52 40 86t108 34q66 0 106 -32.5t40 -81.5q0 -35 -18 -60.5t-48 -36.5v-2q80 -29 80 -113z" />
    <glyph glyph-name="uni2089" unicode="&#x2089;" 
d="M374 114q0 -71 -63 -153l-112 -136h-97l110 136q-12 -4 -34 -4q-67 2 -108 46t-41 111t48.5 112.5t125.5 45.5t124 -43.5t47 -114.5zM284 115q0 37 -24 59.5t-58 22.5q-36 0 -59 -22t-23 -60q0 -37 23 -60.5t59 -23.5t59 22.5t23 61.5z" />
    <glyph glyph-name="franc" unicode="&#x20a3;" horiz-adv-x="569" 
d="M358 114h-134v-114h-114v114h-82v89h82v479h394v-104h-280v-176h270v-100h-270v-99h134v-89z" />
    <glyph glyph-name="lira" unicode="&#x20a4;" horiz-adv-x="569" 
d="M372 248h-121q1 -7 1 -18q0 -68 -44 -105q30 0 92 -22q70 -22 89 -22q50 0 53 81h107q-2 -86 -39.5 -135t-110.5 -49q-48 0 -135 29q-70 24 -104 24q-57 0 -114 -34v99q47 15 73 50.5t26 73.5q0 10 -2 28h-108v75h93l-14 58h-79v76h63q-4 34 -4 57q0 81 53.5 136
t154.5 55q93 0 149.5 -53t60.5 -136h-114q-1 41 -28 66.5t-65 25.5q-46 0 -71 -29t-25 -77q0 -31 2 -45h161v-76h-147l13 -58h134v-75z" />
    <glyph glyph-name="peseta" unicode="&#x20a7;" horiz-adv-x="1252" 
d="M70 0v682h194q111 0 180.5 -51.5t73.5 -151.5h66v153h112v-153h120v-94h-120v-214q0 -47 15.5 -65t51.5 -18q22 0 58 8v-91q-39 -11 -86 -11q-83 0 -117 44.5t-34 125.5v221h-80q-44 -136 -246 -136h-70v-249h-118zM1206 356h-103q-4 26 -21.5 42t-42.5 16q-29 0 -45 -15
t-16 -36q0 -24 19.5 -40.5t79.5 -36.5q138 -45 138 -153q0 -67 -47 -108.5t-128 -41.5q-84 0 -129 41t-52 111h104q11 -70 79 -70q31 0 48.5 16.5t17.5 42.5q0 28 -21.5 47t-78.5 39q-135 43 -135 148q0 60 44.5 98.5t119.5 38.5q73 0 116 -38.5t53 -100.5zM399 465
q0 53 -33 85.5t-101 32.5h-77v-236h74q137 0 137 118z" />
    <glyph glyph-name="Euro" unicode="&#x20ac;" horiz-adv-x="569" 
d="M549 99v-101q-62 -20 -127 -20q-129 0 -206.5 65.5t-105.5 178.5h-91l24 83h53q-1 11 -1 37q0 19 2 49h-67l24 84h60q31 106 110.5 167.5t193.5 61.5q66 0 126 -20l-26 -95q-48 16 -100 16q-60 0 -109.5 -32.5t-73.5 -97.5h253l-24 -84h-249q-3 -23 -3 -49q0 -15 2 -37
h229l-24 -83h-187q23 -69 73.5 -106.5t124.5 -37.5q58 0 119 21z" />
    <glyph glyph-name="afii61289" unicode="&#x2113;" horiz-adv-x="569" 
d="M425 111l43 -59q-69 -67 -147 -67q-70 0 -104 45t-34 117v65l-53 -53l-42 45l95 95v207q0 96 39 147t106 51q57 0 84.5 -37t27.5 -83q0 -66 -29.5 -125.5t-87.5 -128.5q-15 -16 -33 -38v-131q0 -91 61 -91q33 0 74 41zM371 572q0 49 -34 49q-47 0 -47 -98v-136
q15 18 17 22q64 85 64 163z" />
    <glyph glyph-name="afii61352" unicode="&#x2116;" horiz-adv-x="1096" 
d="M175 503h-3q3 -102 3 -136v-367h-105v682h105l203 -308q85 -127 122 -198h2q-2 72 -2 133v373h104v-682h-104l-194 293q-91 137 -131 210zM674 330q0 84 55 136t138 52q85 0 139.5 -54t54.5 -134q0 -81 -54.5 -135.5t-139.5 -54.5q-83 0 -138 52.5t-55 137.5zM764 329
q0 -45 29 -75t74 -30q46 0 75 29.5t29 75.5q0 45 -29.5 76t-74.5 31t-74 -28t-29 -79zM1043 0h-354v80h354v-80z" />
    <glyph glyph-name="trademark" unicode="&#x2122;" horiz-adv-x="604" 
d="M510 682l17 -223h-63l-7 110q-1 22 -1 43h-3q-1 -3 -4 -17.5t-6 -25.5l-36 -110h-48l-32 103q-9 28 -13 50h-2q0 -23 -2 -46l-7 -107h-64l19 223h86l30 -93q9 -26 10 -35h1q9 30 11 36l29 92h85zM52 625v57h178v-57h-58v-166h-63v166h-57z" />
    <glyph glyph-name="uni2126" unicode="&#x2126;" horiz-adv-x="758" 
d="M718 382q0 -87 -45.5 -159.5t-127.5 -106.5v-13h174v-103h-282v157q73 20 116.5 79t43.5 140q0 99 -60.5 162.5t-158.5 63.5q-94 0 -156 -63.5t-62 -162.5q0 -81 43.5 -140t116.5 -79v-157h-281v103h173v13q-81 33 -127 105t-46 161q0 133 96 227.5t245 94.5
q155 0 246.5 -93t91.5 -229z" />
    <glyph glyph-name="estimated" unicode="&#x212e;" horiz-adv-x="666" 
d="M629 298h-460v-205q69 -67 163 -67q138 0 221 136l37 -23q-50 -75 -109.5 -113t-148.5 -38q-130 0 -210 89.5t-80 220.5q0 133 79.5 222t212.5 89q134 0 212.5 -88.5t82.5 -222.5zM498 336v167q-70 68 -165 68q-98 0 -164 -66v-169h329z" />
    <glyph glyph-name="onethird" unicode="&#x2153;" horiz-adv-x="971" 
d="M163 250v357h-68v77h160v-434h-92zM659 682h88l-461 -682h-89zM708 319h-89q2 57 41.5 92.5t107.5 35.5q70 0 108.5 -31t38.5 -82q0 -35 -21 -60.5t-54 -34.5v-2q42 -10 66 -39.5t24 -72.5q0 -58 -43 -98.5t-121 -40.5q-75 0 -115.5 36.5t-45.5 102.5h90q8 -66 72 -66
q32 0 50.5 20t18.5 52q0 29 -20.5 48t-60.5 19h-30v69h28q32 0 50 15t18 40q0 23 -14.5 37.5t-41.5 14.5t-41 -16t-16 -39z" />
    <glyph glyph-name="twothirds" unicode="&#x2154;" horiz-adv-x="1005" 
d="M56 250v62l138 147q22 24 33 37t21 33t10 38q0 24 -15.5 38.5t-40.5 14.5q-56 0 -59 -64h-91q2 62 41 101.5t113 39.5q66 0 107 -36t41 -91q0 -39 -21.5 -73.5t-75.5 -90.5l-75 -77h178v-79h-304zM693 682h88l-461 -682h-89zM741 319h-89q2 57 41.5 92.5t107.5 35.5
q70 0 108.5 -31t38.5 -82q0 -35 -21 -60.5t-54 -34.5v-2q42 -10 66 -39.5t24 -72.5q0 -58 -43 -98.5t-121 -40.5q-75 0 -115.5 36.5t-45.5 102.5h90q8 -66 72 -66q32 0 50.5 20t18.5 52q0 29 -20.5 48t-60.5 19h-30v69h28q32 0 50 15t18 40q0 23 -14.5 37.5t-41.5 14.5
t-41 -16t-16 -39z" />
    <glyph glyph-name="oneeighth" unicode="&#x215b;" horiz-adv-x="971" 
d="M163 250v357h-68v77h160v-434h-92zM659 682h88l-461 -682h-89zM707 321q0 -28 18 -45t45 -17q29 0 46.5 17t17.5 45q0 27 -18 43t-46 16t-45.5 -16t-17.5 -43zM698 127q0 -33 20 -52.5t54 -19.5q32 0 52.5 19.5t20.5 52.5q0 32 -20.5 52.5t-52.5 20.5q-33 0 -53.5 -20
t-20.5 -53zM931 121q0 -57 -41.5 -96t-118.5 -39q-78 0 -119.5 37.5t-41.5 95.5q0 84 78 114v1q-65 27 -65 93q0 52 40 86t108 34q66 0 106 -32.5t40 -81.5q0 -35 -18 -60.5t-48 -36.5v-2q80 -29 80 -113z" />
    <glyph glyph-name="threeeighths" unicode="&#x215c;" horiz-adv-x="998" 
d="M139 569h-89q2 57 41.5 92.5t107.5 35.5q70 0 108.5 -31t38.5 -82q0 -35 -21 -60.5t-54 -34.5v-2q42 -10 66 -39.5t24 -72.5q0 -58 -43 -98.5t-121 -40.5q-75 0 -115.5 36.5t-45.5 102.5h90q8 -66 72 -66q32 0 50.5 20t18.5 52q0 29 -20.5 48t-60.5 19h-30v69h28
q32 0 50 15t18 40q0 23 -14.5 37.5t-41.5 14.5t-41 -16t-16 -39zM686 682h88l-461 -682h-89zM733 321q0 -28 18 -45t45 -17q29 0 46.5 17t17.5 45q0 27 -18 43t-46 16t-45.5 -16t-17.5 -43zM724 127q0 -33 20 -52.5t54 -19.5q32 0 52.5 19.5t20.5 52.5q0 32 -20.5 52.5
t-52.5 20.5q-33 0 -53.5 -20t-20.5 -53zM957 121q0 -57 -41.5 -96t-118.5 -39q-78 0 -119.5 37.5t-41.5 95.5q0 84 78 114v1q-65 27 -65 93q0 52 40 86t108 34q66 0 106 -32.5t40 -81.5q0 -35 -18 -60.5t-48 -36.5v-2q80 -29 80 -113z" />
    <glyph glyph-name="fiveeighths" unicode="&#x215d;" horiz-adv-x="998" 
d="M169 606l-9 -74q16 4 37 4q72 0 114.5 -40.5t42.5 -107.5q0 -62 -43 -107t-116 -45q-72 0 -111.5 37t-43.5 93h93q2 -23 18 -37t44 -14q27 0 44 19t17 50q0 76 -88 76q-48 0 -100 -12l22 236h230v-78h-151zM686 682h88l-461 -682h-89zM733 321q0 -28 18 -45t45 -17
q29 0 46.5 17t17.5 45q0 27 -18 43t-46 16t-45.5 -16t-17.5 -43zM724 127q0 -33 20 -52.5t54 -19.5q32 0 52.5 19.5t20.5 52.5q0 32 -20.5 52.5t-52.5 20.5q-33 0 -53.5 -20t-20.5 -53zM957 121q0 -57 -41.5 -96t-118.5 -39q-78 0 -119.5 37.5t-41.5 95.5q0 84 78 114v1
q-65 27 -65 93q0 52 40 86t108 34q66 0 106 -32.5t40 -81.5q0 -35 -18 -60.5t-48 -36.5v-2q80 -29 80 -113z" />
    <glyph glyph-name="seveneighths" unicode="&#x215e;" horiz-adv-x="952" 
d="M351 684v-70l-172 -364h-101l176 356h-201v78h298zM637 682h88l-461 -682h-89zM688 321q0 -28 18 -45t45 -17q29 0 46.5 17t17.5 45q0 27 -18 43t-46 16t-45.5 -16t-17.5 -43zM679 127q0 -33 20 -52.5t54 -19.5q32 0 52.5 19.5t20.5 52.5q0 32 -20.5 52.5t-52.5 20.5
q-33 0 -53.5 -20t-20.5 -53zM912 121q0 -57 -41.5 -96t-118.5 -39q-78 0 -119.5 37.5t-41.5 95.5q0 84 78 114v1q-65 27 -65 93q0 52 40 86t108 34q66 0 106 -32.5t40 -81.5q0 -35 -18 -60.5t-48 -36.5v-2q80 -29 80 -113z" />
    <glyph glyph-name="partialdiff" unicode="&#x2202;" horiz-adv-x="631" 
d="M578 465q0 -96 -25 -187q-35 -126 -111 -207.5t-184 -81.5q-90 0 -146.5 55.5t-56.5 144.5q0 139 81.5 220.5t185.5 81.5q51 0 88.5 -20.5t53.5 -50.5h2q4 18 4 57q0 77 -36.5 120.5t-104.5 43.5q-55 0 -105 -29q-13 41 -25 74q59 39 149 39q108 0 169 -69.5t61 -190.5z
M451 333q-10 35 -38 58t-71 23q-71 0 -123 -67t-52 -163q0 -50 26 -80t69 -30q66 0 116.5 72.5t72.5 186.5z" />
    <glyph glyph-name="uni2206" unicode="&#x2206;" horiz-adv-x="652" 
d="M7 0l271 682h108l259 -682h-638zM284 431l-123 -334h327l-121 335q-21 58 -38 118h-5q-18 -62 -40 -119z" />
    <glyph glyph-name="product" unicode="&#x220f;" horiz-adv-x="763" 
d="M679 -235h-116v813h-363v-813h-116v917h595v-917z" />
    <glyph glyph-name="summation" unicode="&#x2211;" horiz-adv-x="668" 
d="M628 -235h-604v75l312 389l-289 373v80h555v-102h-398l270 -349l-291 -364h445v-102z" />
    <glyph glyph-name="minus" unicode="&#x2212;" horiz-adv-x="672" 
d="M594 219h-516v90h516v-90z" />
    <glyph glyph-name="uni2215" unicode="&#x2215;" horiz-adv-x="192" 
d="M283 682h88l-461 -682h-89z" />
    <glyph glyph-name="uni2219" unicode="&#x2219;" horiz-adv-x="256" 
d="M61 285v135h141v-135h-141z" />
    <glyph glyph-name="radical" unicode="&#x221a;" horiz-adv-x="587" 
d="M581 720l-218 -732h-81l-144 322q-8 -4 -59 -35l-32 56l136 85l139 -311l182 615h77z" />
    <glyph glyph-name="infinity" unicode="&#x221e;" horiz-adv-x="864" 
d="M808 292q0 -76 -50.5 -127t-130.5 -51q-59 0 -110.5 31t-85.5 82h-3q-35 -50 -85.5 -81.5t-108.5 -31.5q-81 0 -131.5 48.5t-50.5 125.5q0 80 50.5 129t129.5 49q120 0 196 -115h3q80 115 193 115q81 0 132.5 -48t51.5 -126zM720 291q0 42 -26 70t-76 28q-78 0 -145 -99
q61 -100 147 -100q49 0 74.5 29t25.5 72zM386 290q-29 45 -68 72t-80 27q-47 0 -73 -28.5t-26 -72.5q0 -42 28 -70t72 -28q82 0 147 100z" />
    <glyph glyph-name="integral" unicode="&#x222b;" horiz-adv-x="518" 
d="M462 725l-22 -93q-22 10 -50 10q-76 0 -76 -88v-589q0 -94 -44.5 -144.5t-124.5 -50.5q-51 0 -95 16l23 94q30 -10 52 -10q74 0 74 85v596q0 92 42.5 141t128.5 49q55 0 92 -16z" />
    <glyph glyph-name="approxequal" unicode="&#x2248;" horiz-adv-x="672" 
d="M619 390q-71 -93 -169 -93q-62 0 -124 33q-62 36 -105 36q-53 0 -103 -66l-65 67q35 44 73.5 68.5t92.5 24.5q63 0 123 -34q65 -35 107 -35q56 0 104 66zM619 161q-72 -92 -169 -92q-62 0 -124 33q-63 35 -105 35q-53 0 -103 -65l-65 66q72 94 166 94q59 0 123 -34
q63 -35 107 -35q55 0 104 66z" />
    <glyph glyph-name="notequal" unicode="&#x2260;" horiz-adv-x="672" 
d="M434 549h102l-71 -128h130v-89h-172l-71 -133h243v-90h-288l-68 -123h-103l68 123h-128v90h173l71 133h-244v89h286z" />
    <glyph glyph-name="lessequal" unicode="&#x2264;" horiz-adv-x="672" 
d="M594 0h-516v90h516v-90zM594 137l-516 203v78l516 203v-100l-369 -141v-2l369 -140v-101z" />
    <glyph glyph-name="greaterequal" unicode="&#x2265;" horiz-adv-x="672" 
d="M594 0h-516v90h516v-90zM594 340l-516 -203v101l369 140v2l-369 141v100l516 -203v-78z" />
    <glyph glyph-name="lozenge" unicode="&#x25ca;" horiz-adv-x="599" 
d="M315 682l226 -341l-226 -341h-44l-225 340l225 342h44zM293 101l158 240l-158 240l-157 -240z" />
    <glyph glyph-name="uniF001" unicode="&#xf001;" horiz-adv-x="567" 
d="M21 385v94h68v79q0 81 42 124t121 43q43 0 73 -9v-92q-30 8 -54 8q-70 0 -70 -76v-77h107v-94h-107v-385h-112v385h-68zM390 0v479h112v-479h-112zM384 585v114h124v-114h-124z" />
    <glyph glyph-name="uniF002" unicode="&#xf002;" horiz-adv-x="570" 
d="M21 385v94h68v79q0 81 42 124t121 43q43 0 73 -9v-92q-30 8 -54 8q-70 0 -70 -76v-77h107v-94h-107v-385h-112v385h-68zM393 0v720h112v-720h-112z" />
    <glyph glyph-name="uniF8FF" unicode="&#xf8ff;" horiz-adv-x="500" 
d="M12 0v665h475v-665h-475zM88 618l162 -243l161 243h-323zM60 575v-484l40 61l80 120l41 61zM440 575l-162 -242l162 -243v485zM411 48l-161 242l-162 -242h323z" />
    <glyph glyph-name="glyph527" horiz-adv-x="518" 
d="M216 625h90v-67q63 -11 100 -49t41 -92h-102q-3 32 -26.5 49.5t-60.5 17.5q-40 0 -60.5 -17.5t-20.5 -44.5q0 -29 23 -46t98 -42q84 -28 124 -70t40 -104q0 -60 -41 -103t-115 -54v-74h-90v73q-76 10 -116.5 51t-42.5 106h102q6 -82 103 -82q43 0 67.5 20.5t24.5 55.5
q0 37 -26 58t-88 42q-89 30 -129.5 68t-40.5 96q0 56 39.5 94t106.5 48v66z" />
    <glyph glyph-name="glyph528" horiz-adv-x="631" 
d="M29 256q0 119 82.5 198.5t203.5 79.5q124 0 205.5 -79.5t81.5 -198.5q0 -117 -82 -198.5t-205 -81.5q-121 0 -203.5 80.5t-82.5 199.5zM147 255q0 -77 49 -127t120 -50q75 0 121.5 50t46.5 127q0 76 -45.5 127t-122.5 51q-76 0 -122.5 -50t-46.5 -128z" />
    <glyph glyph-name="glyph529" horiz-adv-x="384" 
d="M157 0v409h-120v103h235v-512h-115z" />
    <glyph glyph-name="glyph530" horiz-adv-x="551" 
d="M54 0v85l191 125q66 44 89 72.5t23 66.5q0 37 -22 60.5t-62 23.5q-41 0 -66 -23.5t-26 -64.5h-117q5 86 58.5 137.5t152.5 51.5q93 0 147.5 -49.5t54.5 -120.5q0 -61 -29.5 -106.5t-105.5 -95.5l-96 -63h263v-99h-455z" />
    <glyph glyph-name="glyph531" horiz-adv-x="557" 
d="M183 347h-114q2 85 58 135.5t144 50.5q93 0 148.5 -49.5t55.5 -126.5q0 -49 -27 -85.5t-70 -51.5v-3q65 -19 100 -69t35 -122q0 -96 -69.5 -159.5t-173.5 -63.5t-167.5 57.5t-71.5 152.5h114q5 -51 40 -82t84 -31q53 0 89.5 35.5t36.5 93.5q0 60 -38 95.5t-103 35.5h-40
v95h43q46 0 73 25t27 67q0 38 -23.5 63t-63.5 25q-39 0 -62 -25t-25 -63z" />
    <glyph glyph-name="glyph532" horiz-adv-x="601" 
d="M564 21h-94v-195h-112v195h-325v92l332 399h105v-392h94v-99zM303 301l-152 -181h207v185q0 24 2 76h-3q-16 -34 -54 -80z" />
    <glyph glyph-name="glyph533" horiz-adv-x="550" 
d="M248 169q-80 0 -169 -26l37 369h358v-103h-256l-17 -150q39 9 76 9q114 0 178.5 -62.5t64.5 -166.5q0 -97 -66 -166.5t-170 -69.5q-108 0 -168.5 60.5t-67.5 156.5h115q4 -52 34.5 -85t85.5 -33q49 0 84 36.5t35 97.5q0 62 -40.5 97.5t-113.5 35.5z" />
    <glyph glyph-name="glyph534" horiz-adv-x="586" 
d="M38 225q0 57 21.5 108t62.5 110l171 239h128l-158 -219q21 8 56 8q94 0 161.5 -70t67.5 -176q0 -103 -73 -175t-183 -72q-112 0 -183 69.5t-71 177.5zM156 224q0 -62 39.5 -103.5t96.5 -41.5q59 0 98.5 41t39.5 104t-38.5 105t-99.5 42q-60 0 -98 -41t-38 -106z" />
    <glyph glyph-name="glyph535" horiz-adv-x="536" 
d="M486 512v-94l-285 -592h-126l290 583h-322v103h443z" />
    <glyph glyph-name="glyph536" horiz-adv-x="588" 
d="M86 524q0 80 58 130t150 50q93 0 150 -50t57 -130q0 -46 -23 -82.5t-61 -54.5v-2q56 -21 90 -71.5t34 -113.5q0 -100 -67 -162t-180 -62t-180.5 61.5t-67.5 162.5q0 63 34.5 113t89.5 72v2q-37 18 -60.5 55t-23.5 82zM165 206q0 -61 38.5 -96.5t90.5 -35.5q54 0 91 35.5
t37 96.5q0 54 -36.5 91.5t-91.5 37.5q-56 0 -92.5 -37t-36.5 -92zM201 516q0 -40 26 -65t67 -25t66.5 25.5t25.5 65.5q0 39 -26 64.5t-66 25.5t-66.5 -25.5t-26.5 -65.5z" />
    <glyph glyph-name="glyph537" horiz-adv-x="586" 
d="M548 287q0 -109 -107 -249l-158 -212h-128l168 223q-21 -8 -58 -8q-99 2 -163 72t-64 174q0 103 73 175t183 72q112 0 183 -69.5t71 -177.5zM430 288q0 62 -39.5 103.5t-96.5 41.5q-59 0 -98.5 -41t-39.5 -104t38.5 -105t99.5 -42q60 0 98 41t38 106z" />
    <glyph glyph-name="glyph538" horiz-adv-x="532" 
d="M316 -77h-84v104q-83 13 -135.5 74.5t-52.5 155.5q0 87 50.5 150t137.5 76v88h84v-87q70 -11 114.5 -56.5t57.5 -108.5h-107q-17 54 -65 69v-266q54 18 69 78h107q-17 -67 -62 -114t-114 -59v-104zM154 256q0 -49 20 -84.5t58 -48.5v265q-37 -12 -57.5 -46.5t-20.5 -85.5
z" />
    <glyph glyph-name="glyph539" horiz-adv-x="324" 
d="M108 -153v91h106v-55q0 -72 -34 -122h-57q24 35 26 86h-41z" />
    <glyph glyph-name="glyph540" horiz-adv-x="577" 
d="M38 345q0 94 22.5 166t60 112.5t81 60.5t91.5 20q46 0 87.5 -18t78.5 -57t59 -111t22 -170q0 -86 -17 -153.5t-43 -107t-60.5 -65.5t-66 -35t-63.5 -9q-47 0 -88.5 18t-80 57.5t-61 114.5t-22.5 177zM422 345q0 128 -35 193t-98 65q-58 0 -95.5 -62.5t-37.5 -192.5
q0 -139 36.5 -204t99.5 -65q55 0 92.5 64.5t37.5 201.5z" />
    <glyph glyph-name="glyph541" horiz-adv-x="402" 
d="M159 0v579h-103v103h218v-682h-115z" />
    <glyph glyph-name="glyph542" horiz-adv-x="553" 
d="M71 0v92l210 235q48 53 73.5 96.5t25.5 86.5q0 40 -25.5 66.5t-69.5 26.5q-43 0 -70 -30t-27 -79h-118q2 92 60 151t158 59q98 0 154.5 -53.5t56.5 -134.5q0 -64 -33.5 -121.5t-106.5 -136.5l-144 -155h295v-103h-439z" />
    <glyph glyph-name="glyph543" horiz-adv-x="562" 
d="M179 516h-115q4 80 60.5 134t153.5 54q95 0 152 -50t57 -127q0 -57 -34.5 -97.5t-83.5 -54.5v-2q64 -13 102.5 -60t38.5 -119q0 -90 -61.5 -152.5t-172.5 -62.5q-107 0 -166 56t-65 147h115q6 -48 37 -77t82 -29q50 0 82 34.5t32 86.5q0 53 -35 86.5t-104 33.5h-40v96h40
q52 0 83.5 28t31.5 76q0 36 -24 62.5t-69 26.5q-47 0 -70.5 -26t-26.5 -64z" />
    <glyph glyph-name="glyph544" horiz-adv-x="572" 
d="M538 142h-87v-142h-113v142h-302v94l304 446h111v-441h87v-99zM287 449l-143 -208h194v210q0 52 1 80h-3q-18 -36 -49 -82z" />
    <glyph glyph-name="glyph545" horiz-adv-x="560" 
d="M216 579l-15 -145q30 8 65 8q110 0 176 -60.5t66 -165.5q0 -95 -64.5 -166.5t-173.5 -71.5q-104 0 -165 56.5t-67 140.5h121q6 -41 34.5 -67.5t79.5 -26.5q48 0 81 34.5t33 90.5q0 64 -38 99t-111 35q-71 0 -159 -22l35 364h347v-103h-245z" />
    <glyph glyph-name="glyph546" horiz-adv-x="588" 
d="M39 225q0 99 84 218l171 239h128l-158 -219q19 8 54 8q98 0 164.5 -71t66.5 -175q0 -103 -73 -175t-183 -72q-112 0 -183 69.5t-71 177.5zM157 224q0 -63 39 -104t97 -41q59 0 98.5 41t39.5 104t-38.5 105t-99.5 42q-60 0 -98 -41t-38 -106z" />
    <glyph glyph-name="glyph547" horiz-adv-x="491" 
d="M465 682v-96l-274 -586h-126l280 579h-315v103h435z" />
    <glyph glyph-name="glyph548" horiz-adv-x="575" 
d="M186 508q0 -44 30.5 -73.5t70.5 -29.5q45 0 73.5 29t28.5 74q0 44 -29 71.5t-73 27.5q-42 0 -71.5 -27.5t-29.5 -71.5zM169 195q0 -52 33.5 -85.5t86.5 -33.5t86 31.5t33 87.5q0 53 -33 86.5t-85 33.5q-53 0 -87 -34t-34 -86zM524 190q0 -89 -61 -150t-174 -61
q-114 0 -176 59.5t-62 146.5q0 131 122 180v2q-101 42 -101 151q0 78 59.5 132t157.5 54q95 0 154.5 -53.5t59.5 -128.5q0 -57 -27.5 -98t-72.5 -57v-2q121 -43 121 -175z" />
    <glyph glyph-name="glyph549" horiz-adv-x="588" 
d="M549 457q0 -98 -85 -218l-171 -239h-127l158 219q-21 -8 -58 -8q-99 2 -163 72t-64 174q0 103 73 175t183 72q111 0 182.5 -69.5t71.5 -177.5zM431 458q0 63 -39.5 104t-97.5 41q-59 0 -98 -41t-39 -104t38 -105t99 -42t99 41t38 106z" />
    <glyph glyph-name="glyph550" horiz-adv-x="842" 
d="M579 566h89l-407 -566h-89zM36 421q0 73 48.5 119t119.5 46q70 0 118 -46t48 -119t-48 -119.5t-118 -46.5q-71 0 -119.5 46.5t-48.5 119.5zM125 421q0 -40 22.5 -64t56.5 -24q33 0 55 24t22 64t-22 64.5t-55 24.5q-34 0 -56.5 -24.5t-22.5 -64.5zM471 145q0 74 48.5 120
t119.5 46q70 0 118 -46t48 -120q0 -73 -48 -119t-118 -46q-71 0 -119.5 46t-48.5 119zM561 146q0 -41 22 -65t56 -24q33 0 55.5 24t22.5 65q0 40 -22.5 64.5t-55.5 24.5q-34 0 -56 -24.5t-22 -64.5z" />
    <glyph glyph-name="glyph551" horiz-adv-x="1231" 
d="M579 566h89l-407 -566h-89zM36 421q0 73 48.5 119t119.5 46q70 0 118 -46t48 -119t-48 -119.5t-118 -46.5q-71 0 -119.5 46.5t-48.5 119.5zM125 421q0 -40 22.5 -64t56.5 -24q33 0 55 24t22 64t-22 64.5t-55 24.5q-34 0 -56.5 -24.5t-22.5 -64.5zM471 145q0 74 48.5 120
t119.5 46q70 0 118 -46t48 -120q0 -73 -48 -119t-118 -46q-71 0 -119.5 46t-48.5 119zM561 146q0 -41 22 -65t56 -24q33 0 55.5 24t22.5 65q0 40 -22.5 64.5t-55.5 24.5q-34 0 -56 -24.5t-22 -64.5zM861 145q0 74 48 120t119 46t119 -46t48 -120q0 -73 -48.5 -119
t-118.5 -46q-71 0 -119 46t-48 119zM950 146q0 -41 22 -65t56 -24q33 0 55.5 24t22.5 65q0 40 -22.5 64.5t-55.5 24.5q-34 0 -56 -24.5t-22 -64.5z" />
    <glyph glyph-name="glyph552" horiz-adv-x="569" 
d="M29 256q0 124 72.5 201t182.5 77q113 0 184 -77t71 -201q0 -122 -71.5 -201t-183.5 -79q-110 0 -182.5 78t-72.5 202zM147 255q0 -79 39 -128t98 -49q63 0 100 49t37 128q0 78 -36.5 128t-100.5 50q-63 0 -100 -49t-37 -129z" />
    <glyph glyph-name="glyph553" horiz-adv-x="569" 
d="M247 0v409h-121v103h235v-512h-114z" />
    <glyph glyph-name="glyph554" horiz-adv-x="569" 
d="M65 0v85l186 125q65 44 88 73t23 66t-21.5 60.5t-59.5 23.5q-40 0 -64 -23t-25 -63h-116q4 85 57 136t151 51q91 0 144 -49t53 -120q0 -62 -30 -108t-104 -95l-96 -63h262v-99h-448z" />
    <glyph glyph-name="glyph555" horiz-adv-x="569" 
d="M192 347h-115q3 85 59 135.5t144 50.5q93 0 148.5 -49.5t55.5 -126.5q0 -49 -27 -85.5t-70 -51.5v-3q65 -19 99.5 -69t34.5 -122q0 -96 -69 -159.5t-173 -63.5t-168 57.5t-71 152.5h114q5 -51 39.5 -82t84.5 -31q53 0 89 35.5t36 93.5q0 59 -38 95t-102 36h-41v95h44
q46 0 73 25t27 67q0 38 -24 63t-64 25q-38 0 -61 -25t-25 -63z" />
    <glyph glyph-name="glyph556" horiz-adv-x="569" 
d="M545 21h-89v-195h-112v195h-312v92l321 399h103v-392h89v-99zM289 298l-143 -178h198v185q0 24 2 76h-3q-20 -42 -54 -83z" />
    <glyph glyph-name="glyph557" horiz-adv-x="569" 
d="M254 169q-81 0 -170 -26l37 369h358v-103h-256l-17 -150q39 9 76 9q114 0 178.5 -62.5t64.5 -166.5q0 -97 -66 -166.5t-170 -69.5q-108 0 -168.5 61t-67.5 156h115q4 -52 34.5 -85t85.5 -33q49 0 84 36.5t35 97.5q0 62 -40.5 97.5t-112.5 35.5z" />
    <glyph glyph-name="glyph558" horiz-adv-x="569" 
d="M30 225q0 99 84 218l170 239h128l-158 -219q21 8 55 8q98 0 164 -70.5t66 -175.5q0 -103 -72.5 -175t-182.5 -72q-112 0 -183 69.5t-71 177.5zM148 224q0 -63 39 -104t97 -41q59 0 98 41t39 104t-38 105t-99 42q-60 0 -98 -41t-38 -106z" />
    <glyph glyph-name="glyph559" horiz-adv-x="569" 
d="M502 512v-95l-272 -591h-127l280 583h-317v103h436z" />
    <glyph glyph-name="glyph560" horiz-adv-x="569" 
d="M76 524q0 80 58 130t150 50q93 0 150.5 -50t57.5 -130q0 -46 -23.5 -82.5t-61.5 -54.5v-2q57 -21 91 -71.5t34 -113.5q0 -100 -67.5 -162t-180.5 -62t-180 61.5t-67 162.5q0 63 34 113t89 72v2q-37 18 -60.5 55t-23.5 82zM155 206q0 -61 38.5 -96.5t90.5 -35.5
q54 0 91.5 35.5t37.5 96.5q0 55 -36.5 92t-92.5 37t-92.5 -37t-36.5 -92zM191 516q0 -40 26 -65t67 -25t67 25.5t26 65.5q0 39 -26.5 64.5t-66.5 25.5t-66.5 -25.5t-26.5 -65.5z" />
    <glyph glyph-name="glyph561" horiz-adv-x="569" 
d="M539 287q0 -109 -107 -249l-158 -212h-128l168 223q-21 -8 -58 -8q-99 2 -163 72t-64 174q0 103 73 175t183 72q112 0 183 -69.5t71 -177.5zM421 288q0 62 -39.5 103.5t-96.5 41.5q-59 0 -98.5 -41t-39.5 -104t38.5 -105t99.5 -42q60 0 98 41t38 106z" />
    <glyph glyph-name="glyph562" 
d="M28 221q0 115 52 170.5t126 55.5q70 0 120 -53.5t50 -172.5q0 -68 -17 -117t-45 -73.5t-55.5 -35t-56.5 -10.5q-72 0 -123 55t-51 181zM281 219q0 151 -79 151q-34 0 -56.5 -35t-22.5 -112q0 -160 80 -160q33 0 55.5 37t22.5 119z" />
    <glyph glyph-name="glyph563" 
d="M163 0v357h-68v77h160v-434h-92z" />
    <glyph glyph-name="glyph564" 
d="M56 0v62l138 147q22 24 33 37t21 33t10 38q0 24 -15.5 38.5t-40.5 14.5q-56 0 -59 -64h-91q2 62 41 101.5t113 39.5q66 0 107 -36t41 -91q0 -39 -21.5 -73.5t-75.5 -90.5l-75 -77h178v-79h-304z" />
    <glyph glyph-name="glyph565" 
d="M139 319h-89q2 57 41.5 92.5t107.5 35.5q70 0 108.5 -31t38.5 -82q0 -35 -21 -60.5t-54 -34.5v-2q42 -10 66 -39.5t24 -72.5q0 -58 -43 -98.5t-121 -40.5q-75 0 -115.5 36.5t-45.5 102.5h90q8 -66 72 -66q32 0 50.5 20t18.5 52q0 29 -20.5 48t-60.5 19h-30v69h28
q32 0 50 15t18 40q0 23 -14.5 37.5t-41.5 14.5t-41 -16t-16 -39z" />
    <glyph glyph-name="glyph566" 
d="M375 75h-63v-75h-90v75h-200v67l202 292h88v-289h63v-70zM187 268l-86 -123h121v131q0 12 2 48h-3q-10 -20 -34 -56z" />
    <glyph glyph-name="glyph567" 
d="M169 356l-9 -74q16 4 37 4q72 0 114.5 -40.5t42.5 -107.5q0 -62 -43 -107t-116 -45q-72 0 -111.5 37t-43.5 93h93q2 -23 18 -37t44 -14q27 0 44 19t17 50q0 76 -88 76q-48 0 -100 -12l22 236h230v-78h-151z" />
    <glyph glyph-name="glyph568" 
d="M29 144q0 75 63 154l112 136h97l-110 -136q11 4 34 4q66 -3 107.5 -47.5t41.5 -110.5t-47.5 -112t-126.5 -46q-77 0 -124 44.5t-47 113.5zM120 144q0 -37 23 -59.5t58 -22.5t58.5 23t23.5 59t-23 60t-59 24q-35 0 -58 -23.5t-23 -60.5z" />
    <glyph glyph-name="glyph569" 
d="M351 434v-70l-172 -364h-101l176 356h-201v78h298z" />
    <glyph glyph-name="glyph570" 
d="M138 321q0 -28 18 -45t45 -17q29 0 46.5 17t17.5 45q0 27 -18 43t-46 16t-45.5 -16t-17.5 -43zM129 127q0 -33 20 -52.5t54 -19.5q32 0 52.5 19.5t20.5 52.5q0 32 -20.5 52.5t-52.5 20.5q-33 0 -53.5 -20t-20.5 -53zM362 121q0 -57 -41.5 -96t-118.5 -39
q-78 0 -119.5 37.5t-41.5 95.5q0 84 78 114v1q-65 27 -65 93q0 52 40 86t108 34q66 0 106 -32.5t40 -81.5q0 -35 -18 -60.5t-48 -36.5v-2q80 -29 80 -113z" />
    <glyph glyph-name="glyph571" 
d="M374 289q0 -71 -63 -153l-112 -136h-97l110 136q-12 -4 -34 -4q-67 2 -108 46t-41 111t48.5 112.5t125.5 45.5t124 -43.5t47 -114.5zM284 290q0 37 -24 59.5t-58 22.5q-36 0 -59 -22t-23 -60q0 -37 23 -60.5t59 -23.5t59 22.5t23 61.5z" />
    <glyph glyph-name="glyph572" 
d="M28 471q0 115 52 170.5t126 55.5q70 0 120 -53.5t50 -172.5q0 -68 -17 -117t-45 -73.5t-55.5 -35t-56.5 -10.5q-72 0 -123 55t-51 181zM281 469q0 151 -79 151q-34 0 -56.5 -35t-22.5 -112q0 -160 80 -160q33 0 55.5 37t22.5 119z" />
    <glyph glyph-name="glyph573" 
d="M163 250v357h-68v77h160v-434h-92z" />
    <glyph glyph-name="glyph574" 
d="M56 250v62l138 147q22 24 33 37t21 33t10 38q0 24 -15.5 38.5t-40.5 14.5q-56 0 -59 -64h-91q2 62 41 101.5t113 39.5q66 0 107 -36t41 -91q0 -39 -21.5 -73.5t-75.5 -90.5l-75 -77h178v-79h-304z" />
    <glyph glyph-name="glyph575" 
d="M139 569h-89q2 57 41.5 92.5t107.5 35.5q70 0 108.5 -31t38.5 -82q0 -35 -21 -60.5t-54 -34.5v-2q42 -10 66 -39.5t24 -72.5q0 -58 -43 -98.5t-121 -40.5q-75 0 -115.5 36.5t-45.5 102.5h90q8 -66 72 -66q32 0 50.5 20t18.5 52q0 29 -20.5 48t-60.5 19h-30v69h28
q32 0 50 15t18 40q0 23 -14.5 37.5t-41.5 14.5t-41 -16t-16 -39z" />
    <glyph glyph-name="glyph576" 
d="M375 325h-63v-75h-90v75h-200v67l202 292h88v-289h63v-70zM187 518l-87 -123h122v131q0 13 2 49h-3q-5 -11 -34 -57z" />
    <glyph glyph-name="glyph577" 
d="M169 606l-9 -74q16 4 37 4q72 0 114.5 -40.5t42.5 -107.5q0 -62 -43 -107t-116 -45q-72 0 -111.5 37t-43.5 93h93q2 -23 18 -37t44 -14q27 0 44 19t17 50q0 76 -88 76q-48 0 -100 -12l22 236h230v-78h-151z" />
    <glyph glyph-name="glyph578" 
d="M29 394q0 75 63 154l112 136h97l-110 -136q11 4 34 4q66 -3 107.5 -47.5t41.5 -110.5t-47.5 -112t-126.5 -46q-77 0 -124 44.5t-47 113.5zM120 394q0 -37 23 -59.5t58 -22.5t58.5 23t23.5 59t-23 60t-59 24q-35 0 -58 -23.5t-23 -60.5z" />
    <glyph glyph-name="glyph579" 
d="M351 684v-70l-172 -364h-101l176 356h-201v78h298z" />
    <glyph glyph-name="glyph580" 
d="M138 571q0 -28 18 -45t45 -17q29 0 46.5 17t17.5 45q0 27 -18 43t-46 16t-45.5 -16t-17.5 -43zM129 377q0 -33 20 -52.5t54 -19.5q32 0 52.5 19.5t20.5 52.5q0 32 -20.5 52.5t-52.5 20.5q-33 0 -53.5 -20t-20.5 -53zM362 371q0 -57 -41.5 -96t-118.5 -39
q-78 0 -119.5 37.5t-41.5 95.5q0 84 78 114v1q-65 27 -65 93q0 52 40 86t108 34q66 0 106 -32.5t40 -81.5q0 -35 -18 -60.5t-48 -36.5v-2q80 -29 80 -113z" />
    <glyph glyph-name="glyph581" 
d="M374 539q0 -71 -63 -153l-112 -136h-97l110 136q-12 -4 -34 -4q-67 2 -108 46t-41 111t48.5 112.5t125.5 45.5t124 -43.5t47 -114.5zM284 540q0 37 -24 59.5t-58 22.5q-36 0 -59 -22t-23 -60q0 -37 23 -60.5t59 -23.5t59 22.5t23 61.5z" />
    <glyph glyph-name="glyph582" horiz-adv-x="344" 
d="M327 -161h-108q-76 97 -114 224.5t-38 253.5q0 128 38 254.5t114 225.5h108q-77 -98 -113.5 -224t-36.5 -256q0 -128 36.5 -255t113.5 -223z" />
    <glyph glyph-name="glyph583" horiz-adv-x="344" 
d="M125 -161h-109q77 97 114 223t37 256q0 129 -37 255.5t-114 223.5h109q76 -98 114 -225t38 -254t-38 -254t-114 -225z" />
    <glyph glyph-name="glyph584" horiz-adv-x="365" 
d="M301 782v-92h-106v-744h106v-92h-209v928h209z" />
    <glyph glyph-name="glyph585" horiz-adv-x="365" 
d="M64 690v92h209v-928h-209v92h106v744h-106z" />
    <glyph glyph-name="glyph586" horiz-adv-x="382" 
d="M320 796v-85q-70 -1 -70 -79v-186q0 -43 -21 -78t-61 -51v-2q38 -13 60 -48.5t22 -87.5v-177q0 -78 70 -79v-84q-80 1 -127.5 43.5t-47.5 117.5v192q0 35 -22 58.5t-61 26.5v80q39 2 61 26t22 58v192q0 76 43 119t132 44z" />
    <glyph glyph-name="glyph587" horiz-adv-x="382" 
d="M62 711v85q88 -1 131 -44.5t43 -118.5v-192q0 -34 22 -58t61 -26v-80q-39 -3 -61 -26.5t-22 -58.5v-192q0 -75 -47 -117.5t-127 -43.5v84q70 1 70 79v177q0 52 22 87.5t60 48.5v2q-40 16 -61 51t-21 78v186q0 78 -70 79z" />
    <glyph glyph-name="glyph588" horiz-adv-x="256" 
d="M188 682v-112h-119v112h119zM190 0h-123l12 480h99z" />
    <glyph glyph-name="glyph589" horiz-adv-x="454" 
d="M127 357q28 27 40 54.5t12 68.5h100q0 -58 -10.5 -93.5t-41.5 -71.5q-5 -5 -21 -23l-21 -22l-15 -18l-14 -20l-8 -18l-6 -22l-2 -22q0 -39 24.5 -65t65.5 -26q39 0 65.5 27.5t26.5 74.5h114q-2 -92 -59.5 -147.5t-149.5 -55.5q-96 0 -151 52.5t-55 131.5q0 58 28 104
t78 91zM289 682v-112h-120v112h120z" />
    <glyph glyph-name="glyph590" horiz-adv-x="487" 
d="M241 328l128 207l70 -38l-87 -169l87 -169l-70 -39zM52 328l128 207l70 -38l-88 -169l88 -169l-70 -39z" />
    <glyph glyph-name="glyph591" horiz-adv-x="487" 
d="M246 327l-128 -207l-70 38l87 169l-87 170l70 38zM436 327l-128 -207l-71 38l88 169l-88 170l71 38z" />
    <glyph glyph-name="glyph592" horiz-adv-x="298" 
d="M52 328l128 207l70 -38l-88 -169l88 -169l-70 -39z" />
    <glyph glyph-name="glyph593" horiz-adv-x="298" 
d="M246 327l-128 -207l-70 38l87 169l-87 170l70 38z" />
    <glyph glyph-name="glyph594" horiz-adv-x="467" 
d="M398 317h-322v94h322v-94z" />
    <glyph glyph-name="glyph595" horiz-adv-x="556" 
d="M480 317h-404v94h404v-94z" />
    <glyph glyph-name="glyph596" horiz-adv-x="1106" 
d="M1030 317h-954v94h954v-94z" />
    <glyph glyph-name="glyph597" horiz-adv-x="256" 
d="M61 285v135h141v-135h-141z" />
    <glyph glyph-name="glyph598" horiz-adv-x="941" 
d="M882 380q0 -116 -57 -191t-140 -75q-52 0 -84.5 24t-37.5 67h-4q-22 -43 -62 -67t-81 -24q-72 0 -113.5 51.5t-41.5 132.5q0 99 56.5 174t147.5 75q74 0 111 -68h2l10 58h90l-38 -245q-5 -48 -5 -51q0 -56 58 -56q46 0 75 53.5t29 136.5q0 134 -80.5 208t-237.5 74
q-152 0 -244 -100.5t-92 -244.5q0 -139 89.5 -223.5t240.5 -84.5q127 0 202 36l27 -60q-86 -47 -237 -47q-181 0 -294 104t-113 276q0 176 119.5 295.5t306.5 119.5q99 0 177 -28.5t125 -77.5t71.5 -110.5t24.5 -131.5zM561 369q0 49 -21.5 77t-62.5 28q-56 0 -89 -52
t-33 -122q0 -52 22 -82.5t59 -30.5q56 0 90.5 55t34.5 127z" />
    <glyph glyph-name="glyph599" horiz-adv-x="586" 
d="M372 257h-124q5 -25 5 -43q0 -65 -38 -97q37 0 88 -18q56 -22 85 -22q54 0 57 74h105q-3 -94 -43 -133.5t-114 -39.5q-50 0 -127 29q-69 27 -109 27q-57 0 -114 -41v99q106 36 106 117q0 16 -6 48h-93v83h72q-9 36 -9 63q0 76 50 129.5t148 53.5q89 0 142 -48.5
t58 -133.5h-107q-8 85 -90 85q-90 0 -90 -94q0 -23 7 -55h141v-83z" />
    <glyph glyph-name="glyph600" horiz-adv-x="516" 
d="M388 176h-164q38 -105 150 -105q64 0 116 24v-93q-57 -26 -128 -26q-102 0 -167 52t-89 148h-82l21 75h50q-1 11 -1 30q0 27 1 40h-68l22 75h61q25 87 90 138.5t166 51.5q69 0 121 -22l-22 -88q-36 17 -94 17q-108 0 -146 -97h219l-19 -75h-217q-2 -12 -2 -39
q0 -21 1 -31h201z" />
    <glyph glyph-name="glyph601" horiz-adv-x="491" 
d="M53 -124q33 0 51.5 18t25.5 59l49 301h-78v94h92l11 75q13 85 54 124t113 39q35 0 71 -8v-92q-24 6 -49 6q-66 0 -77 -78l-12 -66h86v-94h-99l-49 -302q-14 -87 -54 -128.5t-113 -41.5q-42 0 -71 8v92q19 -6 49 -6z" />
    <glyph glyph-name="glyph602" horiz-adv-x="548" 
d="M61 243v75h119l-135 248h121l71 -138q23 -44 38 -85h2q13 37 36 84l71 139h120l-137 -248h119v-75h-155v-66h155v-75h-155v-102h-114v102h-156v75h156v66h-156z" />
    <glyph glyph-name="glyph603" horiz-adv-x="589" 
d="M547 356h-102l-30 -140h104l-16 -71h-103l-31 -145h-78l31 145h-118l-31 -145h-78l32 145h-102l15 71h101l31 140h-103l15 72h104l30 138h77l-29 -138h117l29 138h78l-29 -138h103zM250 356l-31 -140h118l30 140h-117z" />
    <glyph glyph-name="glyph604" horiz-adv-x="566" 
d="M318 385h-117v-385h-112v385h-68v94h68v25q0 103 57 162t156 59q87 0 140 -47t59 -117h-113q-4 27 -25 49.5t-64 22.5q-98 0 -98 -123v-31h117v-94zM389 0v479h112v-479h-112z" />
    <glyph glyph-name="glyph605" horiz-adv-x="567" 
d="M319 385h-117v-385h-112v385h-69v94h69v40q0 105 56 155.5t157 50.5q88 0 199 -32v-693h-112v619q-42 12 -84 12q-55 0 -79.5 -29t-24.5 -91v-32h117v-94z" />
    <glyph glyph-name="glyph606" horiz-adv-x="616" 
d="M202 385v-385h-112v385h-69v94h69v29q0 106 55 161.5t150 55.5q83 0 140 -43q37 43 118 43q43 0 73 -9v-92q-30 8 -54 8q-70 0 -70 -76v-77h107v-94h-107v-385h-112v385h-188zM390 479v79q0 28 5 44q-40 31 -93 31t-76.5 -30t-23.5 -92v-32h188z" />
    <glyph glyph-name="glyph607" horiz-adv-x="867" 
d="M390 385h-188v-385h-112v385h-69v94h69v29q0 105 56.5 161t150.5 56q90 0 154 -53q56 53 152 53q87 0 140 -47t59 -117h-112q-4 27 -25.5 49.5t-64.5 22.5q-98 0 -98 -121v-33h117v-94h-117v-385h-112v385zM690 0v479h112v-479h-112zM390 479v27q0 49 14 88
q-18 17 -47.5 28t-52.5 11q-54 0 -78 -30t-24 -92v-32h188z" />
    <glyph glyph-name="glyph608" horiz-adv-x="868" 
d="M390 385h-188v-385h-112v385h-69v94h69v40q0 104 55.5 155t150.5 51q86 0 149 -50q57 50 153 50q99 0 205 -27v-698h-112v621q-38 10 -86 10q-55 0 -79 -29t-24 -91v-32h111v-94h-111v-385h-112v385zM390 479v43q0 46 11 75q-45 36 -97 36q-54 0 -78 -30t-24 -92v-32h188
z" />
    <glyph glyph-name="glyph609" horiz-adv-x="324" 
d="M248 902l41 -88l-190 -80l-33 71z" />
    <glyph glyph-name="glyph610" horiz-adv-x="324" 
d="M245 886h80q-4 -63 -49 -101t-114 -38q-75 0 -117.5 38.5t-44.5 100.5h79q2 -27 24 -42.5t59 -15.5q38 0 59.5 16t23.5 42z" />
    <glyph glyph-name="glyph611" horiz-adv-x="324" 
d="M162 734l-155 101l32 62l123 -59l124 59l31 -62z" />
    <glyph glyph-name="glyph612" horiz-adv-x="324" 
d="M162 897l155 -101l-32 -62l-123 59l-123 -59l-32 62z" />
    <glyph glyph-name="glyph613" horiz-adv-x="324" 
d="M20 773v102h105v-102h-105zM200 773v102h105v-102h-105z" />
    <glyph glyph-name="glyph614" horiz-adv-x="324" 
d="M108 773v104h108v-104h-108z" />
    <glyph glyph-name="glyph615" horiz-adv-x="324" 
d="M35 814l42 88l182 -97l-34 -71z" />
    <glyph glyph-name="glyph616" horiz-adv-x="324" 
d="M174 907l58 -76l-159 -105l-47 62zM371 907l58 -76l-160 -105l-46 62z" />
    <glyph glyph-name="glyph617" horiz-adv-x="324" 
d="M303 777h-282v80h282v-80z" />
    <glyph glyph-name="glyph618" horiz-adv-x="324" 
d="M102 842q0 -25 18 -43t44 -18q25 0 42 17.5t17 43.5q0 25 -17 42t-42 17q-26 0 -44 -17t-18 -42zM37 842q0 52 36.5 88.5t90.5 36.5q52 0 88.5 -36.5t36.5 -88.5q0 -53 -36.5 -90t-88.5 -37q-54 0 -90.5 37t-36.5 90z" />
    <glyph glyph-name="glyph619" horiz-adv-x="324" 
d="M64 770h-71q3 58 28 93t74 35q36 0 75 -30q37 -28 60 -28q29 0 30 49h71q-5 -128 -103 -128q-43 0 -81 29q-37 29 -53 29q-27 0 -30 -49z" />
    <glyph glyph-name="glyph620" horiz-adv-x="324" 
d="M91 629v91h106v-55q0 -72 -34 -122h-57q24 35 26 86h-41z" />
    <glyph glyph-name="glyph621" horiz-adv-x="324" 
d="M217 642v-91h-106v55q0 72 34 122h57q-24 -35 -26 -86h41z" />
  </font>
</defs>
</svg>
